<?xml version="1.0" encoding="utf-8" ?>
<svg baseProfile="full" height="200.0" version="1.1" width="300.0" xmlns="http://www.w3.org/2000/svg" xmlns:ev="http://www.w3.org/2001/xml-events" xmlns:xlink="http://www.w3.org/1999/xlink"><defs><radialGradient cx="424.0" cy="1236.0" gradientUnits="userSpaceOnUse" id="id1" r="50.0"><stop offset="0.0" stop-color="#c8e8ff" stop-opacity="0.0" /><stop offset="1.0" stop-color="#c8e8ff" stop-opacity="0.7" /></radialGradient><radialGradient cx="424.0" cy="1236.0" gradientUnits="userSpaceOnUse" id="id2" r="50.0"><stop offset="0.0" stop-color="#c8e8ff" stop-opacity="0.0" /><stop offset="1.0" stop-color="#c8e8ff" stop-opacity="0.7" /></radialGradient></defs><rect fill="#eee" height="200.0" width="300.0" x="0.0" y="0.0" /><path d="M 155.29146263375878,-239.71267974376678 L 152.9788273833692,-279.28507171571255 L 139.9595474526286,-277.9152577370405 " fill="none" stroke="#FFF" stroke-linecap="butt" stroke-width="6.0" /><path d="M -189.2055365331471,-10112.472240328789 L -176.87148185819387,-9905.29196766764 L 125.1415512226522,-5838.250633247197 L 126.08373595401645,-5809.177420556545 L 271.26583778485656,-3999.207695633173 L 301.7583618313074,-3599.350494854152 L 455.59143256396055,-1373.7765660360456 L 464.0710951499641,-1258.8623822554946 L 466.04111777246,-1231.7700640410185 L 523.6856927238405,-450.05546572059393 L 526.2552874460816,-415.04901695996523 L 528.653575848788,-382.3256161212921 L 557.6899962164462,11.419192880392075 L 576.8763034790754,341.23743856698275 L 577.0476097948849,371.373024456203 L 575.3345466442406,406.531188711524 L 572.7649519219995,493.132811807096 L 561.6300414614379,561.0137848556042 L 538.6749952696264,616.8709398657084 L 505.1846107169986,697.6886923983693 L 451.65138732641935,788.8558555468917 L 373.96397354081273,874.543729364872 L 144.24220532551408,1109.3857051730156 L -147.57810202240944,861.3024496883154 L -171.56098609790206,841.0600278824568 L -190.06206810474396,823.5571763888001 L -1312.7180024720728,-135.75917573273182 L -1331.3903907872736,-157.52394996583462 L -1343.8100986219943,-180.049738638103 L -1344.152711249888,-202.7277372777462 L -1336.7008865512908,-224.94914028048515 L -1322.7394218929112,-251.12779013812542 L -1305.2661777809262,-280.8070873171091 L -1279.0563116073608,-311.5518108457327 L -763.3386507481337,-875.157162733376 L -744.066690325737,-866.0249782726169 L -718.6277025714517,-863.2853231951594 L -699.1844358369708,-864.350744612515 L -679.1415970027447,-879.7232555001974 L -660.8974744677544,-901.6405055895448 L -653.7026092484593,-924.9275926500559 L -657.3856950178742,-958.2601057887077 L -674.1737138666213,-984.4390790015459 L -509.8053047694266,-1182.7603962421417 L -486.9359117373824,-1244.555201433599 L -436.9144678041339,-1335.116670101881 L -391.86090699210763,-1417.0026212111115 L -356.05788719281554,-1500.410732112825 L -319.1413763426244,-1584.8843945413828 L -287.10709546878934,-1688.2316152602434 L -262.86725191399455,-1771.1834910809994 L -242.39614728838205,-1854.8965108171105 L -227.92076368257403,-1937.544207841158 L -218.75587584078312,-2019.7354019209743 L -215.4154026992619,-2116.5385097637773 L -217.89934426173568,-2222.626373641193 L -321.111398961395,-3551.8609719499946 L -355.88658088073134,-4007.883728660643 L -492.3320606574416,-5762.294992402196 L -495.24426800757647,-5794.108064576983 L -824.7519646212459,-9853.230616778135 L -844.7091503031552,-10070.457666657865 " fill="#CFE0A8" opacity="0.5" /><path d="M 283.0003203563392,1280.608206346631 L 291.2230234667659,1243.4719902724028 L 314.6063354462385,1214.5544288232923 L 559.9169783107936,965.8628193438053 L 657.7328840903938,815.4906430691481 L 718.5466258600354,688.8611466288567 L 728.7393515966833,409.27078507095575 L 725.9984505586326,370.45982513576746 L 722.5723242610693,328.1482399329543 L 713.4074364155531,207.14911580085754 L 693.1076381057501,-56.61460953950882 L 692.9363317936659,-263.3039102703333 L 679.4887860715389,-425.5509493947029 L 629.4673421382904,-1135.7294176444411 L 596.5765296891332,-1327.9630700573325 L 458.503639921546,-3143.1786672845483 L 443.685643684119,-3337.8541702777147 L 347.75410736724734,-4529.665732614696 L 351.6941526122391,-4544.582555145025 L 403.856925483793,-4708.21121121943 L 371.56568513438106,-5158.306501545012 L 313.92111018300056,-5337.310514360666 L 110.23790182545781,-7721.190069802105 L 113.06445602327585,-7735.803252890706 L 120.00236177816987,-7744.784273453057 L 129.0815964601934,-7749.655336022377 L 4330.197661843151,-8084.846288911998 L 9170.114975303411,-8485.34259299934 L 9370.88597631082,-8501.173745267093 L 9766.60356361419,-8525.529372431338 L 9815.854129128158,-8522.18047310412 L 9855.597194176167,-8516.548233762383 L 9872.727825660259,-8510.307104319334 L 9886.603637162596,-8500.717077367008 L 9894.826340280473,-8486.255928583443 L 9896.967669207603,-8470.4247802943 L 9896.796362899244,-8449.874738298357 L 9631.614187508821,-7040.919934041798 L 9594.012451399118,-6875.610445134342 L 9555.040264770389,-6741.201687969267 L 9500.136590860784,-6592.789200939238 L 9430.32926755771,-6430.525306366384 L 9382.19219308719,-6349.69795961678 L 9261.849506907165,-6187.739162877202 L 9187.930832047015,-6100.214621089399 L 9034.354720786214,-5905.530059590936 L 8839.665093958378,-5710.8461365401745 L 8656.7099496983,-5551.628953970969 L 8296.281463254243,-5365.4702083691955 L 5599.748761199415,-4582.026840336621 L 5336.3653021119535,-4559.651593871415 L 4949.898255817592,-4458.430346280336 L 4497.221318826079,-4218.239865802228 L 4377.6495110578835,-4090.8388457149267 L 4281.46101526916,-3991.292719170451 L 4204.887092530727,-3902.4015179276466 L 4009.9405062310398,-3613.962663322687 L 3906.471492063254,-3414.2633380889893 L 3891.8248021416366,-3379.102931894362 L 3873.3237201422453,-3331.3091664537787 L 3856.707007601857,-3339.528473712504 L 3803.2594373635948,-3202.0835409909487 L 3771.9960349053144,-3102.9955310970545 L 3751.5249302834272,-2982.1418688595295 L 3737.734771937132,-2861.2884526476264 L 3768.741214927286,-2859.157538205385 L 3765.486394941807,-2822.627588070929 L 3734.6512582674623,-2824.7585012093186 L 3731.0538256578147,-2721.5615098252892 L 3738.676956664771,-2630.0846806913614 L 3795.5506531968713,-2329.0188407823443 L 3824.8440330401063,-2334.4982863143086 L 3834.0945740379393,-2293.55466388911 L 3804.030315782875,-2287.4663952812552 L 3904.15885681659,-1793.862097516656 L 3939.3623045161366,-1801.167959138751 L 3945.6149850077927,-1777.5761175453663 L 3909.8119652047753,-1770.4224641919136 L 3950.4115618243814,-1567.3808329850435 L 3999.747780498117,-1577.274149760604 L 4002.2317220643163,-1555.6610598564148 L 3999.1482083946466,-1539.375145278871 L 3984.92978426069,-1520.3495496958494 L 3959.833409141749,-1515.935612373054 L 3972.8526890687644,-1437.5502288714051 L 3995.6364289447665,-1436.7892062589526 L 4011.4822630621493,-1425.9826858714223 L 4018.762781444937,-1413.1975094676018 L 4027.6707098186016,-1386.4095295667648 L 4199.919209402055,-979.7207748144865 L 4278.034888975322,-854.7619527354836 L 4363.345433767885,-748.2199247553945 L 4515.294135041535,-591.2990860939026 L 4668.784593142569,-441.98876045644283 L 4756.065160565078,-369.2362608090043 L 4805.915298182517,-309.11658465862274 L 4836.921741168946,-235.7554420158267 L 4851.22581846267,-176.54910875856876 L 4857.478498954326,-110.18938126415014 L 4848.741876896471,-13.693946585059166 L 4816.364983391017,75.49570055305958 L 4784.159396197647,112.93704839795828 L 4767.028764713556,135.7671268954873 L 4749.041601650417,158.74939708411694 L 4721.718244437128,140.02874056249857 L 4131.22537714988,845.0171935856342 L 4177.221122682095,884.5888361632824 L 4120.604385625571,951.0995759516954 L 4102.7028757222,959.622685983777 L 4084.7157126665115,960.688074670732 L 4064.5872206687927,954.9045359715819 L 4048.0561612844467,943.4896552786231 L 3986.385887943208,1024.4591614380479 L 3995.3794694691896,1032.3734681233764 L 3999.1482083946466,1043.1795390322804 L 3998.976902078837,1054.2900042682886 L 3994.4372847378254,1064.9438730701804 L 3956.4072828404605,1107.7115271762013 L 3931.310907714069,1085.795010767877 L 3753.7519123740494,1285.0219354256988 L 3781.5035353787243,1309.6779330819845 L 3740.0474071875215,1356.706937275827 L 3712.210131023079,1332.2031565606594 L 3661.160849198699,1394.4518715888262 L 3353.0664419420063,1766.1164354979992 L 3379.1050017997622,1785.2931680828333 L 3232.6381026022136,1957.8834823444486 L 3124.286858458072,2085.7278361171484 L 3067.3275087699294,2152.8460116535425 L 2966.513742480427,2272.0148302540183 L 2747.4129657894373,2512.4824714660645 L 2385.528375670314,2935.8857864513993 L 2331.309927020222,2975.760421857238 L 2295.078641425818,2985.0442071706057 L 2271.780982606113,2990.0665822327137 L 2211.3955066241324,2985.0442071706057 L 2162.2305942587554,2951.2573093622923 L 321.03032225370407,1347.1185025274754 L 292.2508613578975,1315.1570422574878 L 283.0003203563392,1280.608206346631 Z " fill="#000" opacity="0.05" /><path d="M 819.8743110969663,1672.0590384677052 L 319.74552489072084,1252.147255949676 L 580.9020018801093,988.8447681590915 L 689.3388991765678,829.6451252996922 L 715.1204995661974,831.1671124473214 L 732.850703150034,1093.8615073487163 L 794.9492422863841,1089.5999621078372 L 840.8593346662819,1652.882269360125 L 819.8743110969663,1672.0590384677052 Z " fill="#CFE0A8" stroke="#BFD098" /><path d="M -1360.341158002615,-34.39326949417591 L -1350.6623512096703,-41.39451273530722 L -1338.7565623298287,-44.43853177130222 L -1320.6837461143732,-44.134129881858826 L -1305.9514030329883,-39.56810136884451 L -1287.9642399773002,-28.609634444117546 L 94.64902717620134,1164.785750709474 L 99.70256346836686,1169.047290571034 L 84.71326091513038,1181.9841059669852 L 60.98733630776405,1181.9841059669852 L 40.85884431749582,1171.0258624851704 L -1360.341158002615,-34.39326949417591 Z " fill="#CFE0A8" stroke="#BFD098" /><path d="M -190.06206810474396,823.5571763888001 L -11.81784750148654,617.479736931622 L -1.1968559846282005,594.80204295367 L -3.0812254436314106,572.885337151587 L -16.70007747784257,553.5560135915875 L -464.7517439611256,134.24512192606926 L -504.1521963812411,92.23776959627867 L -524.3663415312767,61.18883789330721 L -537.2143151462078,22.52985118329525 L -604.1094310954213,-248.3881634324789 L -1322.7394218929112,-251.12779013812542 L -1336.7008865512908,-224.94914028048515 L -1344.152711249888,-202.7277372777462 L -1343.8100986219943,-180.049738638103 L -1331.3903907872736,-157.52394996583462 L -1312.7180024720728,-135.75917573273182 L -190.06206810474396,823.5571763888001 Z " fill="#CFE0A8" stroke="#BFD098" /><path d="M 575.3345466442406,406.531188711524 L 233.49279536306858,510.6357607245445 L 147.06875952333212,546.402640260756 L 66.89740417525172,615.0445487201214 L -147.57810202240944,861.3024496883154 L 144.24220532551408,1109.3857051730156 L 373.96397354081273,874.543729364872 L 451.65138732641935,788.8558555468917 L 505.1846107169986,697.6886923983693 L 538.6749952696264,616.8709398657084 L 561.6300414614379,561.0137848556042 L 572.7649519219995,493.132811807096 L 575.3345466442406,406.531188711524 Z " fill="#CFE0A8" stroke="#BFD098" /><path d="M -548.3492256104946,-249.453573808074 L -489.76246593147516,5.483360879123211 L -474.2592444382608,42.315949872136116 L -450.1050540469587,73.36489149183035 L -197.94215858727694,313.38483799248934 L -157.770827755332,340.93303863704205 L -106.63589277118444,373.65602280944586 L -49.762196239084005,386.2886118590832 L -7.877802260220051,386.2886118590832 L 35.719654873013496,378.222019135952 L 70.23787730932236,369.0900261104107 L 94.90598665177822,357.675032787025 L 132.25076328590512,335.758239492774 L 155.80538158118725,315.6678385362029 L 178.76042776927352,287.66302582621574 L 188.01096877083182,261.6368022188544 L -4.965594906359911,170.9254306703806 L -84.28041868284345,119.3294712305069 L -122.73868636414409,73.36489149183035 L -165.82222454994917,-57.680016435682774 L -168.13485980033875,-101.20951560884714 L -157.770827755332,-134.54156623780727 L -73.31681453064084,-296.02724550664425 L -402.7388579919934,-248.8447678461671 L -548.3492256104946,-249.453573808074 Z " fill="#CFE0A8" stroke="#BFD098" /><path d="M 464.2424014694989,374.26482231914997 L 269.55277464166284,287.0542254149914 L 300.0452986843884,373.1994231492281 L 316.06243912130594,391.0068070963025 L 341.92969266697764,402.4217939823866 L 371.2230725027621,402.4217939823866 L 464.2424014694989,374.26482231914997 Z " fill="#CFE0A8" stroke="#BFD098" /><path d="M 193.7497303187847,324.1910397410393 L 247.71121949329972,450.06031557917595 L 168.48204888030887,474.2600611373782 L 114.43490653857589,501.80818716436625 L 62.786052618175745,536.2052768021822 L 38.631862223148346,544.2718480601907 L 12.25068973749876,543.2064519003034 L -13.016991704702377,532.8568884059787 L -146.89287676289678,398.31239894777536 L -85.39390973001719,417.7939728423953 L -23.38102375343442,423.57756389677525 L 71.43702151626348,406.98778811097145 L 132.8503353893757,382.3314155712724 L 168.48204888030887,353.5656346604228 L 193.7497303187847,324.1910397410393 Z " fill="#CFE0A8" stroke="#BFD098" /><path d="M -45.13692573830485,-285.06873124837875 L -127.8778758123517,-126.01830036193132 L -134.81578156352043,-97.86109147965908 L -133.10271841287613,-58.74542339891195 L -87.70654497668147,61.79764060676098 L -55.500957787036896,97.41258995980024 L 4.199292935431004,133.02751791477203 L 201.2015550173819,219.7817402780056 L 226.72619592770934,112.32824615389109 L 205.39855973049998,112.93704839795828 L 206.59770392999053,148.85636798292398 L 113.06445602327585,152.2047779932618 L 109.12441078573465,40.79394255578518 L 202.74331184849143,37.597726963460445 L 204.28506868332624,82.49692999571562 L 225.6127048805356,82.19252873957157 L 215.84824493527412,-42.30771839618683 L 197.00455030053854,-42.30771839618683 L 200.60198291391134,11.875795312225819 L 106.4691629037261,14.767610661685467 L 69.6383052058518,-58.74542339891195 L -44.023434691131115,-58.74542339891195 L -45.13692573830485,-285.06873124837875 Z " fill="#CFE0A8" stroke="#BFD098" /><path d="M 259.2743957452476,74.58249667286873 L 364.8847388513386,-360.8651630356908 L 224.15660120546818,-339.5569194033742 L 259.2743957452476,74.58249667286873 Z " fill="#CFE0A8" stroke="#BFD098" /><path d="M 184.07092352956533,-232.40701027214527 L 180.47349091991782,-286.2863438054919 L 196.57628451660275,-287.35175486654043 L 200.68763606995344,-234.53783047944307 L 184.07092352956533,-232.40701027214527 Z " fill="#CFE0A8" stroke="#BFD098" /><path d="M 185.95529299229383,-205.77176459133625 L 194.77756820619106,-74.72652976214886 L 213.19299705699086,-75.48753496259451 L 202.82896500825882,-206.98937556147575 L 185.95529299229383,-205.77176459133625 Z " fill="#CFE0A8" stroke="#BFD098" /><path d="M 528.653575848788,-382.3256161212921 L 419.1031875014305,-366.9532340243459 L 274.3493514545262,241.85077661275864 L 524.7991837635636,354.4788342490792 L 576.8763034790754,341.23743856698275 " fill="#CFE0A8" stroke="#BFD098" /><path d="M 84.028035659343,159.51039925217628 L 46.59760586544871,151.29157526046038 L 17.818144969642162,163.46761037409306 L 2.3149234764277935,183.10146173089743 L -30.832848452031612,198.62589774280787 L -72.63158927112818,200.45230171829462 L -104.32325752452016,189.49387704581022 L -128.39179475605488,163.16320952773094 L -143.38109730929136,131.9621144235134 L -169.33400400727987,103.19621219485998 L -200.85436593741179,83.71453504264355 L -231.00427735224366,83.56233441084623 L -258.3276345729828,99.84779939055443 L -266.0364187397063,122.67788295447826 L -260.55461666733027,145.81235868483782 L -242.91006623208523,164.8374141678214 L -216.95715953409672,180.20965459942818 L -205.56528959795833,202.27870561927557 L -205.47963643819094,226.17415162920952 L -209.07706904783845,255.0921944603324 L -196.22909543663263,283.70582297444344 L -157.17125565186143,308.9710366874933 L -145.00850729644299,330.4312399029732 L -145.69373255595565,354.7832341492176 L -156.91429618373513,380.80941693484783 L -148.00636781007051,407.74878711253405 L -127.19265055656433,428.2957561314106 L -100.46886543557048,440.4717344492674 L -69.71938192099333,446.5597226396203 L -42.90994364395738,452.49551057070494 L -7.877802260220051,448.9949177801609 L 19.274248644709587,440.77613385766745 L 49.59546637162566,442.1459312662482 L 90.19506299123168,455.9961031600833 L 109.46702341362834,464.97588317096233 L 130.9659659266472,464.67148392647505 L 146.81180004775524,448.38611902296543 L 146.04092163592577,428.2957561314106 L 139.70258798450232,404.55259127914906 L 125.3985106907785,387.0496111288667 L 110.66616761684418,369.5466257929802 L 109.80963604152203,347.6298368796706 L 112.37923076376319,329.8224399238825 L 120.68758703395724,310.18863708525896 L 138.2464843094349,294.8164303228259 L 148.35355688259006,276.70461727678776 L 151.60837686434388,247.93878516554832 L 146.04092163592577,219.32513941824436 L 134.3920922242105,195.125289991498 L 110.75182076916099,172.7518354654312 L 84.028035659343,159.51039925217628 Z " fill="#B8CC84" /><path d="M 109.12441078573465,40.79394255578518 L 202.74331184849143,37.597726963460445 L 204.28506868332624,82.49692999571562 L 204.79898762702942,97.41258995980024 L 205.39855973049998,112.93704839795828 L 206.59770392999053,148.85636798292398 L 113.06445602327585,152.2047779932618 L 109.12441078573465,40.79394255578518 Z " fill="#ADC" stroke="#8BA" stroke-width="1.0" /><path d="M 10.023707643151283,-280.3504826501012 L 139.35997535660863,-288.2649643793702 L 139.9595474526286,-277.9152577370405 L 150.92315160483122,-99.5353034734726 L 21.586883895099163,-91.62084696441889 L 10.023707643151283,-280.3504826501012 Z " fill="#ADC" stroke="#8BA" stroke-width="1.0" /><path d="M 74.7774946577847,1337.6822636798024 L 193.7497303187847,1204.0527846589684 L 210.45209601521492,1186.8544357717037 L 413.02181332558393,961.1446697935462 L 498.07539865002036,868.6079836338758 L 543.471572086215,803.1625429019332 L 586.3838039524853,722.1927350088954 L 624.9277247935534,616.4143420979381 L 648.9962620325387,506.6785727292299 L 656.6193930394948,370.3076252415776 L 650.8806314952672,269.09461015462875 L 640.2596399784088,69.40767431259155 L 624.9277247935534,-156.76294372230768 L 607.2831743657589,-421.5936993137002 L 580.8163487240672,-810.0142777115107 L 552.379500452429,-1226.4429242759943 L 550.6664373092353,-1246.8382619544864" fill="none" stroke="#ca2" stroke-linecap="round" stroke-linejoin="round" stroke-width="153.7605999961164" /><path d="M 74.7774946577847,1337.6822636798024 L 193.7497303187847,1204.0527846589684 L 210.45209601521492,1186.8544357717037 L 413.02181332558393,961.1446697935462 L 498.07539865002036,868.6079836338758 L 543.471572086215,803.1625429019332 L 586.3838039524853,722.1927350088954 L 624.9277247935534,616.4143420979381 L 648.9962620325387,506.6785727292299 L 656.6193930394948,370.3076252415776 L 650.8806314952672,269.09461015462875 L 640.2596399784088,69.40767431259155 L 624.9277247935534,-156.76294372230768 L 607.2831743657589,-421.5936993137002 L 580.8163487240672,-810.0142777115107 L 552.379500452429,-1226.4429242759943 L 550.6664373092353,-1246.8382619544864" fill="none" stroke="#ff8" stroke-linecap="round" stroke-linejoin="round" stroke-width="151.7605999961164" /><path d="M 93.66866548821535,1354.5013431555205 L 212.27645285436935,1221.2812120426227 L 228.59698055456641,1204.4760399781499 L 229.27613767157231,1203.7486130371037 L 431.7456223836478,978.1505294792239 L 516.6976569963348,885.7243285660791 L 518.8584060121342,883.0240987395954 L 564.2545794483289,817.5786580076527 L 565.8203660481806,815.0069161736874 L 608.7325979144509,734.0371082806496 L 610.1486971177227,730.8522744077253 L 648.6926179587907,625.073881496768 L 649.6338760272954,621.8331852374375 L 673.7024132662807,512.0974158687294 L 674.0565625070928,510.10481117395204 L 674.2502692052201,508.0902708121034 L 681.8734002121762,371.7193233244511 L 681.8722665715312,368.8757914069428 L 676.1360114914787,267.7069821637843 L 665.517371656837,68.06426066982887 L 665.4951565093908,67.69697995953756 L 650.1642319568102,-158.45902464245574 L 632.5206552358849,-423.2751656633658 L 632.5180926020034,-423.3131967301244 L 606.0512669603118,-811.7337751279349 L 577.6141653862251,-1228.1661350681147 L 577.5841829943633,-1228.5599381435322 L 575.8711198511696,-1248.9552758220243" fill="none" opacity="0.5" stroke="#ca2" stroke-linejoin="round" stroke-width="1.0" /><path d="M 55.88632382735404,1320.8631842040843 L 174.85855948835405,1187.2337051832503 L 175.60484577943322,1186.4311804525223 L 191.96047623188153,1169.5898632460323 L 394.19777166922654,944.2504925281463 L 394.3995549792695,944.028324861343 L 478.2802497197851,852.7677213906023 L 521.8290011268824,789.9856185517116 L 563.2169803869581,711.8918773496039 L 600.5838687178757,609.3436853266423 L 623.8554826632644,503.241331228764 L 631.2859074175302,370.31772502938077 L 625.6277579632307,270.52644398926356 L 625.622899816839,270.43802379739145 L 615.0116800998633,70.93480910541149 L 599.6922082625714,-155.0522493692537 L 599.6902439234274,-155.0814773726421 L 582.04696048433,-419.89321646512434 L 555.5815570024121,-808.2929235983049 L 527.1582894141233,-1224.522694903035 L 525.461754767301,-1244.7212480869484" fill="none" opacity="0.5" stroke="#ca2" stroke-linejoin="round" stroke-width="1.0" /><path d="M 819.8743110969663,1672.0590384677052 L 319.74552489072084,1252.147255949676 L 580.9020018801093,988.8447681590915 L 689.3388991765678,829.6451252996922 L 715.1204995661974,831.1671124473214 L 732.850703150034,1093.8615073487163 L 794.9492422863841,1089.5999621078372 L 840.8593346662819,1652.882269360125 L 819.8743110969663,1672.0590384677052 Z " fill="none" opacity="0.25" stroke="#000000" stroke-width="1.0" /><path d="M -509.8053047694266,-1182.7603962421417 L -674.1737138666213,-984.4390790015459 L -657.3856950178742,-958.2601057887077 L -653.7026092484593,-924.9275926500559 L -660.8974744677544,-901.6405055895448 L -679.1415970027447,-879.7232555001974 L -699.1844358369708,-864.350744612515 L -718.6277025714517,-863.2853231951594 L -744.066690325737,-866.0249782726169 L -763.3386507481337,-875.157162733376 L -1279.0563116073608,-311.5518108457327 L -1305.2661777809262,-280.8070873171091 L -1322.7394218929112,-251.12779013812542 L -1336.7008865512908,-224.94914028048515 L -1344.152711249888,-202.7277372777462 L -1343.8100986219943,-180.049738638103 L -1331.3903907872736,-157.52394996583462 L -1312.7180024720728,-135.75917573273182 L -190.06206810474396,823.5571763888001 L -171.56098609790206,841.0600278824568 L -147.57810202240944,861.3024496883154 L 144.24220532551408,1109.3857051730156 L 373.96397354081273,874.543729364872 L 451.65138732641935,788.8558555468917 L 505.1846107169986,697.6886923983693 L 538.6749952696264,616.8709398657084 L 561.6300414614379,561.0137848556042 L 572.7649519219995,493.132811807096 L 575.3345466442406,406.531188711524 " fill="none" opacity="0.25" stroke="#000000" stroke-width="1.0" /><path d="M -486.9359117373824,-1244.555201433599 L -536.3577835708857,-1197.21976608783 L -1015.0732804238796,-661.0078070908785 L -1276.829329509288,-371.8236912935972 L -1373.3604379296303,-252.49760352820158 L -1386.893636804074,-223.2749246954918 L -1391.861519932747,-202.42333456873894 L -1395.8015651777387,-182.7893622070551 L -1396.2298309616745,-150.52269304543734 L -1393.1463172957301,-111.10258804261684 L -1384.067082606256,-72.13911224901676 L -1373.9600100331008,-54.48379571735859 L -1360.341158002615,-34.39326949417591 L 40.85884431749582,1171.0258624851704 L 60.98733630776405,1181.9841059669852 L 84.71326091513038,1181.9841059669852 L 99.70256346836686,1169.047290571034 L 94.64902717620134,1164.785750709474 L 118.54625809565187,1137.8467240482569 L 144.24220532551408,1109.3857051730156 " fill="none" opacity="0.15" stroke="#000000" stroke-width="1.0" /><path d="M 722.5723242610693,328.1482399329543 L 725.9984505586326,370.45982513576746 L 728.7393515966833,409.27078507095575 L 718.5466258600354,688.8611466288567 L 657.7328840903938,815.4906430691481 L 559.9169783107936,965.8628193438053 L 314.6063354462385,1214.5544288232923 L 291.2230234667659,1243.4719902724028 L 283.0003203563392,1280.608206346631 L 292.2508613578975,1315.1570422574878 L 321.03032225370407,1347.1185025274754 L 2162.2305942587554,2951.2573093622923 L 2211.3955066241324,2985.0442071706057 L 2271.780982606113,2990.0665822327137 L 2295.078641425818,2985.0442071706057 L 2331.309927020222,2975.760421857238 L 2385.528375670314,2935.8857864513993 L 2747.4129657894373,2512.4824714660645 " fill="none" opacity="0.15" stroke="#000000" stroke-width="1.0" /><path d="M -185.6937570720911,857.9540796279907 L -171.56098609790206,841.0600278824568 L 43.514092195779085,598.7592250555754 L 94.04945508018136,551.1208227425814 L 155.89103473722935,514.1363498941064 L 255.84826945140958,478.52165051549673 L 308.9532270543277,459.04009652882814 L 367.1973741054535,440.92833356559277 L 571.6514608748257,381.72261610627174 L 577.0476097948849,371.373024456203 " fill="none" stroke="#FFF" stroke-linecap="round" stroke-linejoin="round" stroke-width="3.0" /><path d="M 775.0777097642422,312.1672376692295 L 748.1826183274388,369.2422260046005 L 743.8143073022366,527.5299065336585 L 739.6173025891185,691.2963317856193 L 674.1782903186977,824.4703687429428 L 570.4523166753352,977.2776957005262 L 318.5463806837797,1234.187932625413 L 305.5271007567644,1247.733524441719 L 304.58491602540016,1261.279113151133 L 302.95750603452325,1284.7175403311849 L 310.49498388916254,1309.221340611577 L 335.4200526997447,1334.6383153274655 L 907.3261848278344,1812.9928819313645 L 1263.1294007711112,2114.340582370758 L 1976.1062831766903,2722.0537923276424 L 2072.9800042249262,2804.238422073424 L 2267.0700589492917,2968.6073403805494 L 2284.714609377086,2949.2787967696786 L 2656.106699973345,2542.3125666752458 L 2663.644177827984,2485.6962507665157 L 2904.5008565038443,2217.376793682575 L 2927.884168483317,2183.285068511963 L 2945.6143720671535,2155.7377227395773 L 2975.4216708540916,2123.9288932159543 L 3102.873569101095,1986.8006816878915 L 3116.7493806034327,1974.929412074387 " fill="none" stroke="#FFF" stroke-linecap="round" stroke-linejoin="round" stroke-width="3.0" /><path d="M -503.5526242777705,-1212.8967710137367 L -705.8653821200132,-970.8929809555411 L -1022.1824924871325,-621.587363101542 L -1322.8250750489533,-285.3731343820691 L -1355.2876217179,-232.25480882823467 L -1365.39469428733,-206.5327714458108 L -1369.934311632067,-185.22458320856094 L -1372.5039063543081,-165.8950191065669 L -1369.0777800567448,-137.58559007197618 L -1350.491044897586,-107.60196222364902 L -1318.970682963729,-81.87997882068157 L 83.34281039610505,1130.6934211179614 L 118.54625809565187,1137.8467240482569 " fill="none" stroke="#FFF" stroke-linecap="round" stroke-linejoin="round" stroke-width="3.0" /><path d="M 118.54625809565187,1137.8467240482569 L 193.7497303187847,1204.0527846589684 L 283.0003203563392,1280.608206346631 L 302.95750603452325,1284.7175403311849 " fill="none" stroke="#FFF" stroke-linecap="round" stroke-linejoin="round" stroke-width="3.0" /><path d="M -1372.5039063543081,-165.8950191065669 L -1325.908588718623,-125.86609920114279 L -185.6937570720911,857.9540796279907 L 210.45209601521492,1186.8544357717037 L 304.58491602540016,1261.279113151133 L 344.15667475387454,1293.849392555654 L 901.416116964072,1757.5934412628412 L 1294.9923753328621,2078.270256385207 L 1992.551689401269,2676.85219746083 L 2075.7209052592516,2754.01449521631 L 2260.217806354165,2923.8625132516026 L 2267.0700589492917,2968.6073403805494 " fill="none" stroke="#FFF" stroke-linecap="round" stroke-linejoin="round" stroke-width="3.0" /><path d="M -69.54807560518384,-1025.6862054988742 L -501.32564218342304,-704.2333433032036 L -585.5226959362626,-629.0452829226851 L -608.6490484364331,-602.7142640799284 L -622.0965941511095,-575.7744476273656 L -628.6918872781098,-540.1591157689691 L -628.7775404378772,-489.78019999712706 L -575.0730107314885,-280.9592889174819 L -504.66611532494426,6.092164181172848 L -492.5890201292932,44.59896086901426 L -474.77316338196397,73.36489149183035 L -219.1841416284442,314.60243831574917 L -180.72587394341826,351.2826355919242 L -141.66803415864706,378.222019135952 L -107.83503697440028,392.6810052767396 L -68.77719718962908,401.20419546961784 L -27.406722150743008,403.6393924802542 L 60.47341736406088,391.0068070963025 L 119.6597491428256,368.93782621622086 L 153.57839948311448,343.82483798265457 L 175.33430146798491,320.8426393941045 L 196.57628451660275,289.79382729530334 L 212.07950600609183,246.7211835384369 L 220.55916859582067,220.5427416563034 " fill="none" stroke="#FFF" stroke-linecap="round" stroke-linejoin="round" stroke-width="3.0" /><path d="M 43.514092195779085,598.7592250555754 L -3.252531763166189,554.0126118510962 L -158.37039985880256,409.27078507095575 L -262.86725191399455,304.25283496826887 L -454.1307524442673,126.17849498987198 L -480.59757808968425,101.97860759496689 L -499.52692588046193,81.431525580585 L -512.7175121195614,55.55741226673126 L -527.0215894132853,17.050622679293156 L -599.3985074386001,-281.41589361429214 L -648.2208071686327,-467.7108999043703 L -656.8717760704458,-511.3929018303752 L -654.0452218726277,-557.3579699620605 L -647.7068882249296,-576.6876615062356 L -641.3685545735061,-596.3217641338706 L -616.1008731350303,-635.437786385417 L -520.1693368181586,-723.8674881011248 L -87.70654497668147,-1043.1896073445678 L -69.89068823680282,-1044.4072355031967 L 335.6770121753216,-1062.8238642513752 " fill="none" stroke="#FFF" stroke-linecap="round" stroke-linejoin="round" stroke-width="3.0" /><path d="M -33.91636211797595,-336.8172886222601 L -141.1541152149439,-131.64974374324083 L -152.63163831084967,-99.5353034734726 L -149.71943095326424,-57.680016435682774 L -106.63589277118444,63.62404879182577 L -72.2033234834671,104.87041848897934 L -1.5394686125218868,153.72678249329329 L 212.07950600609183,246.7211835384369 L 209.85252391174436,294.5120301619172 L 218.4178396575153,330.12683990597725 L 275.2915361896157,463.9104856401682 " fill="none" stroke="#FFF" stroke-linecap="round" stroke-linejoin="round" stroke-width="3.0" /><path d="M 212.07950600609183,246.7211835384369 L 246.59772845357656,259.35379961133003 L 505.0133043974638,369.69882567226887 L 571.6514608748257,381.72261610627174 " fill="none" stroke="#FFF" stroke-linecap="round" stroke-linejoin="round" stroke-width="3.0" /><path d="M 203.68549657985568,-370.30167335271835 L 216.96173598244786,-223.57932755351067 L 231.52277274429798,-63.46365437656641 L 245.9125031903386,95.43398223817348 L 220.55916859582067,220.5427416563034 " fill="none" stroke="#FFF" stroke-linecap="round" stroke-linejoin="round" stroke-width="3.0" /><path d="M 204.79898762702942,97.41258995980024 L 245.9125031903386,95.43398223817348 " fill="none" stroke="#FFF" stroke-linecap="round" stroke-linejoin="round" stroke-width="3.0" /><path d="M -149.71943095326424,-57.680016435682774 L -229.11990788951516,-114.1466106697917 L -301.3255195952952,-172.89627780020237 L -400.76883536577225,-282.93790923058987 L -422.52473735809326,-328.75059878081083 L -432.54615677148104,-374.86772725731134 L -439.2271030507982,-408.047729678452 L -438.4562246352434,-441.3799525871873 L -436.9144678041339,-482.62670182436705 L -428.0921925865114,-521.133840456605 L -412.246358461678,-562.53284740448 L -385.69387966021895,-600.4312282800674 L -178.4132386930287,-760.7005524635315 L -53.10266938060522,-767.5496784970164 " fill="none" stroke="#FFF" stroke-linecap="round" stroke-linejoin="round" stroke-width="3.0" /><path d="M 255.84826945140958,478.52165051549673 L 275.2915361896157,463.9104856401682 L 286.16948718205094,448.9949177801609 L 289.68126663565636,429.9699532985687 L 286.16948718205094,403.6393924802542 L 249.42428264394403,311.71063754707575 L 245.39858424663544,285.836624532938 L 246.59772845357656,259.35379961133003 L 258.50351733341813,195.88629166781902 L 399.14600182697177,-398.3068096116185 L 418.33230908587575,-530.2659718692303 L 410.2809122875333,-657.2027437761426 L 371.82264460250735,-832.996922917664 L 339.0174853093922,-982.9170453473926 L 335.6770121753216,-1062.8238642513752 L 333.8782958649099,-1106.3541003763676 L 347.32584157958627,-1253.3830360025167 " fill="none" stroke="#FFF" stroke-linecap="round" stroke-linejoin="round" stroke-width="3.0" /><path d="M 231.52277274429798,-63.46365437656641 L 166.76898572966456,-58.74542339891195 L 156.40495368093252,-219.01328524947166 " fill="none" stroke="#FFF" stroke-linecap="round" stroke-linejoin="round" stroke-width="3.0" /><path d="M 216.96173598244786,-223.57932755351067 L 156.40495368093252,-219.01328524947166 L 155.29146263375878,-239.71267974376678 " fill="none" stroke="#FFF" stroke-linecap="round" stroke-linejoin="round" stroke-width="3.0" /><path d="M 286.16948718205094,403.6393924802542 L 300.5592176280916,425.4039609134197 L 320.0881375223398,437.4277401268482 L 342.5292647629976,441.9937315657735 L 367.1973741054535,440.92833356559277 " fill="none" stroke="#FFF" stroke-linecap="round" stroke-linejoin="round" stroke-width="3.0" /><path d="M -185.6937570720911,857.9540796279907 L -171.56098609790206,841.0600278824568 L 43.514092195779085,598.7592250555754 L 94.04945508018136,551.1208227425814 L 155.89103473722935,514.1363498941064 L 255.84826945140958,478.52165051549673 L 308.9532270543277,459.04009652882814 L 367.1973741054535,440.92833356559277 L 571.6514608748257,381.72261610627174 L 577.0476097948849,371.373024456203 " fill="none" stroke="#44E" stroke-dasharray="8.0,2.0" stroke-linecap="butt" stroke-width="1.0" /><path d="M 775.0777097642422,312.1672376692295 L 748.1826183274388,369.2422260046005 L 743.8143073022366,527.5299065336585 L 739.6173025891185,691.2963317856193 L 674.1782903186977,824.4703687429428 L 570.4523166753352,977.2776957005262 L 318.5463806837797,1234.187932625413 L 305.5271007567644,1247.733524441719 L 304.58491602540016,1261.279113151133 L 302.95750603452325,1284.7175403311849 L 310.49498388916254,1309.221340611577 L 335.4200526997447,1334.6383153274655 L 907.3261848278344,1812.9928819313645 L 1263.1294007711112,2114.340582370758 L 1976.1062831766903,2722.0537923276424 L 2072.9800042249262,2804.238422073424 L 2267.0700589492917,2968.6073403805494 L 2284.714609377086,2949.2787967696786 L 2656.106699973345,2542.3125666752458 L 2663.644177827984,2485.6962507665157 L 2904.5008565038443,2217.376793682575 L 2927.884168483317,2183.285068511963 L 2945.6143720671535,2155.7377227395773 L 2975.4216708540916,2123.9288932159543 L 3102.873569101095,1986.8006816878915 L 3116.7493806034327,1974.929412074387 " fill="none" stroke="#B89A74" stroke-dasharray="7.0,3.0" stroke-linecap="round" stroke-linejoin="round" stroke-width="1.5" /><path d="M -503.5526242777705,-1212.8967710137367 L -705.8653821200132,-970.8929809555411 L -1022.1824924871325,-621.587363101542 L -1322.8250750489533,-285.3731343820691 L -1355.2876217179,-232.25480882823467 L -1365.39469428733,-206.5327714458108 L -1369.934311632067,-185.22458320856094 L -1372.5039063543081,-165.8950191065669 L -1369.0777800567448,-137.58559007197618 L -1350.491044897586,-107.60196222364902 L -1318.970682963729,-81.87997882068157 L 83.34281039610505,1130.6934211179614 L 118.54625809565187,1137.8467240482569 " fill="none" stroke="#B89A74" stroke-dasharray="7.0,3.0" stroke-linecap="round" stroke-linejoin="round" stroke-width="1.5" /><path d="M 118.54625809565187,1137.8467240482569 L 193.7497303187847,1204.0527846589684 L 283.0003203563392,1280.608206346631 L 302.95750603452325,1284.7175403311849 " fill="none" stroke="#B89A74" stroke-dasharray="7.0,3.0" stroke-linecap="round" stroke-linejoin="round" stroke-width="1.5" /><path d="M -1372.5039063543081,-165.8950191065669 L -1325.908588718623,-125.86609920114279 L -185.6937570720911,857.9540796279907 L 210.45209601521492,1186.8544357717037 L 304.58491602540016,1261.279113151133 L 344.15667475387454,1293.849392555654 L 901.416116964072,1757.5934412628412 L 1294.9923753328621,2078.270256385207 L 1992.551689401269,2676.85219746083 L 2075.7209052592516,2754.01449521631 L 2260.217806354165,2923.8625132516026 L 2267.0700589492917,2968.6073403805494 " fill="none" stroke="#44E" stroke-dasharray="8.0,2.0" stroke-linecap="butt" stroke-width="1.0" /><path d="M -69.54807560518384,-1025.6862054988742 L -501.32564218342304,-704.2333433032036 L -585.5226959362626,-629.0452829226851 L -608.6490484364331,-602.7142640799284 L -622.0965941511095,-575.7744476273656 L -628.6918872781098,-540.1591157689691 L -628.7775404378772,-489.78019999712706 L -575.0730107314885,-280.9592889174819 L -504.66611532494426,6.092164181172848 L -492.5890201292932,44.59896086901426 L -474.77316338196397,73.36489149183035 L -219.1841416284442,314.60243831574917 L -180.72587394341826,351.2826355919242 L -141.66803415864706,378.222019135952 L -107.83503697440028,392.6810052767396 L -68.77719718962908,401.20419546961784 L -27.406722150743008,403.6393924802542 L 60.47341736406088,391.0068070963025 L 119.6597491428256,368.93782621622086 L 153.57839948311448,343.82483798265457 L 175.33430146798491,320.8426393941045 L 196.57628451660275,289.79382729530334 L 212.07950600609183,246.7211835384369 L 220.55916859582067,220.5427416563034 " fill="none" stroke="#B89A74" stroke-dasharray="7.0,3.0" stroke-linecap="round" stroke-linejoin="round" stroke-width="1.5" /><path d="M 43.514092195779085,598.7592250555754 L -3.252531763166189,554.0126118510962 L -158.37039985880256,409.27078507095575 L -262.86725191399455,304.25283496826887 L -454.1307524442673,126.17849498987198 L -480.59757808968425,101.97860759496689 L -499.52692588046193,81.431525580585 L -512.7175121195614,55.55741226673126 L -527.0215894132853,17.050622679293156 L -599.3985074386001,-281.41589361429214 L -648.2208071686327,-467.7108999043703 L -656.8717760704458,-511.3929018303752 L -654.0452218726277,-557.3579699620605 L -647.7068882249296,-576.6876615062356 L -641.3685545735061,-596.3217641338706 L -616.1008731350303,-635.437786385417 L -520.1693368181586,-723.8674881011248 L -87.70654497668147,-1043.1896073445678 L -69.89068823680282,-1044.4072355031967 L 335.6770121753216,-1062.8238642513752 " fill="none" stroke="#44E" stroke-dasharray="8.0,2.0" stroke-linecap="butt" stroke-width="1.0" /><path d="M -33.91636211797595,-336.8172886222601 L -141.1541152149439,-131.64974374324083 L -152.63163831084967,-99.5353034734726 L -149.71943095326424,-57.680016435682774 L -106.63589277118444,63.62404879182577 L -72.2033234834671,104.87041848897934 L -1.5394686125218868,153.72678249329329 L 212.07950600609183,246.7211835384369 L 209.85252391174436,294.5120301619172 L 218.4178396575153,330.12683990597725 L 275.2915361896157,463.9104856401682 " fill="none" stroke="#B89A74" stroke-dasharray="7.0,3.0" stroke-linecap="round" stroke-linejoin="round" stroke-width="1.5" /><path d="M 212.07950600609183,246.7211835384369 L 246.59772845357656,259.35379961133003 L 505.0133043974638,369.69882567226887 L 571.6514608748257,381.72261610627174 " fill="none" stroke="#B89A74" stroke-dasharray="7.0,3.0" stroke-linecap="round" stroke-linejoin="round" stroke-width="1.5" /><path d="M 203.68549657985568,-370.30167335271835 L 216.96173598244786,-223.57932755351067 L 231.52277274429798,-63.46365437656641 L 245.9125031903386,95.43398223817348 L 220.55916859582067,220.5427416563034 " fill="none" stroke="#B89A74" stroke-dasharray="7.0,3.0" stroke-linecap="round" stroke-linejoin="round" stroke-width="1.5" /><path d="M 204.79898762702942,97.41258995980024 L 245.9125031903386,95.43398223817348 " fill="none" stroke="#B89A74" stroke-dasharray="7.0,3.0" stroke-linecap="round" stroke-linejoin="round" stroke-width="1.5" /><path d="M -149.71943095326424,-57.680016435682774 L -229.11990788951516,-114.1466106697917 L -301.3255195952952,-172.89627780020237 L -400.76883536577225,-282.93790923058987 L -422.52473735809326,-328.75059878081083 L -432.54615677148104,-374.86772725731134 L -439.2271030507982,-408.047729678452 L -438.4562246352434,-441.3799525871873 L -436.9144678041339,-482.62670182436705 L -428.0921925865114,-521.133840456605 L -412.246358461678,-562.53284740448 L -385.69387966021895,-600.4312282800674 L -178.4132386930287,-760.7005524635315 L -53.10266938060522,-767.5496784970164 " fill="none" stroke="#B89A74" stroke-dasharray="7.0,3.0" stroke-linecap="round" stroke-linejoin="round" stroke-width="1.5" /><path d="M 255.84826945140958,478.52165051549673 L 275.2915361896157,463.9104856401682 L 286.16948718205094,448.9949177801609 L 289.68126663565636,429.9699532985687 L 286.16948718205094,403.6393924802542 L 249.42428264394403,311.71063754707575 L 245.39858424663544,285.836624532938 L 246.59772845357656,259.35379961133003 L 258.50351733341813,195.88629166781902 L 399.14600182697177,-398.3068096116185 L 418.33230908587575,-530.2659718692303 L 410.2809122875333,-657.2027437761426 L 371.82264460250735,-832.996922917664 L 339.0174853093922,-982.9170453473926 L 335.6770121753216,-1062.8238642513752 L 333.8782958649099,-1106.3541003763676 L 347.32584157958627,-1253.3830360025167 " fill="none" stroke="#44E" stroke-dasharray="8.0,2.0" stroke-linecap="butt" stroke-width="1.0" /><path d="M 231.52277274429798,-63.46365437656641 L 166.76898572966456,-58.74542339891195 L 156.40495368093252,-219.01328524947166 " fill="none" stroke="#B89A74" stroke-dasharray="7.0,3.0" stroke-linecap="round" stroke-linejoin="round" stroke-width="1.5" /><path d="M 216.96173598244786,-223.57932755351067 L 156.40495368093252,-219.01328524947166 L 155.29146263375878,-239.71267974376678 " fill="none" stroke="#B89A74" stroke-dasharray="7.0,3.0" stroke-linecap="round" stroke-linejoin="round" stroke-width="1.5" /><path d="M 155.29146263375878,-239.71267974376678 L 152.9788273833692,-279.28507171571255 L 139.9595474526286,-277.9152577370405 " fill="none" stroke="#B89A74" stroke-dasharray="1.5,2.0" stroke-linecap="butt" stroke-width="5.0" /><path d="M 286.16948718205094,403.6393924802542 L 300.5592176280916,425.4039609134197 L 320.0881375223398,437.4277401268482 L 342.5292647629976,441.9937315657735 L 367.1973741054535,440.92833356559277 " fill="none" stroke="#44E" stroke-dasharray="8.0,2.0" stroke-linecap="butt" stroke-width="1.0" /><path d="M 424.0 1236.0 L 388.0330099830675 1201.2670814770502 A 50.0 50.0 0 0 0 381.5975951921787 1209.5040367883398 L 424.0 1236.0 Z" fill="url(#id1)" /><path d="M 424.0 1236.0 L 462.3022221559489 1268.139380484327 A 50.0 50.0 0 0 0 468.14737964294636 1259.4735781392944 L 424.0 1236.0 Z" fill="url(#id2)" /><g opacity="0.5"><path d="M 153.0,90.0 C 152.446,90.0 152.0,90.446 152.0,91.0 C 151.446,91.0 151.0,91.446 151.0,92.0 L 151.0,95.0 C 151.0,95.554 151.446,96.0 152.0,96.0 C 152.0,96.554 152.446,97.0 153.0,97.0 C 153.554,97.0 154.0,96.554 154.0,96.0 L 154.0,91.0 C 154.0,90.446 153.554,90.0 153.0,90.0 M 161.0,90.0 C 160.446,90.0 160.0,90.446 160.0,91.0 L 160.0,96.0 C 160.0,96.554 160.446,97.0 161.0,97.0 C 161.554,97.0 162.0,96.554 162.0,96.0 C 162.554,96.0 163.0,95.554 163.0,95.0 L 163.0,92.0 C 163.0,91.446 162.554,91.0 162.0,91.0 C 162.0,90.446 161.554,90.0 161.0,90.0 M 154.5,93.0 L 154.5,94.0 L 159.5,94.0 L 159.5,93.0 L 154.5,93.0" fill="#fff" opacity="1.0" stroke="#fff" stroke-linejoin="round" stroke-width="2.2" /></g><path d="M 153.0,90.0 C 152.446,90.0 152.0,90.446 152.0,91.0 C 151.446,91.0 151.0,91.446 151.0,92.0 L 151.0,95.0 C 151.0,95.554 151.446,96.0 152.0,96.0 C 152.0,96.554 152.446,97.0 153.0,97.0 C 153.554,97.0 154.0,96.554 154.0,96.0 L 154.0,91.0 C 154.0,90.446 153.554,90.0 153.0,90.0 M 161.0,90.0 C 160.446,90.0 160.0,90.446 160.0,91.0 L 160.0,96.0 C 160.0,96.554 160.446,97.0 161.0,97.0 C 161.554,97.0 162.0,96.554 162.0,96.0 C 162.554,96.0 163.0,95.554 163.0,95.0 L 163.0,92.0 C 163.0,91.446 162.554,91.0 162.0,91.0 C 162.0,90.446 161.554,90.0 161.0,90.0 M 154.5,93.0 L 154.5,94.0 L 159.5,94.0 L 159.5,93.0 L 154.5,93.0" fill="#444" /><g opacity="0.5"><path d="M 145.5,48.0 C 145.223,48.0 145.0,48.223 145.0,48.5 L 145.0,59.5 C 145.0,59.777 145.223,60.0 145.5,60.0 L 146.5,60.0 C 146.777,60.0 147.0,59.777 147.0,59.5 L 147.0,50.0 L 153.0,50.0 L 153.0,59.5 C 153.0,59.777 153.223,60.0 153.5,60.0 L 154.5,60.0 C 154.777,60.0 155.0,59.777 155.0,59.5 L 155.0,48.5 C 155.0,48.223 154.777,48.0 154.5,48.0 L 153.5,48.0 C 153.223,48.0 153.0,48.223 153.0,48.5 L 153.0,49.0 L 147.0,49.0 L 147.0,48.5 C 147.0,48.223 146.777,48.0 146.5,48.0 L 145.5,48.0" fill="#fff" opacity="1.0" stroke="#fff" stroke-linejoin="round" stroke-width="2.2" /></g><path d="M 145.5,48.0 C 145.223,48.0 145.0,48.223 145.0,48.5 L 145.0,59.5 C 145.0,59.777 145.223,60.0 145.5,60.0 L 146.5,60.0 C 146.777,60.0 147.0,59.777 147.0,59.5 L 147.0,50.0 L 153.0,50.0 L 153.0,59.5 C 153.0,59.777 153.223,60.0 153.5,60.0 L 154.5,60.0 C 154.777,60.0 155.0,59.777 155.0,59.5 L 155.0,48.5 C 155.0,48.223 154.777,48.0 154.5,48.0 L 153.5,48.0 C 153.223,48.0 153.0,48.223 153.0,48.5 L 153.0,49.0 L 147.0,49.0 L 147.0,48.5 C 147.0,48.223 146.777,48.0 146.5,48.0 L 145.5,48.0" fill="#000" /><g opacity="0.5"><path d="M 161.5,58.0 C 161.223,58.0 161.0,58.223 161.0,58.5 L 161.0,69.5 C 161.0,69.777 161.223,70.0 161.5,70.0 L 162.5,70.0 C 162.777,70.0 163.0,69.777 163.0,69.5 L 163.0,60.0 L 169.0,60.0 L 169.0,69.5 C 169.0,69.777 169.223,70.0 169.5,70.0 L 170.5,70.0 C 170.777,70.0 171.0,69.777 171.0,69.5 L 171.0,58.5 C 171.0,58.223 170.777,58.0 170.5,58.0 L 169.5,58.0 C 169.223,58.0 169.0,58.223 169.0,58.5 L 169.0,59.0 L 163.0,59.0 L 163.0,58.5 C 163.0,58.223 162.777,58.0 162.5,58.0 L 161.5,58.0" fill="#fff" opacity="1.0" stroke="#fff" stroke-linejoin="round" stroke-width="2.2" /></g><path d="M 161.5,58.0 C 161.223,58.0 161.0,58.223 161.0,58.5 L 161.0,69.5 C 161.0,69.777 161.223,70.0 161.5,70.0 L 162.5,70.0 C 162.777,70.0 163.0,69.777 163.0,69.5 L 163.0,60.0 L 169.0,60.0 L 169.0,69.5 C 169.0,69.777 169.223,70.0 169.5,70.0 L 170.5,70.0 C 170.777,70.0 171.0,69.777 171.0,69.5 L 171.0,58.5 C 171.0,58.223 170.777,58.0 170.5,58.0 L 169.5,58.0 C 169.223,58.0 169.0,58.223 169.0,58.5 L 169.0,59.0 L 163.0,59.0 L 163.0,58.5 C 163.0,58.223 162.777,58.0 162.5,58.0 L 161.5,58.0" fill="#000" /><g opacity="0.5"><path d="M 123.5,57.0 C 123.223,57.0 123.0,57.223 123.0,57.5 L 123.0,68.5 C 123.0,68.777 123.223,69.0 123.5,69.0 L 124.5,69.0 C 124.777,69.0 125.0,68.777 125.0,68.5 L 125.0,65.0 L 131.0,65.0 L 131.0,68.5 C 131.0,68.777 131.223,69.0 131.5,69.0 L 132.5,69.0 C 132.777,69.0 133.0,68.777 133.0,68.5 L 133.0,57.5 C 133.0,57.223 132.777,57.0 132.5,57.0 L 131.5,57.0 C 131.223,57.0 131.0,57.223 131.0,57.5 L 131.0,58.0 L 125.0,58.0 L 125.0,57.5 C 125.0,57.223 124.777,57.0 124.5,57.0 L 123.5,57.0 M 125.0,59.0 L 131.0,59.0 L 131.0,61.0 L 125.0,61.0 L 125.0,59.0 M 125.0,62.0 L 131.0,62.0 L 131.0,64.0 L 125.0,64.0 L 125.0,62.0" fill="#fff" opacity="1.0" stroke="#fff" stroke-linejoin="round" stroke-width="2.2" /></g><path d="M 123.5,57.0 C 123.223,57.0 123.0,57.223 123.0,57.5 L 123.0,68.5 C 123.0,68.777 123.223,69.0 123.5,69.0 L 124.5,69.0 C 124.777,69.0 125.0,68.777 125.0,68.5 L 125.0,65.0 L 131.0,65.0 L 131.0,68.5 C 131.0,68.777 131.223,69.0 131.5,69.0 L 132.5,69.0 C 132.777,69.0 133.0,68.777 133.0,68.5 L 133.0,57.5 C 133.0,57.223 132.777,57.0 132.5,57.0 L 131.5,57.0 C 131.223,57.0 131.0,57.223 131.0,57.5 L 131.0,58.0 L 125.0,58.0 L 125.0,57.5 C 125.0,57.223 124.777,57.0 124.5,57.0 L 123.5,57.0 M 125.0,59.0 L 131.0,59.0 L 131.0,61.0 L 125.0,61.0 L 125.0,59.0 M 125.0,62.0 L 131.0,62.0 L 131.0,64.0 L 125.0,64.0 L 125.0,62.0" fill="#000" /><g opacity="0.5"><path d="M 124.5,81.0 C 123.8333,81.0 123.2251,81.3179 122.7715,81.7715 C 122.3179,82.2251 122.0,82.8333 122.0,83.5 A 0.5,0.5 0.0 0,0 122.5,84.0 A 0.5,0.5 0.0 0,0 123.0,83.5 C 123.0,83.1667 123.1821,82.7749 123.4785,82.4785 C 123.7749,82.1821 124.1667,82.0 124.5,82.0 L 125.0,82.0 L 125.0,86.0 L 124.5,86.0 C 123.8333,86.0 123.2251,86.3179 122.7715,86.7715 C 122.3179,87.2251 122.0,87.8333 122.0,88.5 A 0.5,0.5 0.0 0,0 122.5,89.0 A 0.5,0.5 0.0 0,0 123.0,88.5 C 123.0,88.1667 123.1821,87.7749 123.4785,87.4785 C 123.7749,87.1821 124.1667,87.0 124.5,87.0 L 132.5,87.0 C 132.8333,87.0 133.2251,87.1821 133.5215,87.4785 C 133.8179,87.7749 134.0,88.1667 134.0,88.5 A 0.5,0.5 0.0 0,0 134.5,89.0 A 0.5,0.5 0.0 0,0 135.0,88.5 C 135.0,87.8333 134.6821,87.2251 134.2285,86.7715 C 133.7749,86.3179 133.1667,86.0 132.5,86.0 L 132.0,86.0 L 132.0,82.0 L 132.5,82.0 C 132.8333,82.0 133.2251,82.1821 133.5215,82.4785 C 133.8179,82.7749 134.0,83.1667 134.0,83.5 A 0.5,0.5 0.0 0,0 134.5,84.0 A 0.5,0.5 0.0 0,0 135.0,83.5 C 135.0,82.8333 134.6821,82.2251 134.2285,81.7715 C 133.7749,81.3179 133.1667,81.0 132.5,81.0 L 124.5,81.0 M 126.0,82.0 L 128.0,82.0 L 128.0,86.0 L 126.0,86.0 L 126.0,82.0 M 129.0,82.0 L 131.0,82.0 L 131.0,86.0 L 129.0,86.0 L 129.0,82.0" fill="#fff" opacity="1.0" stroke="#fff" stroke-linejoin="round" stroke-width="2.2" /></g><path d="M 124.5,81.0 C 123.8333,81.0 123.2251,81.3179 122.7715,81.7715 C 122.3179,82.2251 122.0,82.8333 122.0,83.5 A 0.5,0.5 0.0 0,0 122.5,84.0 A 0.5,0.5 0.0 0,0 123.0,83.5 C 123.0,83.1667 123.1821,82.7749 123.4785,82.4785 C 123.7749,82.1821 124.1667,82.0 124.5,82.0 L 125.0,82.0 L 125.0,86.0 L 124.5,86.0 C 123.8333,86.0 123.2251,86.3179 122.7715,86.7715 C 122.3179,87.2251 122.0,87.8333 122.0,88.5 A 0.5,0.5 0.0 0,0 122.5,89.0 A 0.5,0.5 0.0 0,0 123.0,88.5 C 123.0,88.1667 123.1821,87.7749 123.4785,87.4785 C 123.7749,87.1821 124.1667,87.0 124.5,87.0 L 132.5,87.0 C 132.8333,87.0 133.2251,87.1821 133.5215,87.4785 C 133.8179,87.7749 134.0,88.1667 134.0,88.5 A 0.5,0.5 0.0 0,0 134.5,89.0 A 0.5,0.5 0.0 0,0 135.0,88.5 C 135.0,87.8333 134.6821,87.2251 134.2285,86.7715 C 133.7749,86.3179 133.1667,86.0 132.5,86.0 L 132.0,86.0 L 132.0,82.0 L 132.5,82.0 C 132.8333,82.0 133.2251,82.1821 133.5215,82.4785 C 133.8179,82.7749 134.0,83.1667 134.0,83.5 A 0.5,0.5 0.0 0,0 134.5,84.0 A 0.5,0.5 0.0 0,0 135.0,83.5 C 135.0,82.8333 134.6821,82.2251 134.2285,81.7715 C 133.7749,81.3179 133.1667,81.0 132.5,81.0 L 124.5,81.0 M 126.0,82.0 L 128.0,82.0 L 128.0,86.0 L 126.0,86.0 L 126.0,82.0 M 129.0,82.0 L 131.0,82.0 L 131.0,86.0 L 129.0,86.0 L 129.0,82.0" fill="#000" /><g opacity="0.5"><path d="M 196.5,137.0 C 196.223,137.0 196.0,137.223 196.0,137.5 L 196.0,138.0 L 193.5,138.0 C 193.223,138.0 193.0,138.223 193.0,138.5 L 193.0,139.0 L 201.0,139.0 L 201.0,138.5 C 201.0,138.223 200.777,138.0 200.5,138.0 L 198.0,138.0 L 198.0,137.5 C 198.0,137.223 197.777,137.0 197.5,137.0 L 196.5,137.0 M 193.0059,140.0 C 193.0039,140.0654 193.0089,140.1308 193.0196,140.1953 L 194.0196,145.1953 C 194.1128,145.663 194.5232,145.9998 195.0,146.0 L 199.0,146.0 C 199.4769,145.9998 199.8873,145.663 199.9805,145.1953 L 200.9805,140.1953 C 200.9934,140.131 200.9999,140.0656 201.0,140.0 L 193.0059,140.0" fill="#fff" opacity="1.0" stroke="#fff" stroke-linejoin="round" stroke-width="2.2" /></g><path d="M 196.5,137.0 C 196.223,137.0 196.0,137.223 196.0,137.5 L 196.0,138.0 L 193.5,138.0 C 193.223,138.0 193.0,138.223 193.0,138.5 L 193.0,139.0 L 201.0,139.0 L 201.0,138.5 C 201.0,138.223 200.777,138.0 200.5,138.0 L 198.0,138.0 L 198.0,137.5 C 198.0,137.223 197.777,137.0 197.5,137.0 L 196.5,137.0 M 193.0059,140.0 C 193.0039,140.0654 193.0089,140.1308 193.0196,140.1953 L 194.0196,145.1953 C 194.1128,145.663 194.5232,145.9998 195.0,146.0 L 199.0,146.0 C 199.4769,145.9998 199.8873,145.663 199.9805,145.1953 L 200.9805,140.1953 C 200.9934,140.131 200.9999,140.0656 201.0,140.0 L 193.0059,140.0" fill="#000" /><g opacity="0.5"><path d="M 124.5,113.5 C 124.223,113.5 124.0,113.723 124.0,114.0 L 124.0,114.4902 L 123.9629,114.4802 C 123.6953,114.4085 123.4233,114.5662 123.3516,114.8337 L 123.0918,115.8005 C 123.0201,116.0681 123.1777,116.3402 123.4453,116.4119 L 124.0,116.5606 L 124.0,120.5 C 124.0,120.777 124.223,121.0 124.5,121.0 C 124.777,121.0 125.0,120.777 125.0,120.5 L 125.0,116.8281 L 134.0,119.2422 L 134.0,120.5 C 134.0,120.777 134.2021,121.0 134.4531,121.0 L 134.5469,121.0 C 134.7979,121.0 135.0,120.777 135.0,120.5 L 135.0,119.5098 L 135.0371,119.5198 C 135.3047,119.5915 135.5767,119.4338 135.6484,119.1663 L 135.9082,118.1995 C 135.9799,117.9319 135.8223,117.6598 135.5547,117.5881 L 135.0,117.4394 L 135.0,116.5 C 135.0,116.223 134.7979,116.0 134.5469,116.0 L 134.4531,116.0 C 134.2021,116.0 134.0,116.223 134.0,116.5 L 134.0,117.1719 L 125.0,114.7578 L 125.0,114.0 C 125.0,113.723 124.777,113.5 124.5,113.5" fill="#fff" opacity="1.0" stroke="#fff" stroke-linejoin="round" stroke-width="2.2" /></g><path d="M 124.5,113.5 C 124.223,113.5 124.0,113.723 124.0,114.0 L 124.0,114.4902 L 123.9629,114.4802 C 123.6953,114.4085 123.4233,114.5662 123.3516,114.8337 L 123.0918,115.8005 C 123.0201,116.0681 123.1777,116.3402 123.4453,116.4119 L 124.0,116.5606 L 124.0,120.5 C 124.0,120.777 124.223,121.0 124.5,121.0 C 124.777,121.0 125.0,120.777 125.0,120.5 L 125.0,116.8281 L 134.0,119.2422 L 134.0,120.5 C 134.0,120.777 134.2021,121.0 134.4531,121.0 L 134.5469,121.0 C 134.7979,121.0 135.0,120.777 135.0,120.5 L 135.0,119.5098 L 135.0371,119.5198 C 135.3047,119.5915 135.5767,119.4338 135.6484,119.1663 L 135.9082,118.1995 C 135.9799,117.9319 135.8223,117.6598 135.5547,117.5881 L 135.0,117.4394 L 135.0,116.5 C 135.0,116.223 134.7979,116.0 134.5469,116.0 L 134.4531,116.0 C 134.2021,116.0 134.0,116.223 134.0,116.5 L 134.0,117.1719 L 125.0,114.7578 L 125.0,114.0 C 125.0,113.723 124.777,113.5 124.5,113.5" fill="#444" /><g opacity="0.5"><path d="M 164.5,141.0 C 164.223,141.0 164.0,141.223 164.0,141.5 L 164.0,142.5 C 164.0,142.777 164.223,143.0 164.5,143.0 L 165.0,143.0 L 165.0,144.5 C 165.0,144.777 165.223,145.0 165.5,145.0 C 165.777,145.0 166.0,144.777 166.0,144.5 L 166.0,143.0 L 174.0,143.0 L 174.0,144.5 C 174.0,144.777 174.223,145.0 174.5,145.0 C 174.777,145.0 175.0,144.777 175.0,144.5 L 175.0,143.0 L 175.5,143.0 C 175.777,143.0 176.0,142.777 176.0,142.5 L 176.0,141.5 C 176.0,141.223 175.777,141.0 175.5,141.0 L 164.5,141.0" fill="#fff" opacity="1.0" stroke="#fff" stroke-linejoin="round" stroke-width="2.2" /></g><path d="M 164.5,141.0 C 164.223,141.0 164.0,141.223 164.0,141.5 L 164.0,142.5 C 164.0,142.777 164.223,143.0 164.5,143.0 L 165.0,143.0 L 165.0,144.5 C 165.0,144.777 165.223,145.0 165.5,145.0 C 165.777,145.0 166.0,144.777 166.0,144.5 L 166.0,143.0 L 174.0,143.0 L 174.0,144.5 C 174.0,144.777 174.223,145.0 174.5,145.0 C 174.777,145.0 175.0,144.777 175.0,144.5 L 175.0,143.0 L 175.5,143.0 C 175.777,143.0 176.0,142.777 176.0,142.5 L 176.0,141.5 C 176.0,141.223 175.777,141.0 175.5,141.0 L 164.5,141.0" fill="#444" /><g opacity="0.5"><path d="M 130.0,127.0 C 129.2286,127.0 128.5232,127.1806 127.9746,127.5098 C 127.426,127.8389 127.0,128.3606 127.0,129.0 L 127.0,131.0 C 127.0,131.0964 126.9622,131.2128 126.8535,131.1465 L 125.8535,130.1465 C 125.6587,129.9516 125.3413,129.9516 125.1465,130.1465 C 124.9513,130.3417 124.9513,130.6583 125.1465,130.8535 L 126.1465,131.8535 C 126.6465,132.3535 127.0,132.6667 127.0,133.5 L 127.0,138.0 C 127.0,138.6394 127.426,139.1611 127.9746,139.4902 C 128.5232,139.8194 129.2286,140.0 130.0,140.0 C 130.7714,140.0 131.4768,139.8194 132.0254,139.4902 C 132.574,139.1611 133.0,138.6394 133.0,138.0 L 133.0,136.5 C 133.0,135.1111 133.4694,133.9547 134.2773,133.416 L 135.7773,132.416 C 136.0071,132.2628 136.0692,131.9524 135.916,131.7227 C 135.8203,131.5791 135.6625,131.501 135.502,131.5 C 135.4057,131.4994 135.3088,131.5266 135.2227,131.584 L 133.707,132.5938 C 133.2645,132.8886 133.0,132.4939 133.0,132.2031 L 133.0,129.0 C 133.0,128.3606 132.574,127.8389 132.0254,127.5098 C 131.4768,127.1806 130.7714,127.0 130.0,127.0 M 130.0,128.0 C 130.6093,128.0 131.1536,128.1535 131.5098,128.3672 C 131.866,128.5809 132.0,128.811 132.0,129.0 C 132.0,129.189 131.866,129.4191 131.5098,129.6328 C 131.1536,129.8465 130.6093,130.0 130.0,130.0 C 129.3907,130.0 128.8464,129.8465 128.4902,129.6328 C 128.134,129.4191 128.0,129.189 128.0,129.0 C 128.0,128.811 128.134,128.5809 128.4902,128.3672 C 128.8464,128.1535 129.3907,128.0 130.0,128.0" fill="#fff" opacity="1.0" stroke="#fff" stroke-linejoin="round" stroke-width="2.2" /></g><path d="M 130.0,127.0 C 129.2286,127.0 128.5232,127.1806 127.9746,127.5098 C 127.426,127.8389 127.0,128.3606 127.0,129.0 L 127.0,131.0 C 127.0,131.0964 126.9622,131.2128 126.8535,131.1465 L 125.8535,130.1465 C 125.6587,129.9516 125.3413,129.9516 125.1465,130.1465 C 124.9513,130.3417 124.9513,130.6583 125.1465,130.8535 L 126.1465,131.8535 C 126.6465,132.3535 127.0,132.6667 127.0,133.5 L 127.0,138.0 C 127.0,138.6394 127.426,139.1611 127.9746,139.4902 C 128.5232,139.8194 129.2286,140.0 130.0,140.0 C 130.7714,140.0 131.4768,139.8194 132.0254,139.4902 C 132.574,139.1611 133.0,138.6394 133.0,138.0 L 133.0,136.5 C 133.0,135.1111 133.4694,133.9547 134.2773,133.416 L 135.7773,132.416 C 136.0071,132.2628 136.0692,131.9524 135.916,131.7227 C 135.8203,131.5791 135.6625,131.501 135.502,131.5 C 135.4057,131.4994 135.3088,131.5266 135.2227,131.584 L 133.707,132.5938 C 133.2645,132.8886 133.0,132.4939 133.0,132.2031 L 133.0,129.0 C 133.0,128.3606 132.574,127.8389 132.0254,127.5098 C 131.4768,127.1806 130.7714,127.0 130.0,127.0 M 130.0,128.0 C 130.6093,128.0 131.1536,128.1535 131.5098,128.3672 C 131.866,128.5809 132.0,128.811 132.0,129.0 C 132.0,129.189 131.866,129.4191 131.5098,129.6328 C 131.1536,129.8465 130.6093,130.0 130.0,130.0 C 129.3907,130.0 128.8464,129.8465 128.4902,129.6328 C 128.134,129.4191 128.0,129.189 128.0,129.0 C 128.0,128.811 128.134,128.5809 128.4902,128.3672 C 128.8464,128.1535 129.3907,128.0 130.0,128.0" fill="#97612b" /><g opacity="0.5"><path d="M 170.0,152.0 C 169.2286,152.0 168.5232,152.1806 167.9746,152.5098 C 167.426,152.8389 167.0,153.3606 167.0,154.0 L 167.0,156.0 C 167.0,156.0964 166.9622,156.2128 166.8535,156.1465 L 165.8535,155.1465 C 165.6587,154.9516 165.3413,154.9516 165.1465,155.1465 C 164.9513,155.3417 164.9513,155.6583 165.1465,155.8535 L 166.1465,156.8535 C 166.6465,157.3535 167.0,157.6667 167.0,158.5 L 167.0,163.0 C 167.0,163.6394 167.426,164.1611 167.9746,164.4902 C 168.5232,164.8194 169.2286,165.0 170.0,165.0 C 170.7714,165.0 171.4768,164.8194 172.0254,164.4902 C 172.574,164.1611 173.0,163.6394 173.0,163.0 L 173.0,161.5 C 173.0,160.1111 173.4694,158.9547 174.2773,158.416 L 175.7773,157.416 C 176.0071,157.2628 176.0692,156.9524 175.916,156.7227 C 175.8203,156.5791 175.6625,156.501 175.502,156.5 C 175.4057,156.4994 175.3088,156.5266 175.2227,156.584 L 173.707,157.5938 C 173.2645,157.8886 173.0,157.4939 173.0,157.2031 L 173.0,154.0 C 173.0,153.3606 172.574,152.8389 172.0254,152.5098 C 171.4768,152.1806 170.7714,152.0 170.0,152.0 M 170.0,153.0 C 170.6093,153.0 171.1536,153.1535 171.5098,153.3672 C 171.866,153.5809 172.0,153.811 172.0,154.0 C 172.0,154.189 171.866,154.4191 171.5098,154.6328 C 171.1536,154.8465 170.6093,155.0 170.0,155.0 C 169.3907,155.0 168.8464,154.8465 168.4902,154.6328 C 168.134,154.4191 168.0,154.189 168.0,154.0 C 168.0,153.811 168.134,153.5809 168.4902,153.3672 C 168.8464,153.1535 169.3907,153.0 170.0,153.0" fill="#fff" opacity="1.0" stroke="#fff" stroke-linejoin="round" stroke-width="2.2" /></g><path d="M 170.0,152.0 C 169.2286,152.0 168.5232,152.1806 167.9746,152.5098 C 167.426,152.8389 167.0,153.3606 167.0,154.0 L 167.0,156.0 C 167.0,156.0964 166.9622,156.2128 166.8535,156.1465 L 165.8535,155.1465 C 165.6587,154.9516 165.3413,154.9516 165.1465,155.1465 C 164.9513,155.3417 164.9513,155.6583 165.1465,155.8535 L 166.1465,156.8535 C 166.6465,157.3535 167.0,157.6667 167.0,158.5 L 167.0,163.0 C 167.0,163.6394 167.426,164.1611 167.9746,164.4902 C 168.5232,164.8194 169.2286,165.0 170.0,165.0 C 170.7714,165.0 171.4768,164.8194 172.0254,164.4902 C 172.574,164.1611 173.0,163.6394 173.0,163.0 L 173.0,161.5 C 173.0,160.1111 173.4694,158.9547 174.2773,158.416 L 175.7773,157.416 C 176.0071,157.2628 176.0692,156.9524 175.916,156.7227 C 175.8203,156.5791 175.6625,156.501 175.502,156.5 C 175.4057,156.4994 175.3088,156.5266 175.2227,156.584 L 173.707,157.5938 C 173.2645,157.8886 173.0,157.4939 173.0,157.2031 L 173.0,154.0 C 173.0,153.3606 172.574,152.8389 172.0254,152.5098 C 171.4768,152.1806 170.7714,152.0 170.0,152.0 M 170.0,153.0 C 170.6093,153.0 171.1536,153.1535 171.5098,153.3672 C 171.866,153.5809 172.0,153.811 172.0,154.0 C 172.0,154.189 171.866,154.4191 171.5098,154.6328 C 171.1536,154.8465 170.6093,155.0 170.0,155.0 C 169.3907,155.0 168.8464,154.8465 168.4902,154.6328 C 168.134,154.4191 168.0,154.189 168.0,154.0 C 168.0,153.811 168.134,153.5809 168.4902,153.3672 C 168.8464,153.1535 169.3907,153.0 170.0,153.0" fill="#97612b" /><text fill="#888" font-family="Helvetica" font-size="10.0" opacity="0.7" stroke="#fff" stroke-linejoin="round" stroke-width="3.0" text-anchor="end" x="285.0" y="185.0">Rendering: Map Machine</text><text fill="#888" font-family="Helvetica" font-size="10.0" opacity="1.0" stroke="none" stroke-linejoin="round" stroke-width="1.0" text-anchor="end" x="285.0" y="185.0">Rendering: Map Machine</text><text fill="#888" font-family="Helvetica" font-size="10.0" opacity="0.7" stroke="#fff" stroke-linejoin="round" stroke-width="3.0" text-anchor="end" x="285.0" y="173.0">Data: © OpenStreetMap contributors</text><text fill="#888" font-family="Helvetica" font-size="10.0" opacity="1.0" stroke="none" stroke-linejoin="round" stroke-width="1.0" text-anchor="end" x="285.0" y="173.0">Data: © OpenStreetMap contributors</text></svg>