<?xml version="1.0" encoding="utf-8" ?>
<svg baseProfile="full" height="200.0" version="1.1" width="300.0" xmlns="http://www.w3.org/2000/svg" xmlns:ev="http://www.w3.org/2001/xml-events" xmlns:xlink="http://www.w3.org/1999/xlink"><defs /><rect fill="#eee" height="200.0" width="300.0" x="0.0" y="0.0" /><path d="M -25.00000000372529,224.9999526143074 L -25.00000000372529,-25.00004740804434 L 325.00000001117587,-25.00004740804434 L 325.00000001117587,224.9999526143074 L -25.00000000372529,224.9999526143074 Z " fill="#D0F8B0" /><path d="M -4.965594906359911,170.9254306703806 L 110.07083364576101,224.9999526143074 L -25.00000000372529,224.9999526143074 L -25.00000000372529,157.8926334232092 L -4.965594906359911,170.9254306703806 Z " fill="#C0F0A0" stroke="#C0F0A0" /><path d="M 225.6127048805356,82.19252873957157 L 204.28506868332624,82.49692999571562 L 202.74331184849143,37.597726963460445 L 109.12441078573465,40.79394255578518 L 113.06445602327585,152.2047779932618 L 206.59770392999053,148.85636798292398 L 205.39855973049998,112.93704839795828 L 226.72619592770934,112.32824615389109 L 201.2015550173819,219.7817402780056 L 4.199292935431004,133.02751791477203 L -25.00000000372529,115.60831879079342 L -25.00000000372529,-25.00004740804434 L 86.54511283710599,-25.00004740804434 L 106.4691629037261,14.767610661685467 L 200.60198291391134,11.875795312225819 L 198.1536666378379,-25.00004740804434 L 217.20567122474313,-25.00004740804434 L 225.6127048805356,82.19252873957157 Z " fill="#C0F0A0" stroke="#C0F0A0" /><path d="M 259.2743957452476,74.58249667286873 L 250.8300689086318,-25.00004740804434 L 283.42649798095226,-25.00004740804434 L 259.2743957452476,74.58249667286873 Z " fill="#C0F0A0" stroke="#C0F0A0" /><path d="M 325.00000001117587,28.825574345886707 L 325.00000001117587,224.9999526143074 L 278.3559505045414,224.9999526143074 L 325.00000001117587,28.825574345886707 Z " fill="#C0F0A0" stroke="#C0F0A0" /><path d="M 2.3149234764277935,183.10146173089743 L 17.818144969642162,163.46761037409306 L 46.59760586544871,151.29157526046038 L 84.028035659343,159.51039925217628 L 110.75182076916099,172.7518354654312 L 134.3920922242105,195.125289991498 L 146.04092163592577,219.32513941824436 L 147.14508929476142,224.9999526143074 L -25.00000000372529,224.9999526143074 L -25.00000000372529,195.89414028823376 L 2.3149234764277935,183.10146173089743 Z " fill="#9D7" /><path d="M 109.12441078573465,40.79394255578518 L 202.74331184849143,37.597726963460445 L 204.28506868332624,82.49692999571562 L 204.79898762702942,97.41258995980024 L 205.39855973049998,112.93704839795828 L 206.59770392999053,148.85636798292398 L 113.06445602327585,152.2047779932618 L 109.12441078573465,40.79394255578518 Z " fill="#AEC" stroke="#66E0A3" stroke-width="1.0" /><path d="M 219.11539901047945,224.9999526143074 L 220.55916859582067,220.5427416563034 " fill="none" stroke="#FFF" stroke-linecap="round" stroke-linejoin="round" stroke-width="3.0" /><path d="M -25.00000000372529,137.5063831359148 L -1.5394686125218868,153.72678249329329 L 162.18327778577805,224.9999526143074 " fill="none" stroke="#FFF" stroke-linecap="round" stroke-linejoin="round" stroke-width="3.0" /><path d="M 235.00602389127016,-25.00004740804434 L 245.9125031903386,95.43398223817348 L 220.55916859582067,220.5427416563034 " fill="none" stroke="#FFF" stroke-linecap="round" stroke-linejoin="round" stroke-width="3.0" /><path d="M 204.79898762702942,97.41258995980024 L 245.9125031903386,95.43398223817348 " fill="none" stroke="#FFF" stroke-linecap="round" stroke-linejoin="round" stroke-width="3.0" /><path d="M 253.04212437942624,224.9999526143074 L 258.50351733341813,195.88629166781902 L 310.78635454550385,-25.00004740804434 " fill="none" stroke="#FFF" stroke-linecap="round" stroke-linejoin="round" stroke-width="3.0" /><path d="M 219.11539901047945,224.9999526143074 L 220.55916859582067,220.5427416563034 " fill="none" stroke="#B89A74" stroke-dasharray="7.0,3.0" stroke-linecap="round" stroke-linejoin="round" stroke-width="1.5" /><path d="M -25.00000000372529,137.5063831359148 L -1.5394686125218868,153.72678249329329 L 162.18327778577805,224.9999526143074 " fill="none" stroke="#B89A74" stroke-dasharray="7.0,3.0" stroke-linecap="round" stroke-linejoin="round" stroke-width="1.5" /><path d="M 235.00602389127016,-25.00004740804434 L 245.9125031903386,95.43398223817348 L 220.55916859582067,220.5427416563034 " fill="none" stroke="#B89A74" stroke-dasharray="7.0,3.0" stroke-linecap="round" stroke-linejoin="round" stroke-width="1.5" /><path d="M 204.79898762702942,97.41258995980024 L 245.9125031903386,95.43398223817348 " fill="none" stroke="#B89A74" stroke-dasharray="7.0,3.0" stroke-linecap="round" stroke-linejoin="round" stroke-width="1.5" /><path d="M 253.04212437942624,224.9999526143074 L 258.50351733341813,195.88629166781902 L 310.78635454550385,-25.00004740804434 " fill="none" stroke="#44E" stroke-dasharray="8.0,2.0" stroke-linecap="butt" stroke-width="1.0" /><g opacity="0.5"><path d="M 153.0,90.0 C 152.446,90.0 152.0,90.446 152.0,91.0 C 151.446,91.0 151.0,91.446 151.0,92.0 L 151.0,95.0 C 151.0,95.554 151.446,96.0 152.0,96.0 C 152.0,96.554 152.446,97.0 153.0,97.0 C 153.554,97.0 154.0,96.554 154.0,96.0 L 154.0,91.0 C 154.0,90.446 153.554,90.0 153.0,90.0 M 161.0,90.0 C 160.446,90.0 160.0,90.446 160.0,91.0 L 160.0,96.0 C 160.0,96.554 160.446,97.0 161.0,97.0 C 161.554,97.0 162.0,96.554 162.0,96.0 C 162.554,96.0 163.0,95.554 163.0,95.0 L 163.0,92.0 C 163.0,91.446 162.554,91.0 162.0,91.0 C 162.0,90.446 161.554,90.0 161.0,90.0 M 154.5,93.0 L 154.5,94.0 L 159.5,94.0 L 159.5,93.0 L 154.5,93.0" fill="#fff" opacity="1.0" stroke="#fff" stroke-linejoin="round" stroke-width="2.2" /></g><path d="M 153.0,90.0 C 152.446,90.0 152.0,90.446 152.0,91.0 C 151.446,91.0 151.0,91.446 151.0,92.0 L 151.0,95.0 C 151.0,95.554 151.446,96.0 152.0,96.0 C 152.0,96.554 152.446,97.0 153.0,97.0 C 153.554,97.0 154.0,96.554 154.0,96.0 L 154.0,91.0 C 154.0,90.446 153.554,90.0 153.0,90.0 M 161.0,90.0 C 160.446,90.0 160.0,90.446 160.0,91.0 L 160.0,96.0 C 160.0,96.554 160.446,97.0 161.0,97.0 C 161.554,97.0 162.0,96.554 162.0,96.0 C 162.554,96.0 163.0,95.554 163.0,95.0 L 163.0,92.0 C 163.0,91.446 162.554,91.0 162.0,91.0 C 162.0,90.446 161.554,90.0 161.0,90.0 M 154.5,93.0 L 154.5,94.0 L 159.5,94.0 L 159.5,93.0 L 154.5,93.0" fill="#444" /><g opacity="0.5"><path d="M 145.5,48.0 C 145.223,48.0 145.0,48.223 145.0,48.5 L 145.0,59.5 C 145.0,59.777 145.223,60.0 145.5,60.0 L 146.5,60.0 C 146.777,60.0 147.0,59.777 147.0,59.5 L 147.0,50.0 L 153.0,50.0 L 153.0,59.5 C 153.0,59.777 153.223,60.0 153.5,60.0 L 154.5,60.0 C 154.777,60.0 155.0,59.777 155.0,59.5 L 155.0,48.5 C 155.0,48.223 154.777,48.0 154.5,48.0 L 153.5,48.0 C 153.223,48.0 153.0,48.223 153.0,48.5 L 153.0,49.0 L 147.0,49.0 L 147.0,48.5 C 147.0,48.223 146.777,48.0 146.5,48.0 L 145.5,48.0" fill="#fff" opacity="1.0" stroke="#fff" stroke-linejoin="round" stroke-width="2.2" /></g><path d="M 145.5,48.0 C 145.223,48.0 145.0,48.223 145.0,48.5 L 145.0,59.5 C 145.0,59.777 145.223,60.0 145.5,60.0 L 146.5,60.0 C 146.777,60.0 147.0,59.777 147.0,59.5 L 147.0,50.0 L 153.0,50.0 L 153.0,59.5 C 153.0,59.777 153.223,60.0 153.5,60.0 L 154.5,60.0 C 154.777,60.0 155.0,59.777 155.0,59.5 L 155.0,48.5 C 155.0,48.223 154.777,48.0 154.5,48.0 L 153.5,48.0 C 153.223,48.0 153.0,48.223 153.0,48.5 L 153.0,49.0 L 147.0,49.0 L 147.0,48.5 C 147.0,48.223 146.777,48.0 146.5,48.0 L 145.5,48.0" fill="#000" /><g opacity="0.5"><path d="M 161.5,58.0 C 161.223,58.0 161.0,58.223 161.0,58.5 L 161.0,69.5 C 161.0,69.777 161.223,70.0 161.5,70.0 L 162.5,70.0 C 162.777,70.0 163.0,69.777 163.0,69.5 L 163.0,60.0 L 169.0,60.0 L 169.0,69.5 C 169.0,69.777 169.223,70.0 169.5,70.0 L 170.5,70.0 C 170.777,70.0 171.0,69.777 171.0,69.5 L 171.0,58.5 C 171.0,58.223 170.777,58.0 170.5,58.0 L 169.5,58.0 C 169.223,58.0 169.0,58.223 169.0,58.5 L 169.0,59.0 L 163.0,59.0 L 163.0,58.5 C 163.0,58.223 162.777,58.0 162.5,58.0 L 161.5,58.0" fill="#fff" opacity="1.0" stroke="#fff" stroke-linejoin="round" stroke-width="2.2" /></g><path d="M 161.5,58.0 C 161.223,58.0 161.0,58.223 161.0,58.5 L 161.0,69.5 C 161.0,69.777 161.223,70.0 161.5,70.0 L 162.5,70.0 C 162.777,70.0 163.0,69.777 163.0,69.5 L 163.0,60.0 L 169.0,60.0 L 169.0,69.5 C 169.0,69.777 169.223,70.0 169.5,70.0 L 170.5,70.0 C 170.777,70.0 171.0,69.777 171.0,69.5 L 171.0,58.5 C 171.0,58.223 170.777,58.0 170.5,58.0 L 169.5,58.0 C 169.223,58.0 169.0,58.223 169.0,58.5 L 169.0,59.0 L 163.0,59.0 L 163.0,58.5 C 163.0,58.223 162.777,58.0 162.5,58.0 L 161.5,58.0" fill="#000" /><g opacity="0.5"><path d="M 123.5,57.0 C 123.223,57.0 123.0,57.223 123.0,57.5 L 123.0,68.5 C 123.0,68.777 123.223,69.0 123.5,69.0 L 124.5,69.0 C 124.777,69.0 125.0,68.777 125.0,68.5 L 125.0,65.0 L 131.0,65.0 L 131.0,68.5 C 131.0,68.777 131.223,69.0 131.5,69.0 L 132.5,69.0 C 132.777,69.0 133.0,68.777 133.0,68.5 L 133.0,57.5 C 133.0,57.223 132.777,57.0 132.5,57.0 L 131.5,57.0 C 131.223,57.0 131.0,57.223 131.0,57.5 L 131.0,58.0 L 125.0,58.0 L 125.0,57.5 C 125.0,57.223 124.777,57.0 124.5,57.0 L 123.5,57.0 M 125.0,59.0 L 131.0,59.0 L 131.0,61.0 L 125.0,61.0 L 125.0,59.0 M 125.0,62.0 L 131.0,62.0 L 131.0,64.0 L 125.0,64.0 L 125.0,62.0" fill="#fff" opacity="1.0" stroke="#fff" stroke-linejoin="round" stroke-width="2.2" /></g><path d="M 123.5,57.0 C 123.223,57.0 123.0,57.223 123.0,57.5 L 123.0,68.5 C 123.0,68.777 123.223,69.0 123.5,69.0 L 124.5,69.0 C 124.777,69.0 125.0,68.777 125.0,68.5 L 125.0,65.0 L 131.0,65.0 L 131.0,68.5 C 131.0,68.777 131.223,69.0 131.5,69.0 L 132.5,69.0 C 132.777,69.0 133.0,68.777 133.0,68.5 L 133.0,57.5 C 133.0,57.223 132.777,57.0 132.5,57.0 L 131.5,57.0 C 131.223,57.0 131.0,57.223 131.0,57.5 L 131.0,58.0 L 125.0,58.0 L 125.0,57.5 C 125.0,57.223 124.777,57.0 124.5,57.0 L 123.5,57.0 M 125.0,59.0 L 131.0,59.0 L 131.0,61.0 L 125.0,61.0 L 125.0,59.0 M 125.0,62.0 L 131.0,62.0 L 131.0,64.0 L 125.0,64.0 L 125.0,62.0" fill="#000" /><g opacity="0.5"><path d="M 124.5,81.0 C 123.8333,81.0 123.2251,81.3179 122.7715,81.7715 C 122.3179,82.2251 122.0,82.8333 122.0,83.5 A 0.5,0.5 0.0 0,0 122.5,84.0 A 0.5,0.5 0.0 0,0 123.0,83.5 C 123.0,83.1667 123.1821,82.7749 123.4785,82.4785 C 123.7749,82.1821 124.1667,82.0 124.5,82.0 L 125.0,82.0 L 125.0,86.0 L 124.5,86.0 C 123.8333,86.0 123.2251,86.3179 122.7715,86.7715 C 122.3179,87.2251 122.0,87.8333 122.0,88.5 A 0.5,0.5 0.0 0,0 122.5,89.0 A 0.5,0.5 0.0 0,0 123.0,88.5 C 123.0,88.1667 123.1821,87.7749 123.4785,87.4785 C 123.7749,87.1821 124.1667,87.0 124.5,87.0 L 132.5,87.0 C 132.8333,87.0 133.2251,87.1821 133.5215,87.4785 C 133.8179,87.7749 134.0,88.1667 134.0,88.5 A 0.5,0.5 0.0 0,0 134.5,89.0 A 0.5,0.5 0.0 0,0 135.0,88.5 C 135.0,87.8333 134.6821,87.2251 134.2285,86.7715 C 133.7749,86.3179 133.1667,86.0 132.5,86.0 L 132.0,86.0 L 132.0,82.0 L 132.5,82.0 C 132.8333,82.0 133.2251,82.1821 133.5215,82.4785 C 133.8179,82.7749 134.0,83.1667 134.0,83.5 A 0.5,0.5 0.0 0,0 134.5,84.0 A 0.5,0.5 0.0 0,0 135.0,83.5 C 135.0,82.8333 134.6821,82.2251 134.2285,81.7715 C 133.7749,81.3179 133.1667,81.0 132.5,81.0 L 124.5,81.0 M 126.0,82.0 L 128.0,82.0 L 128.0,86.0 L 126.0,86.0 L 126.0,82.0 M 129.0,82.0 L 131.0,82.0 L 131.0,86.0 L 129.0,86.0 L 129.0,82.0" fill="#fff" opacity="1.0" stroke="#fff" stroke-linejoin="round" stroke-width="2.2" /></g><path d="M 124.5,81.0 C 123.8333,81.0 123.2251,81.3179 122.7715,81.7715 C 122.3179,82.2251 122.0,82.8333 122.0,83.5 A 0.5,0.5 0.0 0,0 122.5,84.0 A 0.5,0.5 0.0 0,0 123.0,83.5 C 123.0,83.1667 123.1821,82.7749 123.4785,82.4785 C 123.7749,82.1821 124.1667,82.0 124.5,82.0 L 125.0,82.0 L 125.0,86.0 L 124.5,86.0 C 123.8333,86.0 123.2251,86.3179 122.7715,86.7715 C 122.3179,87.2251 122.0,87.8333 122.0,88.5 A 0.5,0.5 0.0 0,0 122.5,89.0 A 0.5,0.5 0.0 0,0 123.0,88.5 C 123.0,88.1667 123.1821,87.7749 123.4785,87.4785 C 123.7749,87.1821 124.1667,87.0 124.5,87.0 L 132.5,87.0 C 132.8333,87.0 133.2251,87.1821 133.5215,87.4785 C 133.8179,87.7749 134.0,88.1667 134.0,88.5 A 0.5,0.5 0.0 0,0 134.5,89.0 A 0.5,0.5 0.0 0,0 135.0,88.5 C 135.0,87.8333 134.6821,87.2251 134.2285,86.7715 C 133.7749,86.3179 133.1667,86.0 132.5,86.0 L 132.0,86.0 L 132.0,82.0 L 132.5,82.0 C 132.8333,82.0 133.2251,82.1821 133.5215,82.4785 C 133.8179,82.7749 134.0,83.1667 134.0,83.5 A 0.5,0.5 0.0 0,0 134.5,84.0 A 0.5,0.5 0.0 0,0 135.0,83.5 C 135.0,82.8333 134.6821,82.2251 134.2285,81.7715 C 133.7749,81.3179 133.1667,81.0 132.5,81.0 L 124.5,81.0 M 126.0,82.0 L 128.0,82.0 L 128.0,86.0 L 126.0,86.0 L 126.0,82.0 M 129.0,82.0 L 131.0,82.0 L 131.0,86.0 L 129.0,86.0 L 129.0,82.0" fill="#000" /><g opacity="0.5"><path d="M 196.5,137.0 C 196.223,137.0 196.0,137.223 196.0,137.5 L 196.0,138.0 L 193.5,138.0 C 193.223,138.0 193.0,138.223 193.0,138.5 L 193.0,139.0 L 201.0,139.0 L 201.0,138.5 C 201.0,138.223 200.777,138.0 200.5,138.0 L 198.0,138.0 L 198.0,137.5 C 198.0,137.223 197.777,137.0 197.5,137.0 L 196.5,137.0 M 193.0059,140.0 C 193.0039,140.0654 193.0089,140.1308 193.0196,140.1953 L 194.0196,145.1953 C 194.1128,145.663 194.5232,145.9998 195.0,146.0 L 199.0,146.0 C 199.4769,145.9998 199.8873,145.663 199.9805,145.1953 L 200.9805,140.1953 C 200.9934,140.131 200.9999,140.0656 201.0,140.0 L 193.0059,140.0" fill="#fff" opacity="1.0" stroke="#fff" stroke-linejoin="round" stroke-width="2.2" /></g><path d="M 196.5,137.0 C 196.223,137.0 196.0,137.223 196.0,137.5 L 196.0,138.0 L 193.5,138.0 C 193.223,138.0 193.0,138.223 193.0,138.5 L 193.0,139.0 L 201.0,139.0 L 201.0,138.5 C 201.0,138.223 200.777,138.0 200.5,138.0 L 198.0,138.0 L 198.0,137.5 C 198.0,137.223 197.777,137.0 197.5,137.0 L 196.5,137.0 M 193.0059,140.0 C 193.0039,140.0654 193.0089,140.1308 193.0196,140.1953 L 194.0196,145.1953 C 194.1128,145.663 194.5232,145.9998 195.0,146.0 L 199.0,146.0 C 199.4769,145.9998 199.8873,145.663 199.9805,145.1953 L 200.9805,140.1953 C 200.9934,140.131 200.9999,140.0656 201.0,140.0 L 193.0059,140.0" fill="#000" /><g opacity="0.5"><path d="M 124.5,113.5 C 124.223,113.5 124.0,113.723 124.0,114.0 L 124.0,114.4902 L 123.9629,114.4802 C 123.6953,114.4085 123.4233,114.5662 123.3516,114.8337 L 123.0918,115.8005 C 123.0201,116.0681 123.1777,116.3402 123.4453,116.4119 L 124.0,116.5606 L 124.0,120.5 C 124.0,120.777 124.223,121.0 124.5,121.0 C 124.777,121.0 125.0,120.777 125.0,120.5 L 125.0,116.8281 L 134.0,119.2422 L 134.0,120.5 C 134.0,120.777 134.2021,121.0 134.4531,121.0 L 134.5469,121.0 C 134.7979,121.0 135.0,120.777 135.0,120.5 L 135.0,119.5098 L 135.0371,119.5198 C 135.3047,119.5915 135.5767,119.4338 135.6484,119.1663 L 135.9082,118.1995 C 135.9799,117.9319 135.8223,117.6598 135.5547,117.5881 L 135.0,117.4394 L 135.0,116.5 C 135.0,116.223 134.7979,116.0 134.5469,116.0 L 134.4531,116.0 C 134.2021,116.0 134.0,116.223 134.0,116.5 L 134.0,117.1719 L 125.0,114.7578 L 125.0,114.0 C 125.0,113.723 124.777,113.5 124.5,113.5" fill="#fff" opacity="1.0" stroke="#fff" stroke-linejoin="round" stroke-width="2.2" /></g><path d="M 124.5,113.5 C 124.223,113.5 124.0,113.723 124.0,114.0 L 124.0,114.4902 L 123.9629,114.4802 C 123.6953,114.4085 123.4233,114.5662 123.3516,114.8337 L 123.0918,115.8005 C 123.0201,116.0681 123.1777,116.3402 123.4453,116.4119 L 124.0,116.5606 L 124.0,120.5 C 124.0,120.777 124.223,121.0 124.5,121.0 C 124.777,121.0 125.0,120.777 125.0,120.5 L 125.0,116.8281 L 134.0,119.2422 L 134.0,120.5 C 134.0,120.777 134.2021,121.0 134.4531,121.0 L 134.5469,121.0 C 134.7979,121.0 135.0,120.777 135.0,120.5 L 135.0,119.5098 L 135.0371,119.5198 C 135.3047,119.5915 135.5767,119.4338 135.6484,119.1663 L 135.9082,118.1995 C 135.9799,117.9319 135.8223,117.6598 135.5547,117.5881 L 135.0,117.4394 L 135.0,116.5 C 135.0,116.223 134.7979,116.0 134.5469,116.0 L 134.4531,116.0 C 134.2021,116.0 134.0,116.223 134.0,116.5 L 134.0,117.1719 L 125.0,114.7578 L 125.0,114.0 C 125.0,113.723 124.777,113.5 124.5,113.5" fill="#444" /><g opacity="0.5"><path d="M 164.5,141.0 C 164.223,141.0 164.0,141.223 164.0,141.5 L 164.0,142.5 C 164.0,142.777 164.223,143.0 164.5,143.0 L 165.0,143.0 L 165.0,144.5 C 165.0,144.777 165.223,145.0 165.5,145.0 C 165.777,145.0 166.0,144.777 166.0,144.5 L 166.0,143.0 L 174.0,143.0 L 174.0,144.5 C 174.0,144.777 174.223,145.0 174.5,145.0 C 174.777,145.0 175.0,144.777 175.0,144.5 L 175.0,143.0 L 175.5,143.0 C 175.777,143.0 176.0,142.777 176.0,142.5 L 176.0,141.5 C 176.0,141.223 175.777,141.0 175.5,141.0 L 164.5,141.0" fill="#fff" opacity="1.0" stroke="#fff" stroke-linejoin="round" stroke-width="2.2" /></g><path d="M 164.5,141.0 C 164.223,141.0 164.0,141.223 164.0,141.5 L 164.0,142.5 C 164.0,142.777 164.223,143.0 164.5,143.0 L 165.0,143.0 L 165.0,144.5 C 165.0,144.777 165.223,145.0 165.5,145.0 C 165.777,145.0 166.0,144.777 166.0,144.5 L 166.0,143.0 L 174.0,143.0 L 174.0,144.5 C 174.0,144.777 174.223,145.0 174.5,145.0 C 174.777,145.0 175.0,144.777 175.0,144.5 L 175.0,143.0 L 175.5,143.0 C 175.777,143.0 176.0,142.777 176.0,142.5 L 176.0,141.5 C 176.0,141.223 175.777,141.0 175.5,141.0 L 164.5,141.0" fill="#444" /><g opacity="0.5"><path d="M 130.0,127.0 C 129.2286,127.0 128.5232,127.1806 127.9746,127.5098 C 127.426,127.8389 127.0,128.3606 127.0,129.0 L 127.0,131.0 C 127.0,131.0964 126.9622,131.2128 126.8535,131.1465 L 125.8535,130.1465 C 125.6587,129.9516 125.3413,129.9516 125.1465,130.1465 C 124.9513,130.3417 124.9513,130.6583 125.1465,130.8535 L 126.1465,131.8535 C 126.6465,132.3535 127.0,132.6667 127.0,133.5 L 127.0,138.0 C 127.0,138.6394 127.426,139.1611 127.9746,139.4902 C 128.5232,139.8194 129.2286,140.0 130.0,140.0 C 130.7714,140.0 131.4768,139.8194 132.0254,139.4902 C 132.574,139.1611 133.0,138.6394 133.0,138.0 L 133.0,136.5 C 133.0,135.1111 133.4694,133.9547 134.2773,133.416 L 135.7773,132.416 C 136.0071,132.2628 136.0692,131.9524 135.916,131.7227 C 135.8203,131.5791 135.6625,131.501 135.502,131.5 C 135.4057,131.4994 135.3088,131.5266 135.2227,131.584 L 133.707,132.5938 C 133.2645,132.8886 133.0,132.4939 133.0,132.2031 L 133.0,129.0 C 133.0,128.3606 132.574,127.8389 132.0254,127.5098 C 131.4768,127.1806 130.7714,127.0 130.0,127.0 M 130.0,128.0 C 130.6093,128.0 131.1536,128.1535 131.5098,128.3672 C 131.866,128.5809 132.0,128.811 132.0,129.0 C 132.0,129.189 131.866,129.4191 131.5098,129.6328 C 131.1536,129.8465 130.6093,130.0 130.0,130.0 C 129.3907,130.0 128.8464,129.8465 128.4902,129.6328 C 128.134,129.4191 128.0,129.189 128.0,129.0 C 128.0,128.811 128.134,128.5809 128.4902,128.3672 C 128.8464,128.1535 129.3907,128.0 130.0,128.0" fill="#fff" opacity="1.0" stroke="#fff" stroke-linejoin="round" stroke-width="2.2" /></g><path d="M 130.0,127.0 C 129.2286,127.0 128.5232,127.1806 127.9746,127.5098 C 127.426,127.8389 127.0,128.3606 127.0,129.0 L 127.0,131.0 C 127.0,131.0964 126.9622,131.2128 126.8535,131.1465 L 125.8535,130.1465 C 125.6587,129.9516 125.3413,129.9516 125.1465,130.1465 C 124.9513,130.3417 124.9513,130.6583 125.1465,130.8535 L 126.1465,131.8535 C 126.6465,132.3535 127.0,132.6667 127.0,133.5 L 127.0,138.0 C 127.0,138.6394 127.426,139.1611 127.9746,139.4902 C 128.5232,139.8194 129.2286,140.0 130.0,140.0 C 130.7714,140.0 131.4768,139.8194 132.0254,139.4902 C 132.574,139.1611 133.0,138.6394 133.0,138.0 L 133.0,136.5 C 133.0,135.1111 133.4694,133.9547 134.2773,133.416 L 135.7773,132.416 C 136.0071,132.2628 136.0692,131.9524 135.916,131.7227 C 135.8203,131.5791 135.6625,131.501 135.502,131.5 C 135.4057,131.4994 135.3088,131.5266 135.2227,131.584 L 133.707,132.5938 C 133.2645,132.8886 133.0,132.4939 133.0,132.2031 L 133.0,129.0 C 133.0,128.3606 132.574,127.8389 132.0254,127.5098 C 131.4768,127.1806 130.7714,127.0 130.0,127.0 M 130.0,128.0 C 130.6093,128.0 131.1536,128.1535 131.5098,128.3672 C 131.866,128.5809 132.0,128.811 132.0,129.0 C 132.0,129.189 131.866,129.4191 131.5098,129.6328 C 131.1536,129.8465 130.6093,130.0 130.0,130.0 C 129.3907,130.0 128.8464,129.8465 128.4902,129.6328 C 128.134,129.4191 128.0,129.189 128.0,129.0 C 128.0,128.811 128.134,128.5809 128.4902,128.3672 C 128.8464,128.1535 129.3907,128.0 130.0,128.0" fill="#97612b" /><g opacity="0.5"><path d="M 170.0,152.0 C 169.2286,152.0 168.5232,152.1806 167.9746,152.5098 C 167.426,152.8389 167.0,153.3606 167.0,154.0 L 167.0,156.0 C 167.0,156.0964 166.9622,156.2128 166.8535,156.1465 L 165.8535,155.1465 C 165.6587,154.9516 165.3413,154.9516 165.1465,155.1465 C 164.9513,155.3417 164.9513,155.6583 165.1465,155.8535 L 166.1465,156.8535 C 166.6465,157.3535 167.0,157.6667 167.0,158.5 L 167.0,163.0 C 167.0,163.6394 167.426,164.1611 167.9746,164.4902 C 168.5232,164.8194 169.2286,165.0 170.0,165.0 C 170.7714,165.0 171.4768,164.8194 172.0254,164.4902 C 172.574,164.1611 173.0,163.6394 173.0,163.0 L 173.0,161.5 C 173.0,160.1111 173.4694,158.9547 174.2773,158.416 L 175.7773,157.416 C 176.0071,157.2628 176.0692,156.9524 175.916,156.7227 C 175.8203,156.5791 175.6625,156.501 175.502,156.5 C 175.4057,156.4994 175.3088,156.5266 175.2227,156.584 L 173.707,157.5938 C 173.2645,157.8886 173.0,157.4939 173.0,157.2031 L 173.0,154.0 C 173.0,153.3606 172.574,152.8389 172.0254,152.5098 C 171.4768,152.1806 170.7714,152.0 170.0,152.0 M 170.0,153.0 C 170.6093,153.0 171.1536,153.1535 171.5098,153.3672 C 171.866,153.5809 172.0,153.811 172.0,154.0 C 172.0,154.189 171.866,154.4191 171.5098,154.6328 C 171.1536,154.8465 170.6093,155.0 170.0,155.0 C 169.3907,155.0 168.8464,154.8465 168.4902,154.6328 C 168.134,154.4191 168.0,154.189 168.0,154.0 C 168.0,153.811 168.134,153.5809 168.4902,153.3672 C 168.8464,153.1535 169.3907,153.0 170.0,153.0" fill="#fff" opacity="1.0" stroke="#fff" stroke-linejoin="round" stroke-width="2.2" /></g><path d="M 170.0,152.0 C 169.2286,152.0 168.5232,152.1806 167.9746,152.5098 C 167.426,152.8389 167.0,153.3606 167.0,154.0 L 167.0,156.0 C 167.0,156.0964 166.9622,156.2128 166.8535,156.1465 L 165.8535,155.1465 C 165.6587,154.9516 165.3413,154.9516 165.1465,155.1465 C 164.9513,155.3417 164.9513,155.6583 165.1465,155.8535 L 166.1465,156.8535 C 166.6465,157.3535 167.0,157.6667 167.0,158.5 L 167.0,163.0 C 167.0,163.6394 167.426,164.1611 167.9746,164.4902 C 168.5232,164.8194 169.2286,165.0 170.0,165.0 C 170.7714,165.0 171.4768,164.8194 172.0254,164.4902 C 172.574,164.1611 173.0,163.6394 173.0,163.0 L 173.0,161.5 C 173.0,160.1111 173.4694,158.9547 174.2773,158.416 L 175.7773,157.416 C 176.0071,157.2628 176.0692,156.9524 175.916,156.7227 C 175.8203,156.5791 175.6625,156.501 175.502,156.5 C 175.4057,156.4994 175.3088,156.5266 175.2227,156.584 L 173.707,157.5938 C 173.2645,157.8886 173.0,157.4939 173.0,157.2031 L 173.0,154.0 C 173.0,153.3606 172.574,152.8389 172.0254,152.5098 C 171.4768,152.1806 170.7714,152.0 170.0,152.0 M 170.0,153.0 C 170.6093,153.0 171.1536,153.1535 171.5098,153.3672 C 171.866,153.5809 172.0,153.811 172.0,154.0 C 172.0,154.189 171.866,154.4191 171.5098,154.6328 C 171.1536,154.8465 170.6093,155.0 170.0,155.0 C 169.3907,155.0 168.8464,154.8465 168.4902,154.6328 C 168.134,154.4191 168.0,154.189 168.0,154.0 C 168.0,153.811 168.134,153.5809 168.4902,153.3672 C 168.8464,153.1535 169.3907,153.0 170.0,153.0" fill="#97612b" /><text fill="#888" font-family="Helvetica" font-size="10.0" opacity="0.7" stroke="#fff" stroke-linejoin="round" stroke-width="3.0" text-anchor="end" x="285.0" y="185.0">Rendering: Map Machine</text><text fill="#888" font-family="Helvetica" font-size="10.0" opacity="1.0" stroke="none" stroke-linejoin="round" stroke-width="1.0" text-anchor="end" x="285.0" y="185.0">Rendering: Map Machine</text><text fill="#888" font-family="Helvetica" font-size="10.0" opacity="0.7" stroke="#fff" stroke-linejoin="round" stroke-width="3.0" text-anchor="end" x="285.0" y="173.0">Data: © OpenStreetMap contributors</text><text fill="#888" font-family="Helvetica" font-size="10.0" opacity="1.0" stroke="none" stroke-linejoin="round" stroke-width="1.0" text-anchor="end" x="285.0" y="173.0">Data: © OpenStreetMap contributors</text></svg>