<?xml version="1.0" encoding="utf-8" ?>
<svg baseProfile="full" height="192" version="1.1" width="768.0" xmlns="http://www.w3.org/2000/svg" xmlns:ev="http://www.w3.org/2001/xml-events" xmlns:xlink="http://www.w3.org/1999/xlink"><defs /><rect fill="#fff" height="192" width="768.0" x="0" y="0" /><path d="M 38.0,28.0 C 36.892,28.0 36.0,28.892 36.0,30.0 L 36.0,44.0 L 26.0,44.0 C 24.892,44.0 24.0,44.892 24.0,46.0 L 24.0,66.0 C 24.0,67.108 24.892,68.0 26.0,68.0 L 30.0,68.0 C 31.108,68.0 32.0,67.108 32.0,66.0 L 32.0,52.0 L 42.0,52.0 C 43.108,52.0 44.0,51.108 44.0,50.0 L 44.0,36.0 L 52.0,36.0 L 52.0,50.0 C 52.0,51.108 52.892,52.0 54.0,52.0 L 64.0,52.0 L 64.0,66.0 C 64.0,67.108 64.892,68.0 66.0,68.0 L 70.0,68.0 C 71.108,68.0 72.0,67.108 72.0,66.0 L 72.0,46.0 C 72.0,44.892 71.108,44.0 70.0,44.0 L 60.0,44.0 L 60.0,30.0 C 60.0,28.892 59.108,28.0 58.0,28.0 L 38.0,28.0" fill="#000" /><path d="M 142.2656,24.3592 L 118.8048,65.0 C 118.0348,66.3344 118.9988,68.0016 120.5392,68.0 L 140.0,68.0 L 140.0,74.0 C 140.0,75.108 140.892,76.0 142.0,76.0 L 146.0,76.0 C 147.108,76.0 148.0,75.108 148.0,74.0 L 148.0,68.0 L 167.4608,68.0 C 169.0012,68.0016 169.9652,66.3344 169.1952,65.0 L 145.7344,24.3592 C 144.968,23.0316 143.0324,23.0308 142.2656,24.3592 L 142.2656,24.3592 M 144.0,37.3592 L 157.0704,60.0 L 130.9296,60.0 L 144.0,37.3592" fill="#000" /><path d="M 238.0,24.0 C 236.892,24.0 236.0,24.892 236.0,26.0 L 236.0,32.0 L 218.0,32.0 C 216.892,32.0 216.0,32.892 216.0,34.0 L 216.0,38.0 C 216.0,39.108 216.892,40.0 218.0,40.0 L 221.6796,40.0 C 225.2328,46.0288 229.2728,51.416 234.0936,56.328 C 230.578,59.172 226.6256,61.8624 222.0936,64.4844 C 222.0632,64.502 222.0308,64.5212 222.0,64.5392 C 221.0404,65.0932 220.7116,66.306 221.2656,67.2656 L 223.2656,70.7344 C 223.8196,71.694 225.0404,72.0148 226.0,71.4608 C 226.0308,71.4432 226.0632,71.424 226.0936,71.4064 C 231.314,68.386 235.9072,65.1956 240.0,61.7736 C 244.0928,65.1956 248.686,68.386 253.9064,71.4064 C 253.9364,71.4256 253.9684,71.4428 254.0,71.4608 C 254.9596,72.0148 256.1804,71.694 256.7344,70.7344 L 258.7344,67.2656 C 259.2884,66.306 258.9596,65.0932 258.0,64.5392 C 253.4296,61.9004 249.446,59.1912 245.9064,56.328 C 250.7272,51.416 254.7672,46.0288 258.3204,40.0 L 262.0,40.0 C 263.108,40.0 264.0,39.108 264.0,38.0 L 264.0,34.0 C 264.0,32.892 263.108,32.0 262.0,32.0 L 244.0,32.0 L 244.0,26.0 C 244.0,24.892 243.108,24.0 242.0,24.0 L 238.0,24.0 M 231.1092,40.0 L 248.8908,40.0 C 246.2416,44.0012 243.3404,47.6264 240.0,51.0 C 236.6596,47.6264 233.7584,44.0012 231.1092,40.0" fill="#000" /><path d="M 314.0,26.0 C 312.892,26.0 312.0,26.892 312.0,28.0 C 312.0,36.5656 316.656,44.5256 324.0,48.7812 C 326.51,50.2356 329.224,51.188 332.0,51.6564 L 332.0,70.0 C 332.0,71.108 332.892,72.0 334.0,72.0 L 338.0,72.0 C 339.108,72.0 340.0,71.108 340.0,70.0 L 340.0,51.6564 C 342.776,51.188 345.49,50.2356 348.0,48.7812 C 355.3448,44.5252 360.0,36.6244 360.0,28.0 C 360.0,26.892 359.108,26.0 358.0,26.0 L 354.0,26.0 C 352.892,26.0 352.0,26.892 352.0,28.0 C 352.0,33.7228 348.956,38.998 344.0,41.8592 C 339.044,44.7208 332.956,44.7208 328.0,41.8592 C 323.044,38.998 320.0,33.7228 320.0,28.0 C 320.0,26.892 319.108,26.0 318.0,26.0 L 314.0,26.0" fill="#000" /><path d="M 410.0,22.0 C 408.892,22.0 408.0,22.892 408.0,24.0 C 408.0,32.6812 412.5928,40.5504 420.0,44.7812 C 420.7864,45.2304 421.5872,45.6352 422.4064,45.992 C 421.5872,46.3492 420.7904,46.7692 420.0,47.2108 C 412.4964,51.404 407.9996,59.194 407.9996,68.0 C 407.9996,69.108 408.8916,70.0 409.9996,70.0 L 413.9996,70.0 C 415.1076,70.0 415.9996,69.108 415.9996,68.0 C 415.9996,62.2772 419.0436,57.002 423.9996,54.1404 C 425.2712,53.4064 426.6172,52.8572 427.9996,52.5 L 427.9996,68.0 C 427.9996,69.108 428.8916,70.0 429.9996,70.0 L 433.9996,70.0 C 435.1076,70.0 435.9996,69.108 435.9996,68.0 L 435.9996,52.5 C 437.382,52.8576 438.728,53.4064 439.9996,54.1408 C 444.9556,57.002 447.9996,62.2772 447.9996,68.0 C 447.9996,69.108 448.8916,70.0 449.9996,70.0 L 453.9996,70.0 C 455.1076,70.0 455.9996,69.108 455.9996,68.0 C 455.9996,59.194 451.4224,51.4432 443.9992,47.2108 C 443.2124,46.7624 442.412,46.3492 441.5932,45.9924 C 442.412,45.6352 443.212,45.2292 443.9992,44.7812 C 451.5204,40.502 456.0,32.5108 455.9996,24.0 C 455.9996,22.892 455.1076,22.0 453.9996,22.0 L 449.9996,22.0 C 448.8916,22.0 447.9996,22.892 447.9996,24.0 C 447.9996,29.7228 444.9556,34.998 439.9996,37.8596 C 438.728,38.5936 437.382,39.1428 435.9996,39.5 L 435.9996,24.0 C 435.9996,22.892 435.1076,22.0 433.9996,22.0 L 429.9996,22.0 C 428.8916,22.0 427.9996,22.892 427.9996,24.0 L 427.9996,39.5 C 426.6172,39.1424 425.2712,38.5936 423.9996,37.8592 C 419.0436,34.998 415.9996,29.7228 415.9996,24.0 C 415.9996,22.892 415.1076,22.0 413.9996,22.0 L 410.0,22.0" fill="#000" /><path d="M 526.0,28.0 A 6.0,6.0 0.0 0,0 520.0,34.0 A 6.0,6.0 0.0 0,0 526.0,40.0 A 6.0,6.0 0.0 0,0 532.0,34.0 A 6.0,6.0 0.0 0,0 526.0,28.0 M 510.0,56.0 A 6.0,6.0 0.0 0,0 504.0,62.0 A 6.0,6.0 0.0 0,0 510.0,68.0 A 6.0,6.0 0.0 0,0 516.0,62.0 A 6.0,6.0 0.0 0,0 510.0,56.0 M 542.0,56.0 A 6.0,6.0 0.0 0,0 536.0,62.0 A 6.0,6.0 0.0 0,0 542.0,68.0 A 6.0,6.0 0.0 0,0 548.0,62.0 A 6.0,6.0 0.0 0,0 542.0,56.0" fill="#000" /><path d="M 638.4608,67.7028 L 641.6092,65.234 C 642.4816,64.5504 642.6364,63.2936 641.9528,62.4212 L 629.0856,45.9996 L 641.9528,29.5696 C 642.6364,28.6976 642.4812,27.4484 641.6092,26.7652 L 638.4608,24.2964 C 637.5888,23.6132 636.3396,23.768 635.6564,24.64 L 624.0,39.5072 L 612.3516,24.64 C 611.6684,23.768 610.4112,23.6132 609.5392,24.2964 L 606.3908,26.7652 C 605.5184,27.4488 605.3636,28.7056 606.0468,29.578 L 618.914,45.9996 L 606.0468,62.4216 C 605.3636,63.2936 605.5184,64.5508 606.3908,65.234 L 609.5392,67.7028 C 610.4112,68.386 611.668,68.2312 612.3516,67.3592 L 624.0,52.484 L 635.6564,67.3588 C 636.3672,68.2664 637.6252,68.3576 638.4608,67.7024 L 638.4608,67.7028" fill="#000" /><path d="M 720.0,24.0 C 706.7924,24.0 696.0,34.7924 696.0,48.0 C 696.0,61.2076 706.7924,72.0 720.0,72.0 C 733.2076,72.0 744.0,61.2076 744.0,48.0 C 744.0,34.7924 733.2076,24.0 720.0,24.0 M 720.0,32.0 C 722.9748,32.0 725.7164,32.8552 728.0936,34.25 L 720.0,42.3436 L 711.9064,34.25 C 714.2836,32.8552 717.0252,32.0 720.0,32.0 M 706.25,39.9064 L 714.3436,48.0 L 706.25,56.0936 C 704.8552,53.7164 704.0,50.9748 704.0,48.0 C 704.0,45.0252 704.8552,42.2836 706.25,39.9064 M 733.75,39.9064 C 735.1448,42.2836 736.0,45.0252 736.0,48.0 C 736.0,50.9748 735.1448,53.7164 733.75,56.0936 L 725.6564,48.0 L 733.75,39.9064 M 720.0,53.6564 L 728.0936,61.75 C 725.7164,63.1448 722.9748,64.0 720.0,64.0 C 717.0252,64.0 714.2836,63.1448 711.9064,61.75 L 720.0,53.6564" fill="#000" /><path d="M 30.0,124.0 C 28.892,124.0 28.0,124.892 28.0,126.0 L 28.0,130.0 C 28.0,131.108 28.892,132.0 30.0,132.0 L 66.0,132.0 C 67.108,132.0 68.0,131.108 68.0,130.0 L 68.0,126.0 C 68.0,124.892 67.108,124.0 66.0,124.0 L 30.0,124.0 M 30.0,140.0 C 28.892,140.0 28.0,140.892 28.0,142.0 L 28.0,146.0 C 28.0,147.108 28.892,148.0 30.0,148.0 L 44.0,148.0 L 44.0,162.0 C 44.0,163.108 44.892,164.0 46.0,164.0 L 50.0,164.0 C 51.108,164.0 52.0,163.108 52.0,162.0 L 52.0,148.0 L 66.0,148.0 C 67.108,148.0 68.0,147.108 68.0,146.0 L 68.0,142.0 C 68.0,140.892 67.108,140.0 66.0,140.0 L 30.0,140.0" fill="#000" /><path d="M 167.9708,144.01 C 167.9708,137.8596 165.6404,131.7028 160.9708,127.0332 C 151.632,117.6944 136.3648,117.6944 127.0256,127.0332 C 117.6864,136.3724 117.6864,151.6396 127.0256,160.9788 C 136.3648,170.3176 151.6316,170.3176 160.9708,160.9788 C 165.6404,156.3092 167.9708,150.1604 167.9708,144.01 L 167.9708,144.01 M 160.0256,144.01 C 160.0256,148.0964 158.4556,152.1816 155.3148,155.3224 C 149.0328,161.6044 138.9636,161.6044 132.682,155.3224 C 126.4,149.0404 126.4,138.9792 132.682,132.6976 C 138.9636,126.4156 149.0328,126.4156 155.3148,132.6976 C 158.4556,135.8384 160.0256,139.9236 160.0256,144.01 M 156.002,142.01 C 156.002,140.902 155.11,140.01 154.002,140.01 L 148.002,140.01 L 148.002,134.01 C 148.002,132.902 147.11,132.01 146.002,132.01 L 142.002,132.01 C 140.894,132.01 140.002,132.902 140.002,134.01 L 140.002,140.01 L 134.002,140.01 C 132.894,140.01 132.002,140.902 132.002,142.01 L 132.002,146.01 C 132.002,147.118 132.894,148.01 134.002,148.01 L 140.002,148.01 L 140.002,154.01 C 140.002,155.118 140.894,156.01 142.002,156.01 L 146.002,156.01 C 147.11,156.01 148.002,155.118 148.002,154.01 L 148.002,148.01 L 154.002,148.01 C 155.11,148.01 156.002,147.118 156.002,146.01 L 156.002,142.01" fill="#000" /><path d="M 218.0,120.0 C 216.892,120.0 216.0,120.892 216.0,122.0 L 216.0,126.0 C 216.0,127.108 216.892,128.0 218.0,128.0 L 220.0,128.0 L 220.0,162.0 C 220.0,163.108 220.892,164.0 222.0,164.0 L 226.0,164.0 C 227.108,164.0 228.0,163.108 228.0,162.0 L 228.0,140.0 L 252.0,140.0 L 252.0,162.0 C 252.0,163.108 252.892,164.0 254.0,164.0 L 258.0,164.0 C 259.108,164.0 260.0,163.108 260.0,162.0 L 260.0,128.0 L 262.0,128.0 C 263.108,128.0 264.0,127.108 264.0,126.0 L 264.0,122.0 C 264.0,120.892 263.108,120.0 262.0,120.0 L 218.0,120.0 M 228.0,128.0 L 252.0,128.0 L 252.0,132.0 L 228.0,132.0 L 228.0,128.0" fill="#000" /><path d="M 359.0704,123.758 L 356.242,120.9296 C 355.4588,120.1464 354.1976,120.1464 353.414,120.9296 L 346.3436,128.0 L 325.6564,128.0 L 318.586,120.9296 C 317.8024,120.1464 316.5412,120.1464 315.758,120.9296 L 312.9296,123.758 C 312.1464,124.5412 312.1464,125.8024 312.9296,126.586 L 320.0,133.6564 L 320.0,154.3436 L 312.9296,161.414 C 312.1464,162.1976 312.1464,163.4588 312.9296,164.2424 L 315.758,167.0704 C 316.5412,167.854 317.8024,167.854 318.586,167.0704 L 325.6564,160.0 L 346.3436,160.0 L 353.414,167.0704 C 354.1976,167.8536 355.4588,167.8536 356.242,167.0704 L 359.0704,164.242 C 359.8536,163.4588 359.854,162.1976 359.0704,161.414 L 352.0,154.3436 L 352.0,133.6564 L 359.0704,126.586 C 359.8504,125.806 359.8512,124.5388 359.0704,123.758 L 359.0704,123.758 M 344.0,136.0 L 344.0,152.0 L 328.0,152.0 L 328.0,136.0 L 344.0,136.0" fill="#000" /><path d="M 410.0,124.0 C 408.892,124.0 408.0,124.892 408.0,126.0 L 408.0,138.0 C 408.0,139.108 408.892,140.0 410.0,140.0 L 414.0,140.0 C 415.108,140.0 416.0,139.108 416.0,138.0 L 416.0,136.0 L 428.0,136.0 L 428.0,166.0 C 428.0,167.108 428.892,168.0 430.0,168.0 L 434.0,168.0 C 435.108,168.0 436.0,167.108 436.0,166.0 L 436.0,136.0 L 448.0,136.0 L 448.0,138.0 C 448.0,139.108 448.892,140.0 450.0,140.0 L 454.0,140.0 C 455.108,140.0 456.0,139.108 456.0,138.0 L 456.0,126.0 C 456.0,124.892 455.108,124.0 454.0,124.0 L 450.0,124.0 C 448.892,124.0 448.0,124.892 448.0,126.0 L 448.0,128.0 L 416.0,128.0 L 416.0,126.0 C 416.0,124.892 415.108,124.0 414.0,124.0 L 410.0,124.0" fill="#000" /><path d="M 510.0,120.0 C 508.892,120.0 508.0,120.892 508.0,122.0 L 508.0,124.0 L 506.0,124.0 C 504.892,124.0 504.0,124.892 504.0,126.0 L 504.0,130.0 C 504.0,131.108 504.892,132.0 506.0,132.0 L 508.0,132.0 L 508.0,152.0 L 506.0,152.0 C 504.892,152.0 504.0,152.892 504.0,154.0 L 504.0,158.0 C 504.0,159.108 504.892,160.0 506.0,160.0 L 508.0,160.0 L 508.0,162.0 C 508.0,163.108 508.892,164.0 510.0,164.0 L 514.0,164.0 C 515.108,164.0 516.0,163.108 516.0,162.0 L 516.0,160.0 L 536.0,160.0 L 536.0,162.0 C 536.0,163.108 536.892,164.0 538.0,164.0 L 542.0,164.0 C 543.108,164.0 544.0,163.108 544.0,162.0 L 544.0,160.0 L 546.0,160.0 C 547.108,160.0 548.0,159.108 548.0,158.0 L 548.0,154.0 C 548.0,152.892 547.108,152.0 546.0,152.0 L 544.0,152.0 L 544.0,132.0 L 546.0,132.0 C 547.108,132.0 548.0,131.108 548.0,130.0 L 548.0,126.0 C 548.0,124.892 547.108,124.0 546.0,124.0 L 544.0,124.0 L 544.0,122.0 C 544.0,120.892 543.108,120.0 542.0,120.0 L 538.0,120.0 C 536.892,120.0 536.0,120.892 536.0,122.0 L 536.0,124.0 L 516.0,124.0 L 516.0,122.0 C 516.0,120.892 515.108,120.0 514.0,120.0 L 510.0,120.0 M 516.0,132.0 L 536.0,132.0 L 536.0,152.0 L 516.0,152.0 L 516.0,132.0" fill="#000" /></svg>