<?xml version="1.0" encoding="utf-8" ?>
<svg baseProfile="full" height="96" version="1.1" width="768.0" xmlns="http://www.w3.org/2000/svg" xmlns:ev="http://www.w3.org/2001/xml-events" xmlns:xlink="http://www.w3.org/1999/xlink"><defs /><rect fill="#fff" height="96" width="768.0" x="0" y="0" /><path d="M 32.0,24.0156 C 28.9248,24.0156 25.8504,25.1808 23.5156,27.5156 C 18.908,32.1232 18.8588,39.6052 23.3436,44.2892 L 40.586,61.5544 C 41.3716,62.3416 42.6408,62.3288 43.414,61.5544 L 60.6564,44.2892 C 65.1412,39.6052 65.092,32.1232 60.4844,27.5156 C 58.1496,25.1808 55.0752,24.0156 52.0,24.0156 C 48.9248,24.0156 45.8504,25.1808 43.5156,27.5156 C 42.9392,28.092 42.434,28.712 42.0,29.3672 C 41.566,28.712 41.0608,28.092 40.4844,27.5156 C 38.1496,25.1808 35.0752,24.0156 32.0,24.0156 M 60.1016,53.3672 L 56.1016,65.3672 C 55.5784,66.932 57.068,68.4216 58.6328,67.8984 L 64.0,66.1092 L 64.0,74.0 C 63.9972,76.2716 67.1824,76.7888 67.8984,74.6328 L 71.8984,62.6328 C 72.4216,61.068 70.932,59.5784 69.3672,60.1016 L 64.0,61.8908 L 64.0,54.0 C 64.0024,51.752 60.8092,51.2452 60.1016,53.3672 L 60.1016,53.3672" fill="#d22" /><path d="M 140.0,24.0 C 132.8976,24.0 128.0,29.0504 128.0,36.0 L 124.0,64.0 L 132.0,64.0 L 132.0,36.0 C 132.0,31.5816 135.5816,28.0 140.0,28.0 L 146.0,28.0 C 147.108,28.0 148.0,27.108 148.0,26.0 C 148.0,24.892 147.108,24.0 146.0,24.0 L 140.0,24.0 M 144.0,32.0 C 139.568,32.0 136.0,35.568 136.0,40.0 L 136.0,70.0 C 136.0,71.108 136.892,72.0 138.0,72.0 L 150.0,72.0 C 151.108,72.0 152.0,71.108 152.0,70.0 L 152.0,40.0 C 152.0,35.568 148.432,32.0 144.0,32.0" fill="#d22" /><path d="M 240.0,20.0 C 233.352,20.0 228.0,25.352 228.0,32.0 L 226.0,32.0 C 224.892,32.0 224.0,32.892 224.0,34.0 C 224.0,35.108 224.892,36.0 226.0,36.0 L 228.0,36.0 L 228.0,40.0 L 222.0,40.0 C 220.892,40.0 220.0,40.892 220.0,42.0 L 220.0,44.0 L 218.0,44.0 C 216.892,44.0 216.0,44.892 216.0,46.0 L 216.0,50.0 C 216.0,51.108 216.892,52.0 218.0,52.0 L 220.0,52.0 L 220.0,54.0 C 220.0,55.108 220.892,56.0 222.0,56.0 L 228.0,56.0 L 228.0,72.0 L 222.0,72.0 C 220.892,72.0 220.0,72.892 220.0,74.0 C 220.0,75.108 220.892,76.0 222.0,76.0 L 258.0,76.0 C 259.108,76.0 260.0,75.108 260.0,74.0 C 260.0,72.892 259.108,72.0 258.0,72.0 L 252.0,72.0 L 252.0,56.0 L 258.0,56.0 C 259.108,56.0 260.0,55.108 260.0,54.0 L 260.0,52.0 L 262.0,52.0 C 263.108,52.0 264.0,51.108 264.0,50.0 L 264.0,46.0 C 264.0,44.892 263.108,44.0 262.0,44.0 L 260.0,44.0 L 260.0,42.0 C 260.0,40.892 259.108,40.0 258.0,40.0 L 252.0,40.0 L 252.0,36.0 L 254.0,36.0 C 255.108,36.0 256.0,35.108 256.0,34.0 C 256.0,32.892 255.108,32.0 254.0,32.0 L 252.0,32.0 C 252.0,25.352 246.648,20.0 240.0,20.0 M 240.0,40.0 C 244.4184,40.0 248.0,43.5816 248.0,48.0 C 248.0,52.4184 244.4184,56.0 240.0,56.0 C 235.5816,56.0 232.0,52.4184 232.0,48.0 C 232.0,43.5816 235.5816,40.0 240.0,40.0" fill="#d22" /><path d="M 336.0,24.0 A 24.0,24.0 0.0 0,0 312.0,48.0 A 24.0,24.0 0.0 0,0 336.0,72.0 A 24.0,24.0 0.0 0,0 360.0,48.0 A 24.0,24.0 0.0 0,0 336.0,24.0 M 336.0,28.0 A 20.0,20.0 0.0 0,1 356.0,48.0 L 348.0,48.0 A 12.0,12.0 0.0 0,0 336.0,36.0 L 336.0,28.0 M 336.0,40.0 A 8.0,8.0 0.0 0,1 344.0,48.0 A 8.0,8.0 0.0 0,1 336.0,56.0 A 8.0,8.0 0.0 0,1 328.0,48.0 A 8.0,8.0 0.0 0,1 336.0,40.0 M 316.0,48.0 L 324.0,48.0 A 12.0,12.0 0.0 0,0 336.0,60.0 L 336.0,68.0 A 20.0,20.0 0.0 0,1 316.0,48.0" fill="#d22" /><path d="M 430.0,24.0 C 419.0,24.0 408.0,28.0 408.0,36.0 L 420.0,36.0 C 420.0,28.0 440.0,28.0 440.0,36.0 L 452.0,36.0 C 452.0,28.0 441.0,24.0 430.0,24.0 M 408.0,40.0 C 408.0,42.216 409.784,44.0 412.0,44.0 L 416.0,44.0 C 418.216,44.0 420.0,42.216 420.0,40.0 L 408.0,40.0 M 440.0,40.0 C 440.0,42.216 441.784,44.0 444.0,44.0 L 448.0,44.0 C 450.216,44.0 452.0,42.216 452.0,40.0 L 440.0,40.0 M 414.0,52.0 C 410.71,52.0 408.0,54.71 408.0,58.0 C 408.0,61.29 410.71,64.0 414.0,64.0 C 415.1284,64.0 416.0,64.8716 416.0,66.0 C 416.0,67.1284 415.1284,68.0 414.0,68.0 L 410.0,68.0 A 2.0,2.0 0.0 1,0 410.0,72.0 L 414.0,72.0 C 417.29,72.0 420.0,69.29 420.0,66.0 C 420.0,62.71 417.29,60.0 414.0,60.0 C 412.872,60.0 412.0,59.1284 412.0,58.0 C 412.0,56.8716 412.872,56.0 414.0,56.0 L 418.0,56.0 A 2.0,2.0 0.0 1,0 418.0,52.0 L 414.0,52.0 M 430.0,52.0 C 426.71,52.0 424.0,54.71 424.0,58.0 L 424.0,66.0 C 424.0,69.29 426.71,72.0 430.0,72.0 C 432.74,72.0 434.7012,69.9432 435.4064,67.414 A 2.0,2.0 0.0 0,0 436.0,66.0 L 436.0,58.0 C 436.0,54.71 433.29,52.0 430.0,52.0 M 446.0,52.0 C 442.71,52.0 440.0,54.71 440.0,58.0 C 440.0,61.29 442.71,64.0 446.0,64.0 C 447.1284,64.0 448.0,64.8716 448.0,66.0 C 448.0,67.1284 447.1284,68.0 446.0,68.0 L 442.0,68.0 A 2.0,2.0 0.0 1,0 442.0,72.0 L 446.0,72.0 C 449.29,72.0 452.0,69.29 452.0,66.0 C 452.0,62.71 449.29,60.0 446.0,60.0 C 444.872,60.0 444.0,59.1284 444.0,58.0 C 444.0,56.8716 444.872,56.0 446.0,56.0 L 450.0,56.0 A 2.0,2.0 0.0 1,0 450.0,52.0 L 446.0,52.0 M 430.0,56.0 C 431.1284,56.0 432.0,56.8716 432.0,58.0 L 432.0,66.0 C 432.0,67.1284 431.1284,68.0 430.0,68.0 C 428.872,68.0 428.0,67.1284 428.0,66.0 L 428.0,58.0 C 428.0,56.8716 428.872,56.0 430.0,56.0" fill="#d22" /></svg>