<?xml version="1.0" encoding="utf-8" ?>
<svg baseProfile="full" height="331.0" version="1.1" width="458.0" xmlns="http://www.w3.org/2000/svg" xmlns:ev="http://www.w3.org/2001/xml-events" xmlns:xlink="http://www.w3.org/1999/xlink"><rect fill="white" height="331.0" width="458.0" x="0" y="0" /><defs /><text font-family="JetBrains Mono,Fira Code,Fira Mono,ui-monospace,SFMono-regular,SF Mono,Menlo,Consolas,Liberation Mono,monospace" font-size="10.0" font-weight="bold" text-anchor="end" x="156.0" y="117.0">tower:construction=*</text><text font-family="JetBrains Mono,Fira Code,Fira Mono,ui-monospace,SFMono-regular,SF Mono,Menlo,Consolas,Liberation Mono,monospace" font-size="10.0" font-weight="normal" text-anchor="end" x="186.0" y="149.0">freestanding</text><text font-family="JetBrains Mono,Fira Code,Fira Mono,ui-monospace,SFMono-regular,SF Mono,Menlo,Consolas,Liberation Mono,monospace" font-size="10.0" font-weight="normal" text-anchor="end" x="186.0" y="197.0">lattice</text><text font-family="JetBrains Mono,Fira Code,Fira Mono,ui-monospace,SFMono-regular,SF Mono,Menlo,Consolas,Liberation Mono,monospace" font-size="10.0" font-weight="normal" text-anchor="end" x="186.0" y="245.0">guyed_tube</text><text font-family="JetBrains Mono,Fira Code,Fira Mono,ui-monospace,SFMono-regular,SF Mono,Menlo,Consolas,Liberation Mono,monospace" font-size="10.0" font-weight="normal" text-anchor="end" x="186.0" y="293.0">guyed_lattice</text><text font-family="JetBrains Mono,Fira Code,Fira Mono,ui-monospace,SFMono-regular,SF Mono,Menlo,Consolas,Liberation Mono,monospace" font-size="10.0" font-weight="bold" text-anchor="end" x="186.0" y="79.0">tower:type=*</text><text font-family="JetBrains Mono,Fira Code,Fira Mono,ui-monospace,SFMono-regular,SF Mono,Menlo,Consolas,Liberation Mono,monospace" font-size="10.0" font-weight="normal" text-anchor="start" transform="rotate(270,228.0,107.0)" x="228.0" y="107.0" /><text font-family="JetBrains Mono,Fira Code,Fira Mono,ui-monospace,SFMono-regular,SF Mono,Menlo,Consolas,Liberation Mono,monospace" font-size="10.0" font-weight="normal" text-anchor="start" transform="rotate(270,276.0,107.0)" x="276.0" y="107.0">communication</text><text font-family="JetBrains Mono,Fira Code,Fira Mono,ui-monospace,SFMono-regular,SF Mono,Menlo,Consolas,Liberation Mono,monospace" font-size="10.0" font-weight="normal" text-anchor="start" transform="rotate(270,324.0,107.0)" x="324.0" y="107.0">lighting</text><text font-family="JetBrains Mono,Fira Code,Fira Mono,ui-monospace,SFMono-regular,SF Mono,Menlo,Consolas,Liberation Mono,monospace" font-size="10.0" font-weight="normal" text-anchor="start" transform="rotate(270,372.0,107.0)" x="372.0" y="107.0">monitoring</text><text font-family="JetBrains Mono,Fira Code,Fira Mono,ui-monospace,SFMono-regular,SF Mono,Menlo,Consolas,Liberation Mono,monospace" font-size="10.0" font-weight="normal" text-anchor="start" transform="rotate(270,420.0,107.0)" x="420.0" y="107.0">siren</text><line stroke="black" stroke-width="0.5" x1="186.0" x2="171.0" y1="107.0" y2="92.0" /><path d="M 225.0,135.0 C 224.446,135.0 224.0,135.446 224.0,136.0 L 224.0,157.0 L 223.0,157.0 C 222.446,157.0 222.0,157.446 222.0,158.0 C 222.0,158.554 222.446,159.0 223.0,159.0 L 229.0,159.0 C 229.554,159.0 230.0,158.554 230.0,158.0 C 230.0,157.446 229.554,157.0 229.0,157.0 L 228.0,157.0 L 228.0,136.0 C 228.0,135.446 227.554,135.0 227.0,135.0 L 225.0,135.0" fill="#444" /><g opacity="1.0"><path d="M 273.0,135.0 C 272.446,135.0 272.0,135.446 272.0,136.0 L 272.0,157.0 L 271.0,157.0 C 270.446,157.0 270.0,157.446 270.0,158.0 C 270.0,158.554 270.446,159.0 271.0,159.0 L 277.0,159.0 C 277.554,159.0 278.0,158.554 278.0,158.0 C 278.0,157.446 277.554,157.0 277.0,157.0 L 276.0,157.0 L 276.0,136.0 C 276.0,135.446 275.554,135.0 275.0,135.0 L 273.0,135.0" fill="#444" /><path d="M 266.0508,135.0508 C 264.7382,136.3632 264.0,138.1438 264.0,140.0 C 264.0,141.8562 264.7382,143.6368 266.0508,144.9492 C 266.9932,145.931 268.4466,144.4776 267.4648,143.5352 C 266.527,142.5972 266.0,141.3264 266.0,140.0 C 266.0,138.6736 266.527,137.4028 267.4648,136.4648 C 268.44,135.521 266.9574,134.1138 266.0508,135.0508 M 268.8788,137.879 C 268.3166,138.4412 268.0,139.2048 268.0,140.0 C 268.0,140.7952 268.3166,141.5588 268.8788,142.121 C 269.8214,143.103 271.2748,141.6496 270.293,140.707 C 270.1052,140.5192 270.0,140.2656 270.0,140.0 C 270.0,139.7344 270.1052,139.4808 270.293,139.293 C 271.268,138.3492 269.7854,136.942 268.8788,137.879" fill="#444" /><path d="M 280.5352,136.4648 C 281.473,137.4028 282.0,138.6736 282.0,140.0 C 282.0,141.3264 281.473,142.5972 280.5352,143.5352 C 279.5534,144.4776 281.0068,145.931 281.9492,144.9492 C 283.2618,143.6368 284.0,141.8562 284.0,140.0 C 284.0,138.1438 283.2618,136.3632 281.9492,135.0508 C 281.0426,134.1138 279.56,135.521 280.5352,136.4648 M 277.707,139.293 C 277.8948,139.4808 278.0,139.7344 278.0,140.0 C 278.0,140.2656 277.8948,140.5192 277.707,140.707 C 276.7252,141.6496 278.1786,143.103 279.1212,142.121 C 279.6834,141.5588 280.0,140.7952 280.0,140.0 C 280.0,139.2048 279.6834,138.4412 279.1212,137.879 C 278.2146,136.942 276.732,138.3492 277.707,139.293" fill="#444" /></g><g opacity="1.0"><path d="M 321.0,135.0 C 320.446,135.0 320.0,135.446 320.0,136.0 L 320.0,157.0 L 319.0,157.0 C 318.446,157.0 318.0,157.446 318.0,158.0 C 318.0,158.554 318.446,159.0 319.0,159.0 L 325.0,159.0 C 325.554,159.0 326.0,158.554 326.0,158.0 C 326.0,157.446 325.554,157.0 325.0,157.0 L 324.0,157.0 L 324.0,136.0 C 324.0,135.446 323.554,135.0 323.0,135.0 L 321.0,135.0" fill="#444" /><path d="M 312.5546,136.8946 L 316.5546,138.8946 C 317.772,139.5644 318.7136,137.673 317.4454,137.1054 L 313.4454,135.1054 C 312.3052,134.5108 311.3066,136.2986 312.5546,136.8946 M 316.5546,141.1054 L 312.5546,143.1054 C 311.2864,143.673 312.228,145.5642 313.4454,144.8944 L 317.4454,142.8944 C 318.6958,142.2968 317.6926,140.5122 316.5546,141.1054" fill="#444" /><path d="M 330.5546,135.1054 L 326.5546,137.1054 C 325.2864,137.673 326.228,139.5642 327.4454,138.8944 L 331.4454,136.8944 C 332.6958,136.2968 331.6926,134.5122 330.5546,135.1054 M 326.5546,142.8946 L 330.5546,144.8946 C 331.772,145.5644 332.7136,143.673 331.4454,143.1054 L 327.4454,141.1054 C 326.3052,140.5108 325.3066,142.2986 326.5546,142.8946" fill="#444" /></g><g opacity="1.0"><path d="M 369.0,135.0 C 368.446,135.0 368.0,135.446 368.0,136.0 L 368.0,157.0 L 367.0,157.0 C 366.446,157.0 366.0,157.446 366.0,158.0 C 366.0,158.554 366.446,159.0 367.0,159.0 L 373.0,159.0 C 373.554,159.0 374.0,158.554 374.0,158.0 C 374.0,157.446 373.554,157.0 373.0,157.0 L 372.0,157.0 L 372.0,136.0 C 372.0,135.446 371.554,135.0 371.0,135.0 L 369.0,135.0" fill="#444" /><path d="M 362.8906,133.4336 C 364.6698,134.2612 365.4938,136.3274 365.3398,138.586 C 365.3192,139.1044 365.194,139.6144 365.0312,140.0978 C 365.7594,140.66 368.125,142.4898 369.4218,143.0938 C 370.5774,143.6752 369.7668,145.4162 368.5782,144.9064 C 367.2832,144.3032 364.3658,143.6696 363.461,143.4728 C 363.1552,143.8922 362.8662,144.3304 362.504,144.6798 C 360.8746,146.252 358.7596,146.9528 356.9804,146.125 C 356.4802,145.892 356.2634,145.2976 356.496,144.797 L 359.0274,139.3556 L 361.5624,133.918 C 361.7956,133.4178 362.39,133.201 362.8906,133.4336 L 362.8906,133.4336" fill="#444" /><path d="M 377.1094,133.4336 C 375.3302,134.2612 374.5062,136.3274 374.6602,138.586 C 374.6808,139.1044 374.7876,139.618 374.9688,140.0978 C 374.2406,140.66 371.875,142.4898 370.5782,143.0938 C 369.4226,143.6752 370.2332,145.4162 371.4218,144.9064 C 372.7168,144.3032 375.6342,143.6696 376.539,143.4728 C 376.8448,143.8922 377.1338,144.3304 377.496,144.6798 C 379.1254,146.252 381.2404,146.9528 383.0196,146.125 C 383.5198,145.892 383.7366,145.2976 383.504,144.797 L 380.9726,139.3556 L 378.4376,133.918 C 378.2044,133.4178 377.61,133.201 377.1094,133.4336 L 377.1094,133.4336" fill="#444" /></g><g opacity="1.0"><path d="M 417.0,135.0 C 416.446,135.0 416.0,135.446 416.0,136.0 L 416.0,157.0 L 415.0,157.0 C 414.446,157.0 414.0,157.446 414.0,158.0 C 414.0,158.554 414.446,159.0 415.0,159.0 L 421.0,159.0 C 421.554,159.0 422.0,158.554 422.0,158.0 C 422.0,157.446 421.554,157.0 421.0,157.0 L 420.0,157.0 L 420.0,136.0 C 420.0,135.446 419.554,135.0 419.0,135.0 L 417.0,135.0" fill="#444" /><path d="M 408.0508,136.3164 C 409.0086,139.1898 409.0086,140.81 408.0508,143.6836 C 407.7164,144.6852 408.9608,145.4542 409.707,144.707 C 412.6284,141.7856 414.2222,141.0 417.0,141.0 C 417.5522,141.0 418.0,140.5522 418.0,140.0 C 418.0,139.4478 417.5522,139.0 417.0,139.0 C 414.2222,139.0 412.6284,138.2144 409.707,135.293 C 408.9694,134.553 407.7178,135.3222 408.0508,136.3164 L 408.0508,136.3164" fill="#444" /><path d="M 426.293,135.293 C 423.4158,138.1702 421.7364,139.0 419.0,139.0 C 418.4476,139.0 418.0,139.4478 418.0,140.0 C 418.0,140.5522 418.4476,141.0 419.0,141.0 C 421.7778,141.0 423.3716,141.7856 426.293,144.707 C 427.0392,145.4542 428.2836,144.6852 427.9492,143.6836 C 426.9914,140.81 426.9914,139.19 427.9492,136.3164 C 428.2816,135.3112 427.02,134.5704 426.293,135.293 L 426.293,135.293" fill="#444" /></g><path d="M 222.0002,184.1374 L 222.0002,205.86 C 222.0002,206.8128 223.0648,207.3552 223.793,206.6256 L 226.0,204.414 L 226.0,206.0 C 225.98,207.3524 228.0192,207.3524 228.0,206.0 L 228.0,184.0 C 228.008,183.4354 227.549,182.9756 226.9844,182.9844 C 226.432,182.9924 225.9914,183.4478 226.0,184.0 L 226.0,185.586 L 223.7968,183.3828 C 223.0728,182.6588 222.0002,183.1014 222.0002,184.1374 L 222.0002,184.1374 M 224.0,186.414 L 226.0,188.414 L 226.0,189.586 L 224.0,191.586 L 224.0,186.414 M 226.0,192.414 L 226.0,197.586 L 224.0,195.586 L 224.0,194.414 L 226.0,192.414 M 224.0,198.414 L 226.0,200.414 L 226.0,201.586 L 224.0,203.586 L 224.0,198.414" fill="#444" /><g opacity="1.0"><path d="M 270.0002,184.1374 L 270.0002,205.86 C 270.0002,206.8128 271.0648,207.3552 271.793,206.6256 L 274.0,204.414 L 274.0,206.0 C 273.98,207.3524 276.0192,207.3524 276.0,206.0 L 276.0,184.0 C 276.008,183.4354 275.549,182.9756 274.9844,182.9844 C 274.432,182.9924 273.9914,183.4478 274.0,184.0 L 274.0,185.586 L 271.7968,183.3828 C 271.0728,182.6588 270.0002,183.1014 270.0002,184.1374 L 270.0002,184.1374 M 272.0,186.414 L 274.0,188.414 L 274.0,189.586 L 272.0,191.586 L 272.0,186.414 M 274.0,192.414 L 274.0,197.586 L 272.0,195.586 L 272.0,194.414 L 274.0,192.414 M 272.0,198.414 L 274.0,200.414 L 274.0,201.586 L 272.0,203.586 L 272.0,198.414" fill="#444" /><path d="M 264.0508,183.0508 C 262.7382,184.3632 262.0,186.1438 262.0,188.0 C 262.0,189.8562 262.7382,191.6368 264.0508,192.9492 C 264.9932,193.931 266.4466,192.4776 265.4648,191.5352 C 264.527,190.5972 264.0,189.3264 264.0,188.0 C 264.0,186.6736 264.527,185.4028 265.4648,184.4648 C 266.44,183.521 264.9574,182.1138 264.0508,183.0508 M 266.8788,185.879 C 266.3166,186.4412 266.0,187.2048 266.0,188.0 C 266.0,188.7952 266.3166,189.5588 266.8788,190.121 C 267.8214,191.103 269.2748,189.6496 268.293,188.707 C 268.1052,188.5192 268.0,188.2656 268.0,188.0 C 268.0,187.7344 268.1052,187.4808 268.293,187.293 C 269.268,186.3492 267.7854,184.942 266.8788,185.879" fill="#444" /><path d="M 280.5352,184.4648 C 281.473,185.4028 282.0,186.6736 282.0,188.0 C 282.0,189.3264 281.473,190.5972 280.5352,191.5352 C 279.5534,192.4776 281.0068,193.931 281.9492,192.9492 C 283.2618,191.6368 284.0,189.8562 284.0,188.0 C 284.0,186.1438 283.2618,184.3632 281.9492,183.0508 C 281.0426,182.1138 279.56,183.521 280.5352,184.4648 M 277.707,187.293 C 277.8948,187.4808 278.0,187.7344 278.0,188.0 C 278.0,188.2656 277.8948,188.5192 277.707,188.707 C 276.7252,189.6496 278.1786,191.103 279.1212,190.121 C 279.6834,189.5588 280.0,188.7952 280.0,188.0 C 280.0,187.2048 279.6834,186.4412 279.1212,185.879 C 278.2146,184.942 276.732,186.3492 277.707,187.293" fill="#444" /></g><g opacity="1.0"><path d="M 318.0002,184.1374 L 318.0002,205.86 C 318.0002,206.8128 319.0648,207.3552 319.793,206.6256 L 322.0,204.414 L 322.0,206.0 C 321.98,207.3524 324.0192,207.3524 324.0,206.0 L 324.0,184.0 C 324.008,183.4354 323.549,182.9756 322.9844,182.9844 C 322.432,182.9924 321.9914,183.4478 322.0,184.0 L 322.0,185.586 L 319.7968,183.3828 C 319.0728,182.6588 318.0002,183.1014 318.0002,184.1374 L 318.0002,184.1374 M 320.0,186.414 L 322.0,188.414 L 322.0,189.586 L 320.0,191.586 L 320.0,186.414 M 322.0,192.414 L 322.0,197.586 L 320.0,195.586 L 320.0,194.414 L 322.0,192.414 M 320.0,198.414 L 322.0,200.414 L 322.0,201.586 L 320.0,203.586 L 320.0,198.414" fill="#444" /><path d="M 310.5546,184.8946 L 314.5546,186.8946 C 315.772,187.5644 316.7136,185.673 315.4454,185.1054 L 311.4454,183.1054 C 310.3052,182.5108 309.3066,184.2986 310.5546,184.8946 M 314.5546,189.1054 L 310.5546,191.1054 C 309.2864,191.673 310.228,193.5642 311.4454,192.8944 L 315.4454,190.8944 C 316.6958,190.2968 315.6926,188.5122 314.5546,189.1054" fill="#444" /><path d="M 330.5546,183.1054 L 326.5546,185.1054 C 325.2864,185.673 326.228,187.5642 327.4454,186.8944 L 331.4454,184.8944 C 332.6958,184.2968 331.6926,182.5122 330.5546,183.1054 M 326.5546,190.8946 L 330.5546,192.8946 C 331.772,193.5644 332.7136,191.673 331.4454,191.1054 L 327.4454,189.1054 C 326.3052,188.5108 325.3066,190.2986 326.5546,190.8946" fill="#444" /></g><g opacity="1.0"><path d="M 366.0002,184.1374 L 366.0002,205.86 C 366.0002,206.8128 367.0648,207.3552 367.793,206.6256 L 370.0,204.414 L 370.0,206.0 C 369.98,207.3524 372.0192,207.3524 372.0,206.0 L 372.0,184.0 C 372.008,183.4354 371.549,182.9756 370.9844,182.9844 C 370.432,182.9924 369.9914,183.4478 370.0,184.0 L 370.0,185.586 L 367.7968,183.3828 C 367.0728,182.6588 366.0002,183.1014 366.0002,184.1374 L 366.0002,184.1374 M 368.0,186.414 L 370.0,188.414 L 370.0,189.586 L 368.0,191.586 L 368.0,186.414 M 370.0,192.414 L 370.0,197.586 L 368.0,195.586 L 368.0,194.414 L 370.0,192.414 M 368.0,198.414 L 370.0,200.414 L 370.0,201.586 L 368.0,203.586 L 368.0,198.414" fill="#444" /><path d="M 360.8906,181.4336 C 362.6698,182.2612 363.4938,184.3274 363.3398,186.586 C 363.3192,187.1044 363.194,187.6144 363.0312,188.0978 C 363.7594,188.66 366.125,190.4898 367.4218,191.0938 C 368.5774,191.6752 367.7668,193.4162 366.5782,192.9064 C 365.2832,192.3032 362.3658,191.6696 361.461,191.4728 C 361.1552,191.8922 360.8662,192.3304 360.504,192.6798 C 358.8746,194.252 356.7596,194.9528 354.9804,194.125 C 354.4802,193.892 354.2634,193.2976 354.496,192.797 L 357.0274,187.3556 L 359.5624,181.918 C 359.7956,181.4178 360.39,181.201 360.8906,181.4336 L 360.8906,181.4336" fill="#444" /><path d="M 377.1094,181.4336 C 375.3302,182.2612 374.5062,184.3274 374.6602,186.586 C 374.6808,187.1044 374.7876,187.618 374.9688,188.0978 C 374.2406,188.66 371.875,190.4898 370.5782,191.0938 C 369.4226,191.6752 370.2332,193.4162 371.4218,192.9064 C 372.7168,192.3032 375.6342,191.6696 376.539,191.4728 C 376.8448,191.8922 377.1338,192.3304 377.496,192.6798 C 379.1254,194.252 381.2404,194.9528 383.0196,194.125 C 383.5198,193.892 383.7366,193.2976 383.504,192.797 L 380.9726,187.3556 L 378.4376,181.918 C 378.2044,181.4178 377.61,181.201 377.1094,181.4336 L 377.1094,181.4336" fill="#444" /></g><g opacity="1.0"><path d="M 414.0002,184.1374 L 414.0002,205.86 C 414.0002,206.8128 415.0648,207.3552 415.793,206.6256 L 418.0,204.414 L 418.0,206.0 C 417.98,207.3524 420.0192,207.3524 420.0,206.0 L 420.0,184.0 C 420.008,183.4354 419.549,182.9756 418.9844,182.9844 C 418.432,182.9924 417.9914,183.4478 418.0,184.0 L 418.0,185.586 L 415.7968,183.3828 C 415.0728,182.6588 414.0002,183.1014 414.0002,184.1374 L 414.0002,184.1374 M 416.0,186.414 L 418.0,188.414 L 418.0,189.586 L 416.0,191.586 L 416.0,186.414 M 418.0,192.414 L 418.0,197.586 L 416.0,195.586 L 416.0,194.414 L 418.0,192.414 M 416.0,198.414 L 418.0,200.414 L 418.0,201.586 L 416.0,203.586 L 416.0,198.414" fill="#444" /><path d="M 406.0508,184.3164 C 407.0086,187.1898 407.0086,188.81 406.0508,191.6836 C 405.7164,192.6852 406.9608,193.4542 407.707,192.707 C 410.6284,189.7856 412.2222,189.0 415.0,189.0 C 415.5522,189.0 416.0,188.5522 416.0,188.0 C 416.0,187.4478 415.5522,187.0 415.0,187.0 C 412.2222,187.0 410.6284,186.2144 407.707,183.293 C 406.9694,182.553 405.7178,183.3222 406.0508,184.3164 L 406.0508,184.3164" fill="#444" /><path d="M 426.293,183.293 C 423.4158,186.1702 421.7364,187.0 419.0,187.0 C 418.4476,187.0 418.0,187.4478 418.0,188.0 C 418.0,188.5522 418.4476,189.0 419.0,189.0 C 421.7778,189.0 423.3716,189.7856 426.293,192.707 C 427.0392,193.4542 428.2836,192.6852 427.9492,191.6836 C 426.9914,188.81 426.9914,187.19 427.9492,184.3164 C 428.2816,183.3112 427.02,182.5704 426.293,183.293 L 426.293,183.293" fill="#444" /></g><path d="M 225.0,231.0 C 224.446,231.0 224.0,231.446 224.0,232.0 L 224.0,243.6484 L 216.2188,253.375 C 215.3852,254.4166 216.9476,255.6666 217.7812,254.625 L 224.0,246.8516 L 224.0,254.0 C 224.0,254.554 224.446,255.0 225.0,255.0 L 227.0,255.0 C 227.554,255.0 228.0,254.554 228.0,254.0 L 228.0,246.8516 L 234.2188,254.625 C 235.052,255.6668 236.6146,254.4168 235.7812,253.375 L 228.0,243.6484 L 228.0,232.0 C 228.0,231.446 227.554,231.0 227.0,231.0 L 225.0,231.0" fill="#444" /><g opacity="1.0"><path d="M 273.0,231.0 C 272.446,231.0 272.0,231.446 272.0,232.0 L 272.0,243.6484 L 264.2188,253.375 C 263.3852,254.4166 264.9476,255.6666 265.7812,254.625 L 272.0,246.8516 L 272.0,254.0 C 272.0,254.554 272.446,255.0 273.0,255.0 L 275.0,255.0 C 275.554,255.0 276.0,254.554 276.0,254.0 L 276.0,246.8516 L 282.2188,254.625 C 283.052,255.6668 284.6146,254.4168 283.7812,253.375 L 276.0,243.6484 L 276.0,232.0 C 276.0,231.446 275.554,231.0 275.0,231.0 L 273.0,231.0" fill="#444" /><path d="M 266.0508,231.0508 C 264.7382,232.3632 264.0,234.1438 264.0,236.0 C 264.0,237.8562 264.7382,239.6368 266.0508,240.9492 C 266.9932,241.931 268.4466,240.4776 267.4648,239.5352 C 266.527,238.5972 266.0,237.3264 266.0,236.0 C 266.0,234.6736 266.527,233.4028 267.4648,232.4648 C 268.44,231.521 266.9574,230.1138 266.0508,231.0508 M 268.8788,233.879 C 268.3166,234.4412 268.0,235.2048 268.0,236.0 C 268.0,236.7952 268.3166,237.5588 268.8788,238.121 C 269.8214,239.103 271.2748,237.6496 270.293,236.707 C 270.1052,236.5192 270.0,236.2656 270.0,236.0 C 270.0,235.7344 270.1052,235.4808 270.293,235.293 C 271.268,234.3492 269.7854,232.942 268.8788,233.879" fill="#444" /><path d="M 280.5352,232.4648 C 281.473,233.4028 282.0,234.6736 282.0,236.0 C 282.0,237.3264 281.473,238.5972 280.5352,239.5352 C 279.5534,240.4776 281.0068,241.931 281.9492,240.9492 C 283.2618,239.6368 284.0,237.8562 284.0,236.0 C 284.0,234.1438 283.2618,232.3632 281.9492,231.0508 C 281.0426,230.1138 279.56,231.521 280.5352,232.4648 M 277.707,235.293 C 277.8948,235.4808 278.0,235.7344 278.0,236.0 C 278.0,236.2656 277.8948,236.5192 277.707,236.707 C 276.7252,237.6496 278.1786,239.103 279.1212,238.121 C 279.6834,237.5588 280.0,236.7952 280.0,236.0 C 280.0,235.2048 279.6834,234.4412 279.1212,233.879 C 278.2146,232.942 276.732,234.3492 277.707,235.293" fill="#444" /></g><g opacity="1.0"><path d="M 321.0,231.0 C 320.446,231.0 320.0,231.446 320.0,232.0 L 320.0,243.6484 L 312.2188,253.375 C 311.3852,254.4166 312.9476,255.6666 313.7812,254.625 L 320.0,246.8516 L 320.0,254.0 C 320.0,254.554 320.446,255.0 321.0,255.0 L 323.0,255.0 C 323.554,255.0 324.0,254.554 324.0,254.0 L 324.0,246.8516 L 330.2188,254.625 C 331.052,255.6668 332.6146,254.4168 331.7812,253.375 L 324.0,243.6484 L 324.0,232.0 C 324.0,231.446 323.554,231.0 323.0,231.0 L 321.0,231.0" fill="#444" /><path d="M 312.5546,232.8946 L 316.5546,234.8946 C 317.772,235.5644 318.7136,233.673 317.4454,233.1054 L 313.4454,231.1054 C 312.3052,230.5108 311.3066,232.2986 312.5546,232.8946 M 316.5546,237.1054 L 312.5546,239.1054 C 311.2864,239.673 312.228,241.5642 313.4454,240.8944 L 317.4454,238.8944 C 318.6958,238.2968 317.6926,236.5122 316.5546,237.1054" fill="#444" /><path d="M 330.5546,231.1054 L 326.5546,233.1054 C 325.2864,233.673 326.228,235.5642 327.4454,234.8944 L 331.4454,232.8944 C 332.6958,232.2968 331.6926,230.5122 330.5546,231.1054 M 326.5546,238.8946 L 330.5546,240.8946 C 331.772,241.5644 332.7136,239.673 331.4454,239.1054 L 327.4454,237.1054 C 326.3052,236.5108 325.3066,238.2986 326.5546,238.8946" fill="#444" /></g><g opacity="1.0"><path d="M 369.0,231.0 C 368.446,231.0 368.0,231.446 368.0,232.0 L 368.0,243.6484 L 360.2188,253.375 C 359.3852,254.4166 360.9476,255.6666 361.7812,254.625 L 368.0,246.8516 L 368.0,254.0 C 368.0,254.554 368.446,255.0 369.0,255.0 L 371.0,255.0 C 371.554,255.0 372.0,254.554 372.0,254.0 L 372.0,246.8516 L 378.2188,254.625 C 379.052,255.6668 380.6146,254.4168 379.7812,253.375 L 372.0,243.6484 L 372.0,232.0 C 372.0,231.446 371.554,231.0 371.0,231.0 L 369.0,231.0" fill="#444" /><path d="M 362.8906,229.4336 C 364.6698,230.2612 365.4938,232.3274 365.3398,234.586 C 365.3192,235.1044 365.194,235.6144 365.0312,236.0978 C 365.7594,236.66 368.125,238.4898 369.4218,239.0938 C 370.5774,239.6752 369.7668,241.4162 368.5782,240.9064 C 367.2832,240.3032 364.3658,239.6696 363.461,239.4728 C 363.1552,239.8922 362.8662,240.3304 362.504,240.6798 C 360.8746,242.252 358.7596,242.9528 356.9804,242.125 C 356.4802,241.892 356.2634,241.2976 356.496,240.797 L 359.0274,235.3556 L 361.5624,229.918 C 361.7956,229.4178 362.39,229.201 362.8906,229.4336 L 362.8906,229.4336" fill="#444" /><path d="M 377.1094,229.4336 C 375.3302,230.2612 374.5062,232.3274 374.6602,234.586 C 374.6808,235.1044 374.7876,235.618 374.9688,236.0978 C 374.2406,236.66 371.875,238.4898 370.5782,239.0938 C 369.4226,239.6752 370.2332,241.4162 371.4218,240.9064 C 372.7168,240.3032 375.6342,239.6696 376.539,239.4728 C 376.8448,239.8922 377.1338,240.3304 377.496,240.6798 C 379.1254,242.252 381.2404,242.9528 383.0196,242.125 C 383.5198,241.892 383.7366,241.2976 383.504,240.797 L 380.9726,235.3556 L 378.4376,229.918 C 378.2044,229.4178 377.61,229.201 377.1094,229.4336 L 377.1094,229.4336" fill="#444" /></g><g opacity="1.0"><path d="M 417.0,231.0 C 416.446,231.0 416.0,231.446 416.0,232.0 L 416.0,243.6484 L 408.2188,253.375 C 407.3852,254.4166 408.9476,255.6666 409.7812,254.625 L 416.0,246.8516 L 416.0,254.0 C 416.0,254.554 416.446,255.0 417.0,255.0 L 419.0,255.0 C 419.554,255.0 420.0,254.554 420.0,254.0 L 420.0,246.8516 L 426.2188,254.625 C 427.052,255.6668 428.6146,254.4168 427.7812,253.375 L 420.0,243.6484 L 420.0,232.0 C 420.0,231.446 419.554,231.0 419.0,231.0 L 417.0,231.0" fill="#444" /><path d="M 408.0508,232.3164 C 409.0086,235.1898 409.0086,236.81 408.0508,239.6836 C 407.7164,240.6852 408.9608,241.4542 409.707,240.707 C 412.6284,237.7856 414.2222,237.0 417.0,237.0 C 417.5522,237.0 418.0,236.5522 418.0,236.0 C 418.0,235.4478 417.5522,235.0 417.0,235.0 C 414.2222,235.0 412.6284,234.2144 409.707,231.293 C 408.9694,230.553 407.7178,231.3222 408.0508,232.3164 L 408.0508,232.3164" fill="#444" /><path d="M 426.293,231.293 C 423.4158,234.1702 421.7364,235.0 419.0,235.0 C 418.4476,235.0 418.0,235.4478 418.0,236.0 C 418.0,236.5522 418.4476,237.0 419.0,237.0 C 421.7778,237.0 423.3716,237.7856 426.293,240.707 C 427.0392,241.4542 428.2836,240.6852 427.9492,239.6836 C 426.9914,236.81 426.9914,235.19 427.9492,232.3164 C 428.2816,231.3112 427.02,230.5704 426.293,231.293 L 426.293,231.293" fill="#444" /></g><path d="M 223.0,279.0 C 222.4616,279.0 222.0,279.4032 222.0,280.0 L 222.0002,291.649 L 214.219,301.3756 C 213.3854,302.4174 214.9478,303.6674 215.7814,302.6256 L 222.0,294.8476 L 222.0,301.8594 C 222.0,303.0 223.001,303.3678 223.7674,302.6238 C 224.534,301.88 226.0,300.414 226.0,300.414 L 226.0,302.0 C 225.98,303.3524 228.0192,303.3524 228.0,302.0 L 228.0,294.8516 L 234.2188,302.625 C 235.052,303.6668 236.6146,302.4168 235.7812,301.375 L 228.0,291.6484 L 228.0,280.0 C 228.008,279.4354 227.549,278.9756 226.9844,278.9844 C 226.432,278.9924 225.9914,279.4478 226.0,280.0 L 226.0,281.586 L 223.7968,279.3828 C 223.5714,279.1574 223.3266,279.0 223.0,279.0 M 224.0,282.414 L 226.0,284.414 L 226.0,285.586 L 224.0,287.586 L 224.0,282.414 M 226.0,288.414 L 226.0,293.586 L 224.0,291.586 L 224.0,290.414 L 226.0,288.414 M 224.0,294.414 L 226.0,296.414 L 226.0,297.586 L 224.0,299.586 L 224.0,294.414" fill="#444" /><g opacity="1.0"><path d="M 271.0,279.0 C 270.4616,279.0 270.0,279.4032 270.0,280.0 L 270.0002,291.649 L 262.219,301.3756 C 261.3854,302.4174 262.9478,303.6674 263.7814,302.6256 L 270.0,294.8476 L 270.0,301.8594 C 270.0,303.0 271.001,303.3678 271.7674,302.6238 C 272.534,301.88 274.0,300.414 274.0,300.414 L 274.0,302.0 C 273.98,303.3524 276.0192,303.3524 276.0,302.0 L 276.0,294.8516 L 282.2188,302.625 C 283.052,303.6668 284.6146,302.4168 283.7812,301.375 L 276.0,291.6484 L 276.0,280.0 C 276.008,279.4354 275.549,278.9756 274.9844,278.9844 C 274.432,278.9924 273.9914,279.4478 274.0,280.0 L 274.0,281.586 L 271.7968,279.3828 C 271.5714,279.1574 271.3266,279.0 271.0,279.0 M 272.0,282.414 L 274.0,284.414 L 274.0,285.586 L 272.0,287.586 L 272.0,282.414 M 274.0,288.414 L 274.0,293.586 L 272.0,291.586 L 272.0,290.414 L 274.0,288.414 M 272.0,294.414 L 274.0,296.414 L 274.0,297.586 L 272.0,299.586 L 272.0,294.414" fill="#444" /><path d="M 264.0508,279.0508 C 262.7382,280.3632 262.0,282.1438 262.0,284.0 C 262.0,285.8562 262.7382,287.6368 264.0508,288.9492 C 264.9932,289.931 266.4466,288.4776 265.4648,287.5352 C 264.527,286.5972 264.0,285.3264 264.0,284.0 C 264.0,282.6736 264.527,281.4028 265.4648,280.4648 C 266.44,279.521 264.9574,278.1138 264.0508,279.0508 M 266.8788,281.879 C 266.3166,282.4412 266.0,283.2048 266.0,284.0 C 266.0,284.7952 266.3166,285.5588 266.8788,286.121 C 267.8214,287.103 269.2748,285.6496 268.293,284.707 C 268.1052,284.5192 268.0,284.2656 268.0,284.0 C 268.0,283.7344 268.1052,283.4808 268.293,283.293 C 269.268,282.3492 267.7854,280.942 266.8788,281.879" fill="#444" /><path d="M 280.5352,280.4648 C 281.473,281.4028 282.0,282.6736 282.0,284.0 C 282.0,285.3264 281.473,286.5972 280.5352,287.5352 C 279.5534,288.4776 281.0068,289.931 281.9492,288.9492 C 283.2618,287.6368 284.0,285.8562 284.0,284.0 C 284.0,282.1438 283.2618,280.3632 281.9492,279.0508 C 281.0426,278.1138 279.56,279.521 280.5352,280.4648 M 277.707,283.293 C 277.8948,283.4808 278.0,283.7344 278.0,284.0 C 278.0,284.2656 277.8948,284.5192 277.707,284.707 C 276.7252,285.6496 278.1786,287.103 279.1212,286.121 C 279.6834,285.5588 280.0,284.7952 280.0,284.0 C 280.0,283.2048 279.6834,282.4412 279.1212,281.879 C 278.2146,280.942 276.732,282.3492 277.707,283.293" fill="#444" /></g><g opacity="1.0"><path d="M 319.0,279.0 C 318.4616,279.0 318.0,279.4032 318.0,280.0 L 318.0002,291.649 L 310.219,301.3756 C 309.3854,302.4174 310.9478,303.6674 311.7814,302.6256 L 318.0,294.8476 L 318.0,301.8594 C 318.0,303.0 319.001,303.3678 319.7674,302.6238 C 320.534,301.88 322.0,300.414 322.0,300.414 L 322.0,302.0 C 321.98,303.3524 324.0192,303.3524 324.0,302.0 L 324.0,294.8516 L 330.2188,302.625 C 331.052,303.6668 332.6146,302.4168 331.7812,301.375 L 324.0,291.6484 L 324.0,280.0 C 324.008,279.4354 323.549,278.9756 322.9844,278.9844 C 322.432,278.9924 321.9914,279.4478 322.0,280.0 L 322.0,281.586 L 319.7968,279.3828 C 319.5714,279.1574 319.3266,279.0 319.0,279.0 M 320.0,282.414 L 322.0,284.414 L 322.0,285.586 L 320.0,287.586 L 320.0,282.414 M 322.0,288.414 L 322.0,293.586 L 320.0,291.586 L 320.0,290.414 L 322.0,288.414 M 320.0,294.414 L 322.0,296.414 L 322.0,297.586 L 320.0,299.586 L 320.0,294.414" fill="#444" /><path d="M 310.5546,280.8946 L 314.5546,282.8946 C 315.772,283.5644 316.7136,281.673 315.4454,281.1054 L 311.4454,279.1054 C 310.3052,278.5108 309.3066,280.2986 310.5546,280.8946 M 314.5546,285.1054 L 310.5546,287.1054 C 309.2864,287.673 310.228,289.5642 311.4454,288.8944 L 315.4454,286.8944 C 316.6958,286.2968 315.6926,284.5122 314.5546,285.1054" fill="#444" /><path d="M 330.5546,279.1054 L 326.5546,281.1054 C 325.2864,281.673 326.228,283.5642 327.4454,282.8944 L 331.4454,280.8944 C 332.6958,280.2968 331.6926,278.5122 330.5546,279.1054 M 326.5546,286.8946 L 330.5546,288.8946 C 331.772,289.5644 332.7136,287.673 331.4454,287.1054 L 327.4454,285.1054 C 326.3052,284.5108 325.3066,286.2986 326.5546,286.8946" fill="#444" /></g><g opacity="1.0"><path d="M 367.0,279.0 C 366.4616,279.0 366.0,279.4032 366.0,280.0 L 366.0002,291.649 L 358.219,301.3756 C 357.3854,302.4174 358.9478,303.6674 359.7814,302.6256 L 366.0,294.8476 L 366.0,301.8594 C 366.0,303.0 367.001,303.3678 367.7674,302.6238 C 368.534,301.88 370.0,300.414 370.0,300.414 L 370.0,302.0 C 369.98,303.3524 372.0192,303.3524 372.0,302.0 L 372.0,294.8516 L 378.2188,302.625 C 379.052,303.6668 380.6146,302.4168 379.7812,301.375 L 372.0,291.6484 L 372.0,280.0 C 372.008,279.4354 371.549,278.9756 370.9844,278.9844 C 370.432,278.9924 369.9914,279.4478 370.0,280.0 L 370.0,281.586 L 367.7968,279.3828 C 367.5714,279.1574 367.3266,279.0 367.0,279.0 M 368.0,282.414 L 370.0,284.414 L 370.0,285.586 L 368.0,287.586 L 368.0,282.414 M 370.0,288.414 L 370.0,293.586 L 368.0,291.586 L 368.0,290.414 L 370.0,288.414 M 368.0,294.414 L 370.0,296.414 L 370.0,297.586 L 368.0,299.586 L 368.0,294.414" fill="#444" /><path d="M 360.8906,277.4336 C 362.6698,278.2612 363.4938,280.3274 363.3398,282.586 C 363.3192,283.1044 363.194,283.6144 363.0312,284.0978 C 363.7594,284.66 366.125,286.4898 367.4218,287.0938 C 368.5774,287.6752 367.7668,289.4162 366.5782,288.9064 C 365.2832,288.3032 362.3658,287.6696 361.461,287.4728 C 361.1552,287.8922 360.8662,288.3304 360.504,288.6798 C 358.8746,290.252 356.7596,290.9528 354.9804,290.125 C 354.4802,289.892 354.2634,289.2976 354.496,288.797 L 357.0274,283.3556 L 359.5624,277.918 C 359.7956,277.4178 360.39,277.201 360.8906,277.4336 L 360.8906,277.4336" fill="#444" /><path d="M 377.1094,277.4336 C 375.3302,278.2612 374.5062,280.3274 374.6602,282.586 C 374.6808,283.1044 374.7876,283.618 374.9688,284.0978 C 374.2406,284.66 371.875,286.4898 370.5782,287.0938 C 369.4226,287.6752 370.2332,289.4162 371.4218,288.9064 C 372.7168,288.3032 375.6342,287.6696 376.539,287.4728 C 376.8448,287.8922 377.1338,288.3304 377.496,288.6798 C 379.1254,290.252 381.2404,290.9528 383.0196,290.125 C 383.5198,289.892 383.7366,289.2976 383.504,288.797 L 380.9726,283.3556 L 378.4376,277.918 C 378.2044,277.4178 377.61,277.201 377.1094,277.4336 L 377.1094,277.4336" fill="#444" /></g><g opacity="1.0"><path d="M 415.0,279.0 C 414.4616,279.0 414.0,279.4032 414.0,280.0 L 414.0002,291.649 L 406.219,301.3756 C 405.3854,302.4174 406.9478,303.6674 407.7814,302.6256 L 414.0,294.8476 L 414.0,301.8594 C 414.0,303.0 415.001,303.3678 415.7674,302.6238 C 416.534,301.88 418.0,300.414 418.0,300.414 L 418.0,302.0 C 417.98,303.3524 420.0192,303.3524 420.0,302.0 L 420.0,294.8516 L 426.2188,302.625 C 427.052,303.6668 428.6146,302.4168 427.7812,301.375 L 420.0,291.6484 L 420.0,280.0 C 420.008,279.4354 419.549,278.9756 418.9844,278.9844 C 418.432,278.9924 417.9914,279.4478 418.0,280.0 L 418.0,281.586 L 415.7968,279.3828 C 415.5714,279.1574 415.3266,279.0 415.0,279.0 M 416.0,282.414 L 418.0,284.414 L 418.0,285.586 L 416.0,287.586 L 416.0,282.414 M 418.0,288.414 L 418.0,293.586 L 416.0,291.586 L 416.0,290.414 L 418.0,288.414 M 416.0,294.414 L 418.0,296.414 L 418.0,297.586 L 416.0,299.586 L 416.0,294.414" fill="#444" /><path d="M 406.0508,280.3164 C 407.0086,283.1898 407.0086,284.81 406.0508,287.6836 C 405.7164,288.6852 406.9608,289.4542 407.707,288.707 C 410.6284,285.7856 412.2222,285.0 415.0,285.0 C 415.5522,285.0 416.0,284.5522 416.0,284.0 C 416.0,283.4478 415.5522,283.0 415.0,283.0 C 412.2222,283.0 410.6284,282.2144 407.707,279.293 C 406.9694,278.553 405.7178,279.3222 406.0508,280.3164 L 406.0508,280.3164" fill="#444" /><path d="M 426.293,279.293 C 423.4158,282.1702 421.7364,283.0 419.0,283.0 C 418.4476,283.0 418.0,283.4478 418.0,284.0 C 418.0,284.5522 418.4476,285.0 419.0,285.0 C 421.7778,285.0 423.3716,285.7856 426.293,288.707 C 427.0392,289.4542 428.2836,288.6852 427.9492,287.6836 C 426.9914,284.81 426.9914,283.19 427.9492,280.3164 C 428.2816,279.3112 427.02,278.5704 426.293,279.293 L 426.293,279.293" fill="#444" /></g></svg>