<?xml version="1.0" encoding="utf-8" ?>
<svg baseProfile="full" height="241.0" version="1.1" width="410.0" xmlns="http://www.w3.org/2000/svg" xmlns:ev="http://www.w3.org/2001/xml-events" xmlns:xlink="http://www.w3.org/1999/xlink"><rect fill="white" height="241.0" width="410.0" x="0" y="0" /><defs /><text font-family="JetBrains Mono,Fira Code,Fira Mono,ui-monospace,SFMono-regular,SF Mono,Menlo,Consolas,Liberation Mono,monospace" font-size="10.0" font-weight="bold" text-anchor="end" x="156.0" y="75.0">volcano:type=*</text><text font-family="JetBrains Mono,Fira Code,Fira Mono,ui-monospace,SFMono-regular,SF Mono,Menlo,Consolas,Liberation Mono,monospace" font-size="10.0" font-weight="normal" text-anchor="end" x="186.0" y="107.0">stratovolcano</text><text font-family="JetBrains Mono,Fira Code,Fira Mono,ui-monospace,SFMono-regular,SF Mono,Menlo,Consolas,Liberation Mono,monospace" font-size="10.0" font-weight="normal" text-anchor="end" x="186.0" y="155.0">shield</text><text font-family="JetBrains Mono,Fira Code,Fira Mono,ui-monospace,SFMono-regular,SF Mono,Menlo,Consolas,Liberation Mono,monospace" font-size="10.0" font-weight="normal" text-anchor="end" x="186.0" y="203.0">scoria</text><text font-family="JetBrains Mono,Fira Code,Fira Mono,ui-monospace,SFMono-regular,SF Mono,Menlo,Consolas,Liberation Mono,monospace" font-size="10.0" font-weight="bold" text-anchor="end" x="186.0" y="37.0">volcano:status=*</text><text font-family="JetBrains Mono,Fira Code,Fira Mono,ui-monospace,SFMono-regular,SF Mono,Menlo,Consolas,Liberation Mono,monospace" font-size="10.0" font-weight="normal" text-anchor="start" transform="rotate(270,228.0,65.0)" x="228.0" y="65.0" /><text font-family="JetBrains Mono,Fira Code,Fira Mono,ui-monospace,SFMono-regular,SF Mono,Menlo,Consolas,Liberation Mono,monospace" font-size="10.0" font-weight="normal" text-anchor="start" transform="rotate(270,276.0,65.0)" x="276.0" y="65.0">active</text><text font-family="JetBrains Mono,Fira Code,Fira Mono,ui-monospace,SFMono-regular,SF Mono,Menlo,Consolas,Liberation Mono,monospace" font-size="10.0" font-weight="normal" text-anchor="start" transform="rotate(270,324.0,65.0)" x="324.0" y="65.0">dormant</text><text font-family="JetBrains Mono,Fira Code,Fira Mono,ui-monospace,SFMono-regular,SF Mono,Menlo,Consolas,Liberation Mono,monospace" font-size="10.0" font-weight="normal" text-anchor="start" transform="rotate(270,372.0,65.0)" x="372.0" y="65.0">extinct</text><line stroke="black" stroke-width="0.5" x1="186.0" x2="171.0" y1="65.0" y2="50.0" /><g opacity="1.0"><path d="M 225.0,103.0 C 224.6656,103.0 224.3534,103.1672 224.168,103.4454 C 222.2818,106.2746 218.3132,110.2632 214.3984,113.1992 C 213.6276,113.7762 214.0372,115.0022 215.0,115.0 L 237.0,115.0 C 237.9628,115.0022 238.3724,113.7762 237.6016,113.1992 C 233.6868,110.2632 229.7182,106.2746 227.832,103.4454 C 227.6466,103.1672 227.3344,103.0 227.0,103.0 L 225.0,103.0" fill="#444" /><path d="M 223.0,95.0 C 222.446,95.0 222.0,95.446 222.0,96.0 C 222.0,96.554 222.446,97.0 223.0,97.0 L 232.8984,97.0 C 233.4524,97.0 233.8984,96.554 233.8984,96.0 C 233.8984,95.446 233.4524,95.0 232.8984,95.0 L 223.0,95.0 M 225.0,99.0 C 224.446,99.0 224.0,99.446 224.0,100.0 C 224.0,100.554 224.446,101.0 225.0,101.0 L 227.0,101.0 C 227.554,101.0 228.0,100.554 228.0,100.0 C 228.0,99.446 227.554,99.0 227.0,99.0 L 225.0,99.0" fill="#444" /></g><g opacity="1.0"><path d="M 273.0,103.0 C 272.6656,103.0 272.3534,103.1672 272.168,103.4454 C 270.2818,106.2746 266.3132,110.2632 262.3984,113.1992 C 261.6276,113.7762 262.0372,115.0022 263.0,115.0 L 285.0,115.0 C 285.9628,115.0022 286.3724,113.7762 285.6016,113.1992 C 281.6868,110.2632 277.7182,106.2746 275.832,103.4454 C 275.6466,103.1672 275.3344,103.0 275.0,103.0 L 273.0,103.0" fill="#444" /><path d="M 270.0,94.0 C 266.0978,94.0 264.0,96.6274 263.9998,100.0 C 264.0078,100.5428 264.4574,100.9924 264.9998,101.0 C 265.5422,100.9924 265.9926,100.543 265.9998,100.0 C 266.0,98.4122 267.0422,97.0 269.0,97.0 C 270.6686,97.0 272.0,98.3314 272.0,100.0 C 272.004,100.552 272.4528,100.9966 273.0,101.0 L 275.0,101.0 C 275.4842,100.9984 275.9976,100.6058 276.0,100.0 C 276.0,98.3312 277.3314,97.0 279.0,97.0 C 280.6686,97.0 282.0,98.3312 282.0,100.0 L 282.0,102.0 C 282.0,102.5522 282.4478,103.0 283.0,103.0 C 283.5522,103.0 284.0,102.5522 284.0,102.0 L 284.0,100.0 C 284.0,96.6344 281.3636,94.0 278.0,94.0 C 276.4672,94.0 275.063,94.5816 274.0,95.5352 C 272.937,94.5816 271.5328,94.0 270.0,94.0 M 287.0,101.0 C 286.4478,101.0 286.0,101.4478 286.0,102.0 C 286.0,102.5522 286.4478,103.0 287.0,103.0 C 287.5522,103.0 288.0,102.5522 288.0,102.0 C 288.0,101.4478 287.5522,101.0 287.0,101.0 M 267.0,103.0 C 266.4478,103.0 266.0,103.4478 266.0,104.0 C 266.0,104.5522 266.4478,105.0 267.0,105.0 C 267.5522,105.0 268.0,104.5522 268.0,104.0 C 268.0,103.4478 267.5522,103.0 267.0,103.0 M 263.0,105.0 C 262.4478,105.0 262.0,105.4478 262.0,106.0 C 262.0,106.5522 262.4478,107.0 263.0,107.0 C 263.5522,107.0 264.0,106.5522 264.0,106.0 C 264.0,105.4478 263.5522,105.0 263.0,105.0 M 285.0,105.0 C 284.4478,105.0 284.0,105.4478 284.0,106.0 C 284.0,106.5522 284.4478,107.0 285.0,107.0 C 285.5522,107.0 286.0,106.5522 286.0,106.0 C 286.0,105.4478 285.5522,105.0 285.0,105.0" fill="#444" /></g><g opacity="1.0"><path d="M 321.0,103.0 C 320.6656,103.0 320.3534,103.1672 320.168,103.4454 C 318.2818,106.2746 314.3132,110.2632 310.3984,113.1992 C 309.6276,113.7762 310.0372,115.0022 311.0,115.0 L 333.0,115.0 C 333.9628,115.0022 334.3724,113.7762 333.6016,113.1992 C 329.6868,110.2632 325.7182,106.2746 323.832,103.4454 C 323.6466,103.1672 323.3344,103.0 323.0,103.0 L 321.0,103.0" fill="#444" /><path d="M 321.0,95.0 C 320.446,95.0 320.0,95.446 320.0,96.0 C 320.0,96.554 320.446,97.0 321.0,97.0 L 323.0,97.0 C 323.554,97.0 324.0,97.446 324.0,98.0 C 324.0,98.554 323.554,99.0 323.0,99.0 C 322.446,99.0 322.0,99.446 322.0,100.0 C 322.0,100.554 322.446,101.0 323.0,101.0 L 325.0,101.0 C 325.554,101.0 326.0,100.554 326.0,100.0 C 326.0,99.446 326.446,99.0 327.0,99.0 L 331.0,99.0 C 331.554,99.0 332.0,98.554 332.0,98.0 C 332.0,97.446 332.446,97.0 333.0,97.0 L 335.0,97.0 C 335.554,97.0 336.0,96.554 336.0,96.0 C 336.0,95.446 335.554,95.0 335.0,95.0 L 321.0,95.0" fill="#444" /></g><path d="M 369.0,103.0 C 368.6656,103.0 368.3534,103.1672 368.168,103.4454 C 366.2818,106.2746 362.3132,110.2632 358.3984,113.1992 C 357.6276,113.7762 358.0372,115.0022 359.0,115.0 L 381.0,115.0 C 381.9628,115.0022 382.3724,113.7762 381.6016,113.1992 C 377.6868,110.2632 373.7182,106.2746 371.832,103.4454 C 371.6466,103.1672 371.3344,103.0 371.0,103.0 L 369.0,103.0" fill="#444" /><g opacity="1.0"><path d="M 225.0,155.0 C 224.7348,155.0 224.4804,155.1054 224.293,155.293 C 222.4108,157.1752 219.5436,159.1044 214.6288,161.0704 C 213.6028,161.4774 213.896,163.0024 215.0,163.0 L 237.0,163.0 C 238.104,163.0024 238.3972,161.4774 237.3712,161.0704 C 232.4564,159.1044 229.5892,157.1752 227.707,155.293 C 227.5196,155.1054 227.2652,155.0 227.0,155.0 L 225.0,155.0" fill="#444" /><path d="M 223.0,147.0 C 222.446,147.0 222.0,147.446 222.0,148.0 C 222.0,148.554 222.446,149.0 223.0,149.0 L 232.8984,149.0 C 233.4524,149.0 233.8984,148.554 233.8984,148.0 C 233.8984,147.446 233.4524,147.0 232.8984,147.0 L 223.0,147.0 M 225.0,151.0 C 224.446,151.0 224.0,151.446 224.0,152.0 C 224.0,152.554 224.446,153.0 225.0,153.0 L 227.0,153.0 C 227.554,153.0 228.0,152.554 228.0,152.0 C 228.0,151.446 227.554,151.0 227.0,151.0 L 225.0,151.0" fill="#444" /></g><g opacity="1.0"><path d="M 273.0,155.0 C 272.7348,155.0 272.4804,155.1054 272.293,155.293 C 270.4108,157.1752 267.5436,159.1044 262.6288,161.0704 C 261.6028,161.4774 261.896,163.0024 263.0,163.0 L 285.0,163.0 C 286.104,163.0024 286.3972,161.4774 285.3712,161.0704 C 280.4564,159.1044 277.5892,157.1752 275.707,155.293 C 275.5196,155.1054 275.2652,155.0 275.0,155.0 L 273.0,155.0" fill="#444" /><path d="M 270.0,146.0 C 266.0978,146.0 264.0,148.6274 263.9998,152.0 C 264.0078,152.5428 264.4574,152.9924 264.9998,153.0 C 265.5422,152.9924 265.9926,152.543 265.9998,152.0 C 266.0,150.4122 267.0422,149.0 269.0,149.0 C 270.6686,149.0 272.0,150.3314 272.0,152.0 C 272.004,152.552 272.4528,152.9966 273.0,153.0 L 275.0,153.0 C 275.4842,152.9984 275.9976,152.6058 276.0,152.0 C 276.0,150.3312 277.3314,149.0 279.0,149.0 C 280.6686,149.0 282.0,150.3312 282.0,152.0 L 282.0,154.0 C 282.0,154.5522 282.4478,155.0 283.0,155.0 C 283.5522,155.0 284.0,154.5522 284.0,154.0 L 284.0,152.0 C 284.0,148.6344 281.3636,146.0 278.0,146.0 C 276.4672,146.0 275.063,146.5816 274.0,147.5352 C 272.937,146.5816 271.5328,146.0 270.0,146.0 M 287.0,153.0 C 286.4478,153.0 286.0,153.4478 286.0,154.0 C 286.0,154.5522 286.4478,155.0 287.0,155.0 C 287.5522,155.0 288.0,154.5522 288.0,154.0 C 288.0,153.4478 287.5522,153.0 287.0,153.0 M 267.0,155.0 C 266.4478,155.0 266.0,155.4478 266.0,156.0 C 266.0,156.5522 266.4478,157.0 267.0,157.0 C 267.5522,157.0 268.0,156.5522 268.0,156.0 C 268.0,155.4478 267.5522,155.0 267.0,155.0 M 263.0,157.0 C 262.4478,157.0 262.0,157.4478 262.0,158.0 C 262.0,158.5522 262.4478,159.0 263.0,159.0 C 263.5522,159.0 264.0,158.5522 264.0,158.0 C 264.0,157.4478 263.5522,157.0 263.0,157.0 M 285.0,157.0 C 284.4478,157.0 284.0,157.4478 284.0,158.0 C 284.0,158.5522 284.4478,159.0 285.0,159.0 C 285.5522,159.0 286.0,158.5522 286.0,158.0 C 286.0,157.4478 285.5522,157.0 285.0,157.0" fill="#444" /></g><g opacity="1.0"><path d="M 321.0,155.0 C 320.7348,155.0 320.4804,155.1054 320.293,155.293 C 318.4108,157.1752 315.5436,159.1044 310.6288,161.0704 C 309.6028,161.4774 309.896,163.0024 311.0,163.0 L 333.0,163.0 C 334.104,163.0024 334.3972,161.4774 333.3712,161.0704 C 328.4564,159.1044 325.5892,157.1752 323.707,155.293 C 323.5196,155.1054 323.2652,155.0 323.0,155.0 L 321.0,155.0" fill="#444" /><path d="M 321.0,147.0 C 320.446,147.0 320.0,147.446 320.0,148.0 C 320.0,148.554 320.446,149.0 321.0,149.0 L 323.0,149.0 C 323.554,149.0 324.0,149.446 324.0,150.0 C 324.0,150.554 323.554,151.0 323.0,151.0 C 322.446,151.0 322.0,151.446 322.0,152.0 C 322.0,152.554 322.446,153.0 323.0,153.0 L 325.0,153.0 C 325.554,153.0 326.0,152.554 326.0,152.0 C 326.0,151.446 326.446,151.0 327.0,151.0 L 331.0,151.0 C 331.554,151.0 332.0,150.554 332.0,150.0 C 332.0,149.446 332.446,149.0 333.0,149.0 L 335.0,149.0 C 335.554,149.0 336.0,148.554 336.0,148.0 C 336.0,147.446 335.554,147.0 335.0,147.0 L 321.0,147.0" fill="#444" /></g><path d="M 369.0,155.0 C 368.7348,155.0 368.4804,155.1054 368.293,155.293 C 366.4108,157.1752 363.5436,159.1044 358.6288,161.0704 C 357.6028,161.4774 357.896,163.0024 359.0,163.0 L 381.0,163.0 C 382.104,163.0024 382.3972,161.4774 381.3712,161.0704 C 376.4564,159.1044 373.5892,157.1752 371.707,155.293 C 371.5196,155.1054 371.2652,155.0 371.0,155.0 L 369.0,155.0" fill="#444" /><g opacity="1.0"><path d="M 225.0,201.0 C 224.5694,200.9998 224.187,201.2752 224.0508,201.6836 C 223.114,204.4938 221.232,207.3102 218.4454,209.168 C 217.6226,209.717 218.0108,210.9996 219.0,211.0 L 233.0,211.0 C 233.9892,210.9996 234.3774,209.717 233.5546,209.168 C 230.768,207.3102 228.886,204.4938 227.9492,201.6836 C 227.813,201.2752 227.4306,200.9998 227.0,201.0 L 225.0,201.0" fill="#444" /><path d="M 223.0,193.0 C 222.446,193.0 222.0,193.446 222.0,194.0 C 222.0,194.554 222.446,195.0 223.0,195.0 L 232.8984,195.0 C 233.4524,195.0 233.8984,194.554 233.8984,194.0 C 233.8984,193.446 233.4524,193.0 232.8984,193.0 L 223.0,193.0 M 225.0,197.0 C 224.446,197.0 224.0,197.446 224.0,198.0 C 224.0,198.554 224.446,199.0 225.0,199.0 L 227.0,199.0 C 227.554,199.0 228.0,198.554 228.0,198.0 C 228.0,197.446 227.554,197.0 227.0,197.0 L 225.0,197.0" fill="#444" /></g><g opacity="1.0"><path d="M 273.0,201.0 C 272.5694,200.9998 272.187,201.2752 272.0508,201.6836 C 271.114,204.4938 269.232,207.3102 266.4454,209.168 C 265.6226,209.717 266.0108,210.9996 267.0,211.0 L 281.0,211.0 C 281.9892,210.9996 282.3774,209.717 281.5546,209.168 C 278.768,207.3102 276.886,204.4938 275.9492,201.6836 C 275.813,201.2752 275.4306,200.9998 275.0,201.0 L 273.0,201.0" fill="#444" /><path d="M 270.0,192.0 C 266.0978,192.0 264.0,194.6274 263.9998,198.0 C 264.0078,198.5428 264.4574,198.9924 264.9998,199.0 C 265.5422,198.9924 265.9926,198.543 265.9998,198.0 C 266.0,196.4122 267.0422,195.0 269.0,195.0 C 270.6686,195.0 272.0,196.3314 272.0,198.0 C 272.004,198.552 272.4528,198.9966 273.0,199.0 L 275.0,199.0 C 275.4842,198.9984 275.9976,198.6058 276.0,198.0 C 276.0,196.3312 277.3314,195.0 279.0,195.0 C 280.6686,195.0 282.0,196.3312 282.0,198.0 L 282.0,200.0 C 282.0,200.5522 282.4478,201.0 283.0,201.0 C 283.5522,201.0 284.0,200.5522 284.0,200.0 L 284.0,198.0 C 284.0,194.6344 281.3636,192.0 278.0,192.0 C 276.4672,192.0 275.063,192.5816 274.0,193.5352 C 272.937,192.5816 271.5328,192.0 270.0,192.0 M 287.0,199.0 C 286.4478,199.0 286.0,199.4478 286.0,200.0 C 286.0,200.5522 286.4478,201.0 287.0,201.0 C 287.5522,201.0 288.0,200.5522 288.0,200.0 C 288.0,199.4478 287.5522,199.0 287.0,199.0 M 267.0,201.0 C 266.4478,201.0 266.0,201.4478 266.0,202.0 C 266.0,202.5522 266.4478,203.0 267.0,203.0 C 267.5522,203.0 268.0,202.5522 268.0,202.0 C 268.0,201.4478 267.5522,201.0 267.0,201.0 M 263.0,203.0 C 262.4478,203.0 262.0,203.4478 262.0,204.0 C 262.0,204.5522 262.4478,205.0 263.0,205.0 C 263.5522,205.0 264.0,204.5522 264.0,204.0 C 264.0,203.4478 263.5522,203.0 263.0,203.0 M 285.0,203.0 C 284.4478,203.0 284.0,203.4478 284.0,204.0 C 284.0,204.5522 284.4478,205.0 285.0,205.0 C 285.5522,205.0 286.0,204.5522 286.0,204.0 C 286.0,203.4478 285.5522,203.0 285.0,203.0" fill="#444" /></g><g opacity="1.0"><path d="M 321.0,201.0 C 320.5694,200.9998 320.187,201.2752 320.0508,201.6836 C 319.114,204.4938 317.232,207.3102 314.4454,209.168 C 313.6226,209.717 314.0108,210.9996 315.0,211.0 L 329.0,211.0 C 329.9892,210.9996 330.3774,209.717 329.5546,209.168 C 326.768,207.3102 324.886,204.4938 323.9492,201.6836 C 323.813,201.2752 323.4306,200.9998 323.0,201.0 L 321.0,201.0" fill="#444" /><path d="M 321.0,193.0 C 320.446,193.0 320.0,193.446 320.0,194.0 C 320.0,194.554 320.446,195.0 321.0,195.0 L 323.0,195.0 C 323.554,195.0 324.0,195.446 324.0,196.0 C 324.0,196.554 323.554,197.0 323.0,197.0 C 322.446,197.0 322.0,197.446 322.0,198.0 C 322.0,198.554 322.446,199.0 323.0,199.0 L 325.0,199.0 C 325.554,199.0 326.0,198.554 326.0,198.0 C 326.0,197.446 326.446,197.0 327.0,197.0 L 331.0,197.0 C 331.554,197.0 332.0,196.554 332.0,196.0 C 332.0,195.446 332.446,195.0 333.0,195.0 L 335.0,195.0 C 335.554,195.0 336.0,194.554 336.0,194.0 C 336.0,193.446 335.554,193.0 335.0,193.0 L 321.0,193.0" fill="#444" /></g><path d="M 369.0,201.0 C 368.5694,200.9998 368.187,201.2752 368.0508,201.6836 C 367.114,204.4938 365.232,207.3102 362.4454,209.168 C 361.6226,209.717 362.0108,210.9996 363.0,211.0 L 377.0,211.0 C 377.9892,210.9996 378.3774,209.717 377.5546,209.168 C 374.768,207.3102 372.886,204.4938 371.9492,201.6836 C 371.813,201.2752 371.4306,200.9998 371.0,201.0 L 369.0,201.0" fill="#444" /></svg>